{
classes = (
{
code = "k_i_k g_i_k k_i g_i ki_i gi_i kb_i gb_i k_i1 g_i1 k_i2 g_i2 k_i3 g_i3 k_i4 g_i4 k_is g_is ki_j gi_j k_i3s g_i3s ka2 ga2";
name = curs;
},
{
code = "j_i2 S_i2 v_i2 e_i2 f_i2 m_i2 o_i2 h_i2 k_i3 g_i3 l_i3 bi s_iw";
name = kern;
},
{
code = "b_i3 j_i3 S_i3 v_i3 e_i3 f_i3 m_i3 o_i3 ki_j gi_j li_j";
name = kern10;
},
{
code = "b_i1 j_i1 s_i1 v_i1 e_i1 f_i1 k_i1 g_i1 l_i1 m_i1 o_i1 h_i1 b_i2 j_i2 S_i2 v_i2 e_i2 f_i2 l_i2 m_i2 o_i2 h_i2 b_i4 b_i3 k_i4 g_i4 k_is g_is bi s_iw b_altk b5 b_im k_i3s g_i3s";
name = kern11;
},
{
code = "b_m1 j_m1 l_m1 o_m1 h_m1 j_m2 k_m2 g_m2 l_m2 m_m2 o_m2 h_m2 j_m3 h_m3 b_mo1 km_j gm_j b_mj b_mv b3 s_1 bv_j bf1 o_2_x jm1 b_m3 mm1 b_3 b_je b_jf m5_bb m5_s km gm lm k_i2s g_i2s";
name = kern12;
},
{
code = "j_i1 s_i1 f_i1 b_i2 j_i2 S_i2 v_i2 e_i2 f_i2 l_i2 b_i3 j_i3 s_i3 k_i4 g_i4 ki_j gi_j li_j k_i3s g_i3s k_i2s g_i2s";
name = kern13;
},
{
code = "j_m2 l_m2 lm_j b_mj b_mm b4 s_1 b3_m be1 be3 bf4 jm1 jm mm km gm";
name = kern14;
},
{
code = "b_i2 j_i2 e_i2 f_i2 l_i2 m_i2 o_i2 h_i2 j_i3 k_i3 g_i3 l_i3 m_i3 o_i3 k_i4 g_i4 m3_I k_i2s g_i2s";
name = kern15;
},
{
code = "b_m3ex b_mj b_mv b3 s_1 be1 bf1 o_1 jm1 b_m3 jm mm1 mm lm";
name = kern16;
},
{
code = "b_i1 l_i2 m_i3 ki_j gi_j li_j";
name = kern17;
},
{
code = "b_i1 f_i1 o_i1 l_i2 k_i4 g_i4 bi ki_j gi_j b_altk b_im k_i3s g_i3s k_i2s g_i2s";
name = kern18;
},
{
code = "b_m1 l_m1 m_m1 l_m2 b_m3ex bm b_m5 k_m g_m b_mj b_m3 jm mm1 mm m5_j";
name = kern19;
},
{
code = "b_i3 j_i3 s_i3 S_i3 v_i3 e_i3 f_i3 m_i3 o_i3 h_i3 m_mo o_mo ki_j gi_j li_j";
name = kern2;
},
{
code = "b_i1 b_i2 j_i2 b_i3 j_i3 m_i3 o_i3 ki_j gi_j li_j b5 b_im k_i3s g_i3s";
name = kern20;
},
{
code = "bi_i br_i2 b_i1 b_i2 b_i4 b_i3 bn_i bi b_im";
name = kern21;
},
{
code = "b_i2 j_i2 e_i2 f_i2 k_i2 g_i2 l_i2 m_i2 o_i2 s_iw v_iw h_iw";
name = kern3;
},
{
code = "b_i2 j_i2 f_i2 k_i2 g_i2 l_i2 o_i2";
name = kern4;
},
{
code = "b_i2 j_i2 s_i2 S_i2 v_i2 e_i2 f_i2 k_i2 g_i2 l_i2 m_i2 o_i2 h_i2";
name = kern5;
},
{

glyphs = (
{
glyphname = .notdef;
layers = (
{
layerId = "84ea52b8-4d94-41b7-b7f8-6e3870ee3aa0";
paths = (
{
closed = 1;
nodes = (
"839 1171 LINE",
"839 0 LINE",
"195 0 LINE",
"195 1171 LINE"
);
},
{
closed = 1;
nodes = (
"266 1094 LINE",
"266 59 LINE",
"763 59 LINE",
"763 1094 LINE"
);
}
);
width = 1024;
}
);
},
{
glyphname = exclam.1;
layers = (
{
layerId = "84ea52b8-4d94-41b7-b7f8-6e3870ee3aa0";
paths = (
{
closed = 1;
nodes = (
"220 291 LINE",
"176 913 LINE",
"176 1173 LINE",
"354 1173 LINE",
"354 913 LINE",
"313 291 LINE"
);
},
{
closed = 1;
nodes = (
"182 0 LINE",
"182 164 LINE",
"348 164 LINE",
"348 0 LINE"
);
}
);
width = 524;
}
);
},
{
glyphname = quotedbl;
layers = (
{
layerId = "84ea52b8-4d94-41b7-b7f8-6e3870ee3aa0";
paths = (
{
closed = 1;
nodes = (
"134 758 LINE",
"94 981 LINE",
"94 1173 LINE",
"258 1173 LINE",
"258 981 LINE",
"222 758 LINE"
);
},
{
closed = 1;
nodes = (
"399 758 LINE",
"360 981 LINE",
"360 1173 LINE",
"524 1173 LINE",
"524 981 LINE",
"485 758 LINE"
);
}
);
width = 620;
}
);
unicode =   22;
},
{
glyphname = numbersign;
layers = (
{
layerId = "84ea52b8-4d94-41b7-b7f8-6e3870ee3aa0";
paths = (
{
closed = 1;
nodes = (
"86 -20 LINE",
"156 321 LINE",
"21 321 LINE",
"21 440 LINE",
"180 440 LINE",
"239 730 LINE",
"21 730 LINE",
"21 850 LINE",
"263 850 LINE",
"333 1193 LINE",
"453 1193 LINE",
"383 850 LINE",
"635 850 LINE",
"705 1193 LINE",
"826 1193 LINE",
"756 850 LINE",
"894 850 LINE",
"894 730 LINE",
"732 730 LINE",
"672 440 LINE",
"894 440 LINE",
"894 321 LINE",
"648 321 LINE",
"578 -20 LINE",
"458 -20 LINE",
"527 321 LINE",
"276 321 LINE",
"206 -20 LINE"
);
},
{
closed = 1;
nodes = (
"300 440 LINE",
"551 440 LINE",
"611 730 LINE",
"359 730 LINE"
);
}
);
width = 920;
}
);
unicode =   23;
},
{
glyphname = dollar;
layers = (
{
layerId = "84ea52b8-4d94-41b7-b7f8-6e3870ee3aa0";
paths = (
{
closed = 1;
nodes = (
"508 -169 LINE",
"423 -169 LINE",
"423 -25 LINE",
"315 -11 OFFCURVE",
"180 58 OFFCURVE",
"81 214 OFFCURVE",
"73 326 QCURVE",
"218 353 LINE",
"253 115 OFFCURVE",
"423 97 QCURVE",
"423 555 LINE",
"334 572 OFFCURVE",
"241 624 QCURVE SMOOTH",
"173 662 OFFCURVE",
"98 798 OFFCURVE",
"98 885 QCURVE SMOOTH",
"98 1038 OFFCURVE",
"207 1134 QCURVE SMOOTH",
"280 1198 OFFCURVE",
"423 1212 QCURVE",
"423 1281 LINE",
"508 1281 LINE",
"508 1212 LINE",
"633 1200 OFFCURVE",
"707 1138 QCURVE SMOOTH",
"801 1060 OFFCURVE",
"821 923 QCURVE",
"672 901 LINE",
"659 986 OFFCURVE",
"578 1076 OFFCURVE",
"508 1090 QCURVE",
"508 675 LINE",
"617 648 OFFCURVE",
"652 633 QCURVE SMOOTH",
"719 603 OFFCURVE",
"804 518 OFFCURVE",
"849 402 OFFCURVE",
"849 334 QCURVE SMOOTH",
"849 184 OFFCURVE",
"659 -16 OFFCURVE",
"508 -23 QCURVE"
);
},
{
closed = 1;
nodes = (
"423 1092 LINE",
"339 1079 OFFCURVE",
"242 970 OFFCURVE",
"242 896 QCURVE SMOOTH",
"242 822 OFFCURVE",
"325 723 OFFCURVE",
"423 694 QCURVE"
);
},
{
closed = 1;
nodes = (
"508 97 LINE",
"592 107 OFFCURVE",
"701 232 OFFCURVE",
"701 324 QCURVE SMOOTH",
"701 402 OFFCURVE",
"624 498 OFFCURVE",
"508 535 QCURVE"
);
}
);
width = 945;
}
);
unicode =   24;
},
{
glyphname = percent;
layers = (
{
layerId = "84ea52b8-4d94-41b7-b7f8-6e3870ee3aa0";
paths = (
{
closed = 1;
nodes = (
"119 1017 OFFCURVE",
"246 1193 OFFCURVE",
"366 1193 QCURVE SMOOTH",
"476 1193 OFFCURVE",
"621 1035 OFFCURVE",
"621 882 QCURVE SMOOTH",
"621 734 OFFCURVE",
"474 573 OFFCURVE",
"367 573 QCURVE SMOOTH",
"261 573 OFFCURVE",
"119 731 OFFCURVE",
"119 891 QCURVE SMOOTH"
);
},
{
closed = 1;
nodes = (
"370 -43 LINE",
"1012 1193 LINE",
"1129 1193 LINE",
"490 -43 LINE"
);
},
{
closed = 1;
nodes = (
"316 1094 OFFCURVE",
"245 1001 OFFCURVE",
"245 877 QCURVE SMOOTH",
"245 764 OFFCURVE",
"317 672 OFFCURVE",
"370 672 QCURVE SMOOTH",
"424 672 OFFCURVE",
"495 765 OFFCURVE",
"495 888 QCURVE SMOOTH",
"495 1002 OFFCURVE",
"423 1094 OFFCURVE",
"370 1094 QCURVE SMOOTH"
);
},
{
closed = 1;
nodes = (
"878 402 OFFCURVE",
"1004 577 OFFCURVE",
"1125 577 QCURVE SMOOTH",
"1235 577 OFFCURVE",
"1380 419 OFFCURVE",
"1380 266 QCURVE SMOOTH",
"1380 118 OFFCURVE",
"1234 -43 OFFCURVE",
"1126 -43 QCURVE SMOOTH",
"1019 -43 OFFCURVE",
"878 116 OFFCURVE",
"878 275 QCURVE SMOOTH"
);
},
{
closed = 1;
nodes = (
"1074 478 OFFCURVE",
"1003 385 OFFCURVE",
"1003 261 QCURVE SMOOTH",
"1003 149 OFFCURVE",
"1075 56 OFFCURVE",
"1128 56 QCURVE SMOOTH",
"1183 56 OFFCURVE",
"1254 149 OFFCURVE",
"1254 272 QCURVE SMOOTH",
"1254 386 OFFCURVE",
"1182 478 OFFCURVE",
"1129 478 QCURVE SMOOTH"
);
}
);
width = 1506;
}
);
unicode =   25;
},
{
glyphname = ampersand;
layers = (
{
layerId = "84ea52b8-4d94-41b7-b7f8-6e3870ee3aa0";
paths = (
{
closed = 1;
nodes = (
"725 59 OFFCURVE",
"557 -20 OFFCURVE",
"460 -20 QCURVE SMOOTH",
"280 -20 OFFCURVE",
"174 102 QCURVE SMOOTH",
"88 201 OFFCURVE",
"88 323 QCURVE SMOOTH",
"88 432 OFFCURVE",
"228 607 OFFCURVE",
"368 674 QCURVE",
"288 765 OFFCURVE",
"236 878 OFFCURVE",
"236 931 QCURVE SMOOTH",
"236 1037 OFFCURVE",
"401 1193 OFFCURVE",
"527 1193 QCURVE SMOOTH",
"647 1193 OFFCURVE",
"800 1046 OFFCURVE",
"800 942 QCURVE SMOOTH",
"800 775 OFFCURVE",
"578 657 QCURVE",
"788 389 LINE",
"824 459 OFFCURVE",
"844 552 QCURVE",
"994 520 LINE",
"956 366 OFFCURVE",
"890 267 QCURVE",
"971 160 OFFCURVE",
"1073 87 QCURVE",
"976 -27 LINE",
"889 29 OFFCURVE",
"796 138 QCURVE"
);
},
{
closed = 1;
nodes = (
"504 750 LINE",
"597 805 OFFCURVE",
"652 888 OFFCURVE",
"652 938 QCURVE SMOOTH",
"652 998 OFFCURVE",
"576 1074 OFFCURVE",
"520 1074 QCURVE SMOOTH",
"461 1074 OFFCURVE",
"384 999 OFFCURVE",
"384 945 QCURVE SMOOTH",
"384 918 OFFCURVE",
"412 858 OFFCURVE",
"440 824 QCURVE"
);
},
{
closed = 1;
nodes = (
"442 579 LINE",
"325 510 OFFCURVE",
"244 390 OFFCURVE",
"244 332 QCURVE SMOOTH",
"244 261 OFFCURVE",
"357 107 OFFCURVE",
"461 107 QCURVE SMOOTH",
"526 107 OFFCURVE",
"664 188 OFFCURVE",
"706 252 QCURVE"
);
}
);
width = 1120;
}
);
unicode =   26;
},
{
glyphname = quotesingle;
layers = (
{
layerId = "84ea52b8-4d94-41b7-b7f8-6e3870ee3aa0";
paths = (
{
closed = 1;
nodes = (
"127 758 LINE",
"90 977 LINE",
"90 1173 LINE",
"254 1173 LINE",
"254 977 LINE",
"216 758 LINE"
);
}
);
width = 350;
}
);
unicode =   27;
},
{
glyphname = parenleft;
layers = (
{
layerId = "84ea52b8-4d94-41b7-b7f8-6e3870ee3aa0";
paths = (
{
closed = 1;
nodes = (
"408 -345 LINE",
"289 -194 OFFCURVE",
"124 209 OFFCURVE",
"124 425 QCURVE SMOOTH",
"124 615 OFFCURVE",
"186 790 QCURVE SMOOTH",
"258 992 OFFCURVE",
"408 1193 QCURVE",
"511 1193 LINE",
"415 1026 OFFCURVE",
"383 955 QCURVE",
"272 701 OFFCURVE",
"272 424 QCURVE SMOOTH",
"272 39 OFFCURVE",
"511 -345 QCURVE"
);
}
);
width = 585;
}
);
unicode =   28;
},
{
glyphname = parenright;
layers = (
{
layerId = "84ea52b8-4d94-41b7-b7f8-6e3870ee3aa0";
paths = (
{
closed = 1;
nodes = (
"124 -345 LINE",
"363 39 OFFCURVE",
"363 424 QCURVE SMOOTH",
"363 704 OFFCURVE",
"253 953 QCURVE SMOOTH",
"222 1025 OFFCURVE",
"124 1193 QCURVE",
"227 1193 LINE",
"378 992 OFFCURVE",
"450 790 QCURVE",
"511 615 OFFCURVE",
"511 425 QCURVE SMOOTH",
"511 209 OFFCURVE",
"346 -194 OFFCURVE",
"227 -345 QCURVE"
);
}
);
width = 585;
}
);
unicode =   29;
},
{
glyphname = asterisk;
layers = (
{
layerId = "84ea52b8-4d94-41b7-b7f8-6e3870ee3aa0";
paths = (
{
closed = 1;
nodes = (
"101 1071 LINE",
"228 1026 OFFCURVE",
"286 994 QCURVE",
"271 1138 OFFCURVE",
"270 1193 QCURVE",
"386 1193 LINE",
"383 1114 OFFCURVE",
"367 994 QCURVE",
"450 1036 OFFCURVE",
"556 1071 QCURVE",
"593 958 LINE",
"491 924 OFFCURVE",
"394 913 QCURVE",
"443 870 OFFCURVE",
"531 762 QCURVE",
"435 694 LINE",
"389 757 OFFCURVE",
"326 866 QCURVE",
"267 753 OFFCURVE",
"222 694 QCURVE",
"127 762 LINE",
"220 876 OFFCURVE",
"260 913 QCURVE",
"157 933 OFFCURVE",
"64 958 QCURVE"
);
}
);
width = 665;
}
);
unicode =   2a;
},
{
glyphname = plus;
layers = (
{
layerId = "84ea52b8-4d94-41b7-b7f8-6e3870ee3aa0";
paths = (
{
closed = 1;
nodes = (
"433 190 LINE",
"433 511 LINE",
"114 511 LINE",
"114 646 LINE",
"433 646 LINE",
"433 965 LINE",
"569 965 LINE",
"569 646 LINE",
"889 646 LINE",
"889 511 LINE",
"569 511 LINE",
"569 190 LINE"
);
}
);
width = 1003;
}
);
unicode =   2b;
},
{
glyphname = comma;
layers = (
{
layerId = "84ea52b8-4d94-41b7-b7f8-6e3870ee3aa0";
paths = (
{
closed = 1;
nodes = (
"180 0 LINE",
"180 164 LINE",
"344 164 LINE",
"344 0 LINE SMOOTH",
"344 -90 OFFCURVE",
"280 -202 OFFCURVE",
"210 -232 QCURVE",
"170 -170 LINE",
"216 -150 OFFCURVE",
"259 -73 OFFCURVE",
"261 0 QCURVE"
);
}
);
width = 526;
}
);
unicode =   2c;
},
{
glyphname = hyphenminus;
layers = (
{
layerId = "84ea52b8-4d94-41b7-b7f8-6e3870ee3aa0";
paths = (
{
closed = 1;
nodes = (
"65 352 LINE",
"65 497 LINE",
"507 497 LINE",
"507 352 LINE"
);
}
);
width = 571;
}
);
unicode =   2d;
},
{
glyphname = period;
layers = (
{
layerId = "84ea52b8-4d94-41b7-b7f8-6e3870ee3aa0";
paths = (
{
closed = 1;
nodes = (
"186 0 LINE",
"186 164 LINE",
"350 164 LINE",
"350 0 LINE"
);
}
);
width = 528;
}
);
unicode =   2e;
},
{
glyphname = slash;
layers = (
{
layerId = "84ea52b8-4d94-41b7-b7f8-6e3870ee3aa0";
paths = (
{
closed = 1;
nodes = (
"0 -20 LINE",
"340 1193 LINE",
"455 1193 LINE",
"116 -20 LINE"
);
}
);
width = 455;
}
);
unicode =   2f;
},
{
glyphname = zero;
layers = (
{
layerId = "84ea52b8-4d94-41b7-b7f8-6e3870ee3aa0";
paths = (
{
closed = 1;
nodes = (
"85 786 OFFCURVE",
"171 1040 OFFCURVE",
"339 1178 OFFCURVE",
"467 1178 QCURVE SMOOTH",
"562 1178 OFFCURVE",
"704 1102 OFFCURVE",
"797 958 OFFCURVE",
"850 753 OFFCURVE",
"850 578 QCURVE SMOOTH",
"850 372 OFFCURVE",
"765 118 OFFCURVE",
"596 -20 OFFCURVE",
"467 -20 QCURVE SMOOTH",
"85 -20 OFFCURVE",
"85 578 QCURVE SMOOTH"
);
},
{
closed = 1;
nodes = (
"233 290 OFFCURVE",
"368 98 OFFCURVE",
"467 98 QCURVE SMOOTH",
"567 98 OFFCURVE",
"702 290 OFFCURVE",
"702 578 QCURVE SMOOTH",
"702 868 OFFCURVE",
"567 1058 OFFCURVE",
"466 1058 QCURVE SMOOTH",
"367 1058 OFFCURVE",
"307 974 QCURVE",
"233 867 OFFCURVE",
"233 578 QCURVE SMOOTH"
);
}
);
width = 948;
}
);
unicode =   30;
},
{
glyphname = one;
layers = (
{
layerId = "84ea52b8-4d94-41b7-b7f8-6e3870ee3aa0";
paths = (
{
closed = 1;
nodes = (
"655 1178 LINE",
"655 0 LINE",
"511 0 LINE",
"511 918 LINE",
"459 868 OFFCURVE",
"291 769 OFFCURVE",
"223 744 QCURVE",
"223 883 LINE",
"344 940 OFFCURVE",
"525 1102 OFFCURVE",
"563 1178 QCURVE"
);
}
);
width = 1031;
}
);
unicode =   31;
},
{
glyphname = two;
layers = (
{
layerId = "84ea52b8-4d94-41b7-b7f8-6e3870ee3aa0";
paths = (
{
closed = 1;
nodes = (
"838 138 LINE",
"838 0 LINE",
"63 0 LINE",
"63 10 LINE SMOOTH",
"63 57 OFFCURVE",
"79 100 QCURVE SMOOTH",
"109 179 OFFCURVE",
"239 333 OFFCURVE",
"363 434 QCURVE SMOOTH",
"554 590 OFFCURVE",
"688 774 OFFCURVE",
"688 855 QCURVE SMOOTH",
"688 941 OFFCURVE",
"566 1058 OFFCURVE",
"467 1058 QCURVE SMOOTH",
"363 1058 OFFCURVE",
"239 934 OFFCURVE",
"238 823 QCURVE",
"90 838 LINE",
"105 1004 OFFCURVE",
"303 1178 OFFCURVE",
"471 1178 QCURVE SMOOTH",
"639 1178 OFFCURVE",
"836 990 OFFCURVE",
"836 852 QCURVE SMOOTH",
"836 782 OFFCURVE",
"779 646 OFFCURVE",
"645 495 OFFCURVE",
"490 364 QCURVE SMOOTH",
"360 255 OFFCURVE",
"287 178 OFFCURVE",
"263 138 QCURVE"
);
}
);
width = 945;
}
);
unicode =   32;
},
{
glyphname = three;
layers = (
{
layerId = "84ea52b8-4d94-41b7-b7f8-6e3870ee3aa0";
paths = (
{
closed = 1;
nodes = (
"230 329 LINE",
"255 206 OFFCURVE",
"374 98 OFFCURVE",
"459 98 QCURVE SMOOTH",
"561 98 OFFCURVE",
"701 239 OFFCURVE",
"701 343 QCURVE SMOOTH",
"701 442 OFFCURVE",
"571 571 OFFCURVE",
"471 571 QCURVE SMOOTH",
"431 571 OFFCURVE",
"370 555 QCURVE",
"386 682 LINE",
"400 680 OFFCURVE",
"409 680 QCURVE SMOOTH",
"501 680 OFFCURVE",
"648 776 OFFCURVE",
"648 876 QCURVE SMOOTH",
"648 955 OFFCURVE",
"541 1059 OFFCURVE",
"456 1059 QCURVE SMOOTH",
"372 1059 OFFCURVE",
"260 954 OFFCURVE",
"244 848 QCURVE",
"100 874 LINE",
"127 1018 OFFCURVE",
"314 1178 OFFCURVE",
"453 1178 QCURVE SMOOTH",
"549 1178 OFFCURVE",
"711 1095 OFFCURVE",
"796 953 OFFCURVE",
"796 873 QCURVE SMOOTH",
"796 797 OFFCURVE",
"715 672 OFFCURVE",
"635 635 QCURVE",
"739 611 OFFCURVE",
"854 460 OFFCURVE",
"854 346 QCURVE SMOOTH",
"854 193 OFFCURVE",
"630 -21 OFFCURVE",
"459 -21 QCURVE SMOOTH",
"304 -21 OFFCURVE",
"100 163 OFFCURVE",
"86 310 QCURVE"
);
}
);
width = 947;
}
);
unicode =   33;
},
{
glyphname = four;
layers = (
{
layerId = "84ea52b8-4d94-41b7-b7f8-6e3870ee3aa0";
paths = (
{
closed = 1;
nodes = (
"535 0 LINE",
"535 281 LINE",
"26 281 LINE",
"26 413 LINE",
"561 1173 LINE",
"679 1173 LINE",
"679 413 LINE",
"837 413 LINE",
"837 281 LINE",
"679 281 LINE",
"679 0 LINE"
);
},
{
closed = 1;
nodes = (
"167 413 LINE",
"535 413 LINE",
"535 942 LINE"
);
}
);
width = 936;
}
);
unicode =   34;
},
{
glyphname = five;
layers = (
{
layerId = "84ea52b8-4d94-41b7-b7f8-6e3870ee3aa0";
paths = (
{
closed = 1;
nodes = (
"236 320 LINE",
"253 210 OFFCURVE",
"375 98 OFFCURVE",
"462 98 QCURVE SMOOTH",
"566 98 OFFCURVE",
"710 255 OFFCURVE",
"710 385 QCURVE SMOOTH",
"710 508 OFFCURVE",
"571 650 OFFCURVE",
"459 650 QCURVE SMOOTH",
"390 650 OFFCURVE",
"278 587 OFFCURVE",
"246 537 QCURVE",
"111 554 LINE",
"224 1157 LINE",
"807 1157 LINE",
"807 1019 LINE",
"339 1019 LINE",
"276 704 LINE",
"382 778 OFFCURVE",
"498 778 QCURVE SMOOTH",
"651 778 OFFCURVE",
"863 565 OFFCURVE",
"863 398 QCURVE SMOOTH",
"863 238 OFFCURVE",
"770 122 QCURVE SMOOTH",
"657 -20 OFFCURVE",
"462 -20 QCURVE SMOOTH",
"302 -20 OFFCURVE",
"99 159 OFFCURVE",
"85 307 QCURVE"
);
}
);
width = 945;
}
);
unicode =   35;
},
{
glyphname = six;
layers = (
{
layerId = "84ea52b8-4d94-41b7-b7f8-6e3870ee3aa0";
paths = (
{
closed = 1;
nodes = (
"687 874 LINE",
"646 1059 OFFCURVE",
"489 1059 QCURVE SMOOTH",
"420 1059 OFFCURVE",
"368 1021 QCURVE SMOOTH",
"300 971 OFFCURVE",
"221 781 OFFCURVE",
"220 605 QCURVE",
"272 684 OFFCURVE",
"422 761 OFFCURVE",
"505 761 QCURVE SMOOTH",
"649 761 OFFCURVE",
"851 549 OFFCURVE",
"851 381 QCURVE SMOOTH",
"851 270 OFFCURVE",
"756 81 OFFCURVE",
"589 -20 OFFCURVE",
"484 -20 QCURVE SMOOTH",
"304 -20 OFFCURVE",
"77 245 OFFCURVE",
"77 549 QCURVE SMOOTH",
"77 889 OFFCURVE",
"202 1043 QCURVE SMOOTH",
"312 1178 OFFCURVE",
"497 1178 QCURVE SMOOTH",
"636 1178 OFFCURVE",
"813 1022 OFFCURVE",
"830 886 QCURVE"
);
},
{
closed = 1;
nodes = (
"242 306 OFFCURVE",
"305 170 OFFCURVE",
"419 98 OFFCURVE",
"481 98 QCURVE SMOOTH",
"573 98 OFFCURVE",
"704 246 OFFCURVE",
"704 372 QCURVE SMOOTH",
"704 494 OFFCURVE",
"574 634 OFFCURVE",
"476 634 QCURVE SMOOTH",
"378 634 OFFCURVE",
"242 494 OFFCURVE",
"242 380 QCURVE SMOOTH"
);
}
);
width = 945;
}
);
unicode =   36;
},
{
glyphname = seven;
layers = (
{
layerId = "84ea52b8-4d94-41b7-b7f8-6e3870ee3aa0";
paths = (
{
closed = 1;
nodes = (
"97 1019 LINE",
"97 1158 LINE",
"856 1158 LINE",
"856 1046 LINE",
"744 926 OFFCURVE",
"524 531 OFFCURVE",
"464 322 QCURVE SMOOTH",
"421 175 OFFCURVE",
"409 0 QCURVE",
"261 0 LINE",
"263 138 OFFCURVE",
"367 530 OFFCURVE",
"561 894 OFFCURVE",
"671 1019 QCURVE"
);
}
);
width = 949;
}
);
unicode =   37;
},
{
glyphname = eight;
layers = (
{
layerId = "84ea52b8-4d94-41b7-b7f8-6e3870ee3aa0";
paths = (
{
closed = 1;
nodes = (
"217 669 OFFCURVE",
"131 790 OFFCURVE",
"131 875 QCURVE SMOOTH",
"131 1003 OFFCURVE",
"315 1178 OFFCURVE",
"467 1178 QCURVE SMOOTH",
"621 1178 OFFCURVE",
"808 999 OFFCURVE",
"808 871 QCURVE SMOOTH",
"808 790 OFFCURVE",
"723 669 OFFCURVE",
"635 636 QCURVE",
"743 601 OFFCURVE",
"856 444 OFFCURVE",
"856 335 QCURVE SMOOTH",
"856 185 OFFCURVE",
"643 -20 OFFCURVE",
"470 -20 QCURVE SMOOTH",
"296 -20 OFFCURVE",
"83 186 OFFCURVE",
"83 339 QCURVE SMOOTH",
"83 454 OFFCURVE",
"199 608 OFFCURVE",
"307 636 QCURVE"
);
},
{
closed = 1;
nodes = (
"278 797 OFFCURVE",
"385 691 OFFCURVE",
"471 691 QCURVE SMOOTH",
"554 691 OFFCURVE",
"660 796 OFFCURVE",
"660 872 QCURVE SMOOTH",
"660 951 OFFCURVE",
"551 1059 OFFCURVE",
"469 1059 QCURVE SMOOTH",
"387 1059 OFFCURVE",
"278 954 OFFCURVE",
"278 880 QCURVE SMOOTH"
);
},
{
closed = 1;
nodes = (
"231 277 OFFCURVE",
"290 162 OFFCURVE",
"405 98 OFFCURVE",
"471 98 QCURVE SMOOTH",
"575 98 OFFCURVE",
"709 231 OFFCURVE",
"709 334 QCURVE SMOOTH",
"709 438 OFFCURVE",
"571 574 OFFCURVE",
"467 574 QCURVE SMOOTH",
"365 574 OFFCURVE",
"231 439 OFFCURVE",
"231 338 QCURVE SMOOTH"
);
}
);
width = 946;
}
);
unicode =   38;
},
{
glyphname = nine;
layers = (
{
layerId = "84ea52b8-4d94-41b7-b7f8-6e3870ee3aa0";
paths = (
{
closed = 1;
nodes = (
"245 284 LINE",
"263 186 OFFCURVE",
"362 98 OFFCURVE",
"439 98 QCURVE SMOOTH",
"506 98 OFFCURVE",
"606 159 OFFCURVE",
"670 261 OFFCURVE",
"713 434 OFFCURVE",
"713 523 QCURVE SMOOTH",
"713 533 OFFCURVE",
"712 552 QCURVE",
"669 483 OFFCURVE",
"519 398 OFFCURVE",
"432 398 QCURVE SMOOTH",
"287 398 OFFCURVE",
"85 609 OFFCURVE",
"85 782 QCURVE SMOOTH",
"85 960 OFFCURVE",
"295 1178 OFFCURVE",
"454 1178 QCURVE SMOOTH",
"568 1178 OFFCURVE",
"758 1054 OFFCURVE",
"856 826 OFFCURVE",
"856 610 QCURVE SMOOTH",
"856 386 OFFCURVE",
"759 119 OFFCURVE",
"566 -20 OFFCURVE",
"436 -20 QCURVE SMOOTH",
"299 -20 OFFCURVE",
"124 133 OFFCURVE",
"107 271 QCURVE"
);
},
{
closed = 1;
nodes = (
"696 913 OFFCURVE",
"564 1058 OFFCURVE",
"471 1058 QCURVE SMOOTH",
"375 1058 OFFCURVE",
"233 902 OFFCURVE",
"233 777 QCURVE SMOOTH",
"233 665 OFFCURVE",
"368 525 OFFCURVE",
"467 525 QCURVE SMOOTH",
"567 525 OFFCURVE",
"696 665 OFFCURVE",
"696 789 QCURVE SMOOTH"
);
}
);
width = 946;
}
);
unicode =   39;
},
{
glyphname = colon.1;
layers = (
{
layerId = "84ea52b8-4d94-41b7-b7f8-6e3870ee3aa0";
paths = (
{
closed = 1;
nodes = (
"185 686 LINE",
"185 850 LINE",
"349 850 LINE",
"349 686 LINE"
);
},
{
closed = 1;
nodes = (
"185 0 LINE",
"185 164 LINE",
"349 164 LINE",
"349 0 LINE"
);
}
);
width = 528;
}
);
},
{
glyphname = semicolon;
layers = (
{
layerId = "84ea52b8-4d94-41b7-b7f8-6e3870ee3aa0";
paths = (
{
closed = 1;
nodes = (
"180 686 LINE",
"180 850 LINE",
"344 850 LINE",
"344 686 LINE"
);
},
{
closed = 1;
nodes = (
"180 0 LINE",
"180 164 LINE",
"344 164 LINE",
"344 0 LINE SMOOTH",
"344 -90 OFFCURVE",
"280 -202 OFFCURVE",
"210 -232 QCURVE",
"170 -170 LINE",
"216 -150 OFFCURVE",
"259 -73 OFFCURVE",
"261 0 QCURVE"
);
}
);
width = 526;
}
);
unicode =   3b;
},
{
glyphname = less;
layers = (
{
layerId = "84ea52b8-4d94-41b7-b7f8-6e3870ee3aa0";
paths = (
{
closed = 1;
nodes = (
"888 181 LINE",
"112 513 LINE",
"112 647 LINE",
"888 975 LINE",
"888 832 LINE",
"272 579 LINE",
"888 324 LINE"
);
}
);
width = 1003;
}
);
unicode =   3c;
},
{
glyphname = equal;
layers = (
{
layerId = "84ea52b8-4d94-41b7-b7f8-6e3870ee3aa0";
paths = (
{
closed = 1;
nodes = (
"889 690 LINE",
"114 690 LINE",
"114 824 LINE",
"889 824 LINE"
);
},
{
closed = 1;
nodes = (
"889 334 LINE",
"114 334 LINE",
"114 468 LINE",
"889 468 LINE"
);
}
);
width = 1003;
}
);
unicode =   3d;
},
{
glyphname = greater;
layers = (
{
layerId = "84ea52b8-4d94-41b7-b7f8-6e3870ee3aa0";
paths = (
{
closed = 1;
nodes = (
"112 975 LINE",
"888 647 LINE",
"888 513 LINE",
"112 181 LINE",
"112 324 LINE",
"727 579 LINE",
"112 832 LINE"
);
}
);
width = 1003;
}
);
unicode =   3e;
},
{
glyphname = question;
layers = (
{
layerId = "84ea52b8-4d94-41b7-b7f8-6e3870ee3aa0";
paths = (
{
closed = 1;
nodes = (
"600 511 OFFCURVE",
"556 452 OFFCURVE",
"536 375 OFFCURVE",
"534 289 QCURVE",
"396 289 LINE",
"395 318 OFFCURVE",
"395 332 QCURVE SMOOTH",
"395 417 OFFCURVE",
"419 478 QCURVE",
"436 525 OFFCURVE",
"476 572 QCURVE SMOOTH",
"504 606 OFFCURVE",
"654 738 OFFCURVE",
"699 817 OFFCURVE",
"699 863 QCURVE SMOOTH",
"699 947 OFFCURVE",
"568 1074 OFFCURVE",
"472 1074 QCURVE SMOOTH",
"380 1074 OFFCURVE",
"257 959 OFFCURVE",
"238 837 QCURVE",
"90 854 LINE",
"110 1018 OFFCURVE",
"308 1193 OFFCURVE",
"470 1193 QCURVE SMOOTH",
"642 1193 OFFCURVE",
"847 1006 OFFCURVE",
"847 873 QCURVE SMOOTH",
"847 796 OFFCURVE",
"775 666 OFFCURVE",
"670 574 QCURVE"
);
},
{
closed = 1;
nodes = (
"387 0 LINE",
"387 164 LINE",
"551 164 LINE",
"551 0 LINE"
);
}
);
width = 950;
}
);
unicode =   3f;
},
{
glyphname = at;
layers = (
{
layerId = "84ea52b8-4d94-41b7-b7f8-6e3870ee3aa0";
paths = (
{
closed = 1;
nodes = (
"899 70 OFFCURVE",
"770 -2 OFFCURVE",
"705 -2 QCURVE SMOOTH",
"634 -2 OFFCURVE",
"500 81 OFFCURVE",
"416 254 OFFCURVE",
"416 357 QCURVE SMOOTH",
"416 484 OFFCURVE",
"546 739 OFFCURVE",
"740 867 OFFCURVE",
"831 867 QCURVE SMOOTH",
"900 867 OFFCURVE",
"1027 794 OFFCURVE",
"1072 720 QCURVE",
"1100 844 LINE",
"1243 844 LINE",
"1104 195 OFFCURVE",
"1104 183 QCURVE SMOOTH",
"1104 162 OFFCURVE",
"1136 130 OFFCURVE",
"1160 130 QCURVE SMOOTH",
"1202 130 OFFCURVE",
"1271 179 QCURVE SMOOTH",
"1362 243 OFFCURVE",
"1468 458 OFFCURVE",
"1468 573 QCURVE SMOOTH",
"1468 706 OFFCURVE",
"1332 938 OFFCURVE",
"1060 1078 OFFCURVE",
"896 1078 QCURVE SMOOTH",
"709 1078 OFFCURVE",
"400 902 OFFCURVE",
"229 575 OFFCURVE",
"229 388 QCURVE SMOOTH",
"229 192 OFFCURVE",
"400 -91 OFFCURVE",
"722 -226 OFFCURVE",
"918 -226 QCURVE SMOOTH",
"1128 -226 OFFCURVE",
"1411 -86 OFFCURVE",
"1481 15 QCURVE",
"1626 15 LINE",
"1585 -69 OFFCURVE",
"1387 -243 OFFCURVE",
"1113 -345 OFFCURVE",
"920 -345 QCURVE SMOOTH",
"743 -345 OFFCURVE",
"443 -254 OFFCURVE",
"232 -70 OFFCURVE",
"178 49 QCURVE SMOOTH",
"111 200 OFFCURVE",
"111 375 QCURVE SMOOTH",
"111 570 OFFCURVE",
"191 747 QCURVE SMOOTH",
"288 964 OFFCURVE",
"648 1194 OFFCURVE",
"904 1194 QCURVE SMOOTH",
"1102 1194 OFFCURVE",
"1418 1032 OFFCURVE",
"1509 871 QCURVE SMOOTH",
"1587 733 OFFCURVE",
"1587 570 QCURVE SMOOTH",
"1587 338 OFFCURVE",
"1424 158 QCURVE SMOOTH",
"1278 -3 OFFCURVE",
"1105 -3 QCURVE SMOOTH",
"1050 -3 OFFCURVE",
"982 30 OFFCURVE",
"966 62 QCURVE SMOOTH",
"956 82 OFFCURVE",
"951 130 QCURVE"
);
},
{
closed = 1;
nodes = (
"564 238 OFFCURVE",
"668 116 OFFCURVE",
"735 116 QCURVE SMOOTH",
"780 116 OFFCURVE",
"879 170 OFFCURVE",
"969 275 OFFCURVE",
"1027 438 OFFCURVE",
"1027 519 QCURVE SMOOTH",
"1027 628 OFFCURVE",
"919 748 OFFCURVE",
"841 748 QCURVE SMOOTH",
"790 748 OFFCURVE",
"700 696 OFFCURVE",
"615 581 OFFCURVE",
"564 416 OFFCURVE",
"564 347 QCURVE SMOOTH"
);
}
);
width = 1700;
}
);
unicode =   40;
},
{
glyphname = A;
layers = (
{
layerId = "84ea52b8-4d94-41b7-b7f8-6e3870ee3aa0";
paths = (
{
closed = 1;
nodes = (
"-3 0 LINE",
"447 1173 LINE",
"614 1173 LINE",
"1094 0 LINE",
"917 0 LINE",
"781 355 LINE",
"290 355 LINE",
"161 0 LINE"
);
},
{
closed = 1;
nodes = (
"335 482 LINE",
"733 482 LINE",
"610 806 LINE SMOOTH",
"554 954 OFFCURVE",
"527 1050 QCURVE",
"505 937 OFFCURVE",
"464 826 QCURVE SMOOTH"
);
}
);
width = 1091;
}
);
unicode =   41;
},
{
glyphname = B;
layers = (
{
layerId = "84ea52b8-4d94-41b7-b7f8-6e3870ee3aa0";
paths = (
{
closed = 1;
nodes = (
"150 0 LINE",
"150 1173 LINE",
"590 1173 LINE SMOOTH",
"724 1173 OFFCURVE",
"887 1102 OFFCURVE",
"979 954 OFFCURVE",
"979 873 QCURVE SMOOTH",
"979 798 OFFCURVE",
"897 665 OFFCURVE",
"815 624 QCURVE",
"921 593 OFFCURVE",
"1036 442 OFFCURVE",
"1036 340 QCURVE SMOOTH",
"1036 258 OFFCURVE",
"966 116 OFFCURVE",
"864 39 OFFCURVE",
"709 0 OFFCURVE",
"597 0 QCURVE SMOOTH"
);
},
{
closed = 1;
nodes = (
"826 913 OFFCURVE",
"770 1002 OFFCURVE",
"666 1034 OFFCURVE",
"540 1034 QCURVE SMOOTH",
"305 1034 LINE",
"305 680 LINE",
"559 680 LINE SMOOTH",
"662 680 OFFCURVE",
"707 694 QCURVE SMOOTH",
"766 711 OFFCURVE",
"826 793 OFFCURVE",
"826 854 QCURVE SMOOTH"
);
},
{
closed = 1;
nodes = (
"875 406 OFFCURVE",
"808 502 OFFCURVE",
"688 542 OFFCURVE",
"576 542 QCURVE SMOOTH",
"305 542 LINE",
"305 138 LINE",
"597 138 LINE SMOOTH",
"672 138 OFFCURVE",
"703 144 QCURVE SMOOTH",
"756 154 OFFCURVE",
"828 198 OFFCURVE",
"875 284 OFFCURVE",
"875 340 QCURVE SMOOTH"
);
}
);
width = 1145;
}
);
unicode =   42;
},
{
glyphname = C;
layers = (
{
layerId = "84ea52b8-4d94-41b7-b7f8-6e3870ee3aa0";
paths = (
{
closed = 1;
nodes = (
"1138 372 LINE",
"1090 181 OFFCURVE",
"836 -20 OFFCURVE",
"653 -20 QCURVE SMOOTH",
"463 -20 OFFCURVE",
"226 134 OFFCURVE",
"102 427 OFFCURVE",
"102 595 QCURVE SMOOTH",
"102 778 OFFCURVE",
"242 1051 OFFCURVE",
"500 1193 OFFCURVE",
"655 1193 QCURVE SMOOTH",
"831 1193 OFFCURVE",
"1071 1014 OFFCURVE",
"1118 851 QCURVE",
"966 815 LINE",
"925 943 OFFCURVE",
"770 1060 OFFCURVE",
"652 1060 QCURVE SMOOTH",
"517 1060 OFFCURVE",
"335 930 OFFCURVE",
"262 712 OFFCURVE",
"262 596 QCURVE SMOOTH",
"262 446 OFFCURVE",
"349 223 OFFCURVE",
"533 113 OFFCURVE",
"640 113 QCURVE SMOOTH",
"770 113 OFFCURVE",
"951 263 OFFCURVE",
"983 411 QCURVE"
);
}
);
width = 1219;
}
);
unicode =   43;
},
{
glyphname = D;
layers = (
{
layerId = "84ea52b8-4d94-41b7-b7f8-6e3870ee3aa0";
paths = (
{
closed = 1;
nodes = (
"1128 459 OFFCURVE",
"1066 253 OFFCURVE",
"968 118 OFFCURVE",
"852 40 OFFCURVE",
"688 0 OFFCURVE",
"582 0 QCURVE SMOOTH",
"158 0 LINE",
"158 1173 LINE",
"562 1173 LINE SMOOTH",
"699 1173 OFFCURVE",
"771 1156 QCURVE SMOOTH",
"872 1133 OFFCURVE",
"943 1072 QCURVE SMOOTH",
"1036 994 OFFCURVE",
"1128 750 OFFCURVE",
"1128 593 QCURVE SMOOTH"
);
},
{
closed = 1;
nodes = (
"698 1034 OFFCURVE",
"560 1034 QCURVE SMOOTH",
"314 1034 LINE",
"314 138 LINE",
"564 138 LINE SMOOTH",
"680 138 OFFCURVE",
"812 182 OFFCURVE",
"851 221 QCURVE SMOOTH",
"906 276 OFFCURVE",
"968 462 OFFCURVE",
"968 595 QCURVE SMOOTH",
"968 779 OFFCURVE",
"847 977 OFFCURVE",
"761 1010 QCURVE SMOOTH"
);
}
);
width = 1237;
}
);
unicode =   44;
},
{
glyphname = E;
layers = (
{
layerId = "84ea52b8-4d94-41b7-b7f8-6e3870ee3aa0";
paths = (
{
closed = 1;
nodes = (
"162 0 LINE",
"162 1173 LINE",
"1010 1173 LINE",
"1010 1034 LINE",
"317 1034 LINE",
"317 675 LINE",
"966 675 LINE",
"966 538 LINE",
"317 538 LINE",
"317 138 LINE",
"1037 138 LINE",
"1037 0 LINE"
);
}
);
width = 1147;
}
);
unicode =   45;
},
{
glyphname = F;
layers = (
{
layerId = "84ea52b8-4d94-41b7-b7f8-6e3870ee3aa0";
paths = (
{
closed = 1;
nodes = (
"168 0 LINE",
"168 1173 LINE",
"960 1173 LINE",
"960 1034 LINE",
"324 1034 LINE",
"324 671 LINE",
"874 671 LINE",
"874 533 LINE",
"324 533 LINE",
"324 0 LINE"
);
}
);
width = 1054;
}
);
unicode =   46;
},
{
glyphname = G;
layers = (
{
layerId = "84ea52b8-4d94-41b7-b7f8-6e3870ee3aa0";
paths = (
{
closed = 1;
nodes = (
"1042 460 LINE",
"697 460 LINE",
"697 598 LINE",
"1194 598 LINE",
"1194 163 LINE",
"1080 72 OFFCURVE",
"836 -20 OFFCURVE",
"708 -20 QCURVE SMOOTH",
"536 -20 OFFCURVE",
"253 128 OFFCURVE",
"109 408 OFFCURVE",
"109 581 QCURVE SMOOTH",
"109 752 OFFCURVE",
"252 1049 OFFCURVE",
"521 1193 OFFCURVE",
"696 1193 QCURVE SMOOTH",
"824 1193 OFFCURVE",
"1029 1110 OFFCURVE",
"1146 963 OFFCURVE",
"1176 845 QCURVE",
"1036 806 LINE",
"1010 896 OFFCURVE",
"932 998 OFFCURVE",
"786 1060 OFFCURVE",
"697 1060 QCURVE SMOOTH",
"591 1060 OFFCURVE",
"436 995 OFFCURVE",
"340 890 OFFCURVE",
"314 826 QCURVE SMOOTH",
"269 718 OFFCURVE",
"269 590 QCURVE SMOOTH",
"269 434 OFFCURVE",
"377 222 OFFCURVE",
"584 120 OFFCURVE",
"700 120 QCURVE SMOOTH",
"800 120 OFFCURVE",
"992 198 OFFCURVE",
"1042 242 QCURVE"
);
}
);
width = 1322;
}
);
unicode =   47;
},
{
glyphname = H;
layers = (
{
layerId = "84ea52b8-4d94-41b7-b7f8-6e3870ee3aa0";
paths = (
{
closed = 1;
nodes = (
"164 0 LINE",
"164 1173 LINE",
"319 1173 LINE",
"319 691 LINE",
"929 691 LINE",
"929 1173 LINE",
"1084 1173 LINE",
"1084 0 LINE",
"929 0 LINE",
"929 553 LINE",
"319 553 LINE",
"319 0 LINE"
);
}
);
width = 1249;
}
);
unicode =   48;
},
{
glyphname = I;
layers = (
{
layerId = "84ea52b8-4d94-41b7-b7f8-6e3870ee3aa0";
paths = (
{
closed = 1;
nodes = (
"191 0 LINE",
"191 1173 LINE",
"346 1173 LINE",
"346 0 LINE"
);
}
);
width = 530;
}
);
unicode =   49;
},
{
glyphname = J;
layers = (
{
layerId = "84ea52b8-4d94-41b7-b7f8-6e3870ee3aa0";
paths = (
{
closed = 1;
nodes = (
"59 333 LINE",
"199 352 LINE",
"205 218 OFFCURVE",
"294 118 OFFCURVE",
"374 118 QCURVE SMOOTH",
"432 118 OFFCURVE",
"517 172 OFFCURVE",
"549 264 OFFCURVE",
"549 365 QCURVE SMOOTH",
"549 1173 LINE",
"704 1173 LINE",
"704 374 LINE SMOOTH",
"704 226 OFFCURVE",
"633 65 OFFCURVE",
"478 -20 OFFCURVE",
"374 -20 QCURVE SMOOTH",
"220 -20 OFFCURVE",
"138 69 QCURVE SMOOTH",
"59 155 OFFCURVE",
"59 321 QCURVE SMOOTH"
);
}
);
width = 862;
}
);
unicode =   4a;
},
{
glyphname = K;
layers = (
{
layerId = "84ea52b8-4d94-41b7-b7f8-6e3870ee3aa0";
paths = (
{
closed = 1;
nodes = (
"497 594 LINE",
"305 406 LINE",
"305 0 LINE",
"150 0 LINE",
"150 1173 LINE",
"305 1173 LINE",
"305 591 LINE",
"888 1173 LINE",
"1098 1173 LINE",
"606 698 LINE",
"1120 0 LINE",
"915 0 LINE"
);
}
);
width = 1124;
}
);
unicode =   4b;
},
{
glyphname = L;
layers = (
{
layerId = "84ea52b8-4d94-41b7-b7f8-6e3870ee3aa0";
paths = (
{
closed = 1;
nodes = (
"150 0 LINE",
"150 1173 LINE",
"305 1173 LINE",
"305 138 LINE",
"883 138 LINE",
"883 0 LINE"
);
}
);
width = 956;
}
);
unicode =   4c;
},
{
glyphname = M;
layers = (
{
layerId = "84ea52b8-4d94-41b7-b7f8-6e3870ee3aa0";
paths = (
{
closed = 1;
nodes = (
"301 998 LINE",
"301 0 LINE",
"152 0 LINE",
"152 1173 LINE",
"385 1173 LINE",
"687 269 OFFCURVE",
"719 169 QCURVE",
"746 255 OFFCURVE",
"1062 1173 QCURVE",
"1271 1173 LINE",
"1271 0 LINE",
"1121 0 LINE",
"1121 982 LINE",
"780 0 LINE",
"640 0 LINE"
);
}
);
width = 1426;
}
);
unicode =   4d;
},
{
glyphname = N;
layers = (
{
layerId = "84ea52b8-4d94-41b7-b7f8-6e3870ee3aa0";
paths = (
{
closed = 1;
nodes = (
"305 922 LINE",
"305 0 LINE",
"156 0 LINE",
"156 1173 LINE",
"315 1173 LINE",
"931 252 LINE",
"931 1173 LINE",
"1080 1173 LINE",
"1080 0 LINE",
"921 0 LINE"
);
}
);
width = 1248;
}
);
unicode =   4e;
},
{
glyphname = O;
layers = (
{
layerId = "84ea52b8-4d94-41b7-b7f8-6e3870ee3aa0";
paths = (
{
closed = 1;
nodes = (
"99 863 OFFCURVE",
"413 1194 OFFCURVE",
"661 1194 QCURVE SMOOTH",
"823 1194 OFFCURVE",
"1084 1038 OFFCURVE",
"1221 761 OFFCURVE",
"1221 585 QCURVE SMOOTH",
"1221 406 OFFCURVE",
"1077 125 OFFCURVE",
"813 -20 OFFCURVE",
"660 -20 QCURVE SMOOTH",
"494 -20 OFFCURVE",
"234 140 OFFCURVE",
"99 417 OFFCURVE",
"99 571 QCURVE SMOOTH"
);
},
{
closed = 1;
nodes = (
"259 357 OFFCURVE",
"487 113 OFFCURVE",
"659 113 QCURVE SMOOTH",
"834 113 OFFCURVE",
"1061 359 OFFCURVE",
"1061 586 QCURVE SMOOTH",
"1061 729 OFFCURVE",
"964 942 OFFCURVE",
"778 1060 OFFCURVE",
"662 1060 QCURVE SMOOTH",
"497 1060 OFFCURVE",
"259 834 OFFCURVE",
"259 569 QCURVE SMOOTH"
);
}
);
width = 1313;
}
);
unicode =   4f;
},
{
glyphname = P;
layers = (
{
layerId = "84ea52b8-4d94-41b7-b7f8-6e3870ee3aa0";
paths = (
{
closed = 1;
nodes = (
"314 477 LINE",
"314 0 LINE",
"158 0 LINE",
"158 1173 LINE",
"601 1173 LINE SMOOTH",
"718 1173 OFFCURVE",
"779 1162 QCURVE SMOOTH",
"866 1147 OFFCURVE",
"982 1066 OFFCURVE",
"1054 921 OFFCURVE",
"1054 834 QCURVE SMOOTH",
"1054 684 OFFCURVE",
"863 477 OFFCURVE",
"614 477 QCURVE SMOOTH"
);
},
{
closed = 1;
nodes = (
"719 1034 OFFCURVE",
"614 1034 QCURVE SMOOTH",
"314 1034 LINE",
"314 615 LINE",
"617 615 LINE SMOOTH",
"767 615 OFFCURVE",
"894 727 OFFCURVE",
"894 829 QCURVE SMOOTH",
"894 902 OFFCURVE",
"819 1007 OFFCURVE",
"758 1024 QCURVE SMOOTH"
);
}
);
width = 1143;
}
);
unicode =   50;
},
{
glyphname = Q;
layers = (
{
layerId = "84ea52b8-4d94-41b7-b7f8-6e3870ee3aa0";
paths = (
{
closed = 1;
nodes = (
"1141 51 OFFCURVE",
"1232 17 QCURVE",
"1187 -91 LINE",
"1060 -46 OFFCURVE",
"935 53 QCURVE",
"804 -20 OFFCURVE",
"647 -20 QCURVE SMOOTH",
"488 -20 OFFCURVE",
"228 134 OFFCURVE",
"88 412 OFFCURVE",
"88 586 QCURVE SMOOTH",
"88 760 OFFCURVE",
"229 1045 OFFCURVE",
"489 1194 OFFCURVE",
"650 1194 QCURVE SMOOTH",
"812 1194 OFFCURVE",
"1073 1039 OFFCURVE",
"1210 762 OFFCURVE",
"1210 587 QCURVE SMOOTH",
"1210 442 OFFCURVE",
"1122 211 OFFCURVE",
"1033 126 QCURVE"
);
},
{
closed = 1;
nodes = (
"692 324 LINE",
"826 286 OFFCURVE",
"913 212 QCURVE",
"1050 337 OFFCURVE",
"1050 587 QCURVE SMOOTH",
"1050 730 OFFCURVE",
"953 942 OFFCURVE",
"767 1060 OFFCURVE",
"651 1060 QCURVE SMOOTH",
"477 1060 OFFCURVE",
"248 822 OFFCURVE",
"248 586 QCURVE SMOOTH",
"248 358 OFFCURVE",
"475 113 OFFCURVE",
"651 113 QCURVE SMOOTH",
"734 113 OFFCURVE",
"808 144 QCURVE",
"735 191 OFFCURVE",
"654 211 QCURVE"
);
}
);
width = 1307;
}
);
unicode =   51;
},
{
glyphname = R;
layers = (
{
layerId = "84ea52b8-4d94-41b7-b7f8-6e3870ee3aa0";
paths = (
{
closed = 1;
nodes = (
"1194 0 LINE",
"999 0 LINE",
"844 244 LINE SMOOTH",
"776 350 OFFCURVE",
"688 462 OFFCURVE",
"618 506 OFFCURVE",
"582 515 QCURVE SMOOTH",
"556 521 OFFCURVE",
"496 521 QCURVE SMOOTH",
"316 521 LINE",
"316 0 LINE",
"161 0 LINE",
"161 1173 LINE",
"681 1173 LINE SMOOTH",
"838 1173 OFFCURVE",
"1001 1110 OFFCURVE",
"1098 950 OFFCURVE",
"1098 853 QCURVE SMOOTH",
"1098 728 OFFCURVE",
"937 557 OFFCURVE",
"768 534 QCURVE",
"830 504 OFFCURVE",
"862 475 QCURVE SMOOTH",
"930 413 OFFCURVE",
"990 319 QCURVE SMOOTH"
);
},
{
closed = 1;
nodes = (
"316 1043 LINE",
"316 655 LINE",
"650 655 LINE SMOOTH",
"756 655 OFFCURVE",
"876 699 OFFCURVE",
"938 796 OFFCURVE",
"938 853 QCURVE SMOOTH",
"938 936 OFFCURVE",
"818 1043 OFFCURVE",
"687 1043 QCURVE SMOOTH"
);
}
);
width = 1220;
}
);
unicode =   52;
},
{
glyphname = S;
layers = (
{
layerId = "84ea52b8-4d94-41b7-b7f8-6e3870ee3aa0";
paths = (
{
closed = 1;
nodes = (
"238 390 LINE",
"248 302 OFFCURVE",
"324 189 OFFCURVE",
"484 119 OFFCURVE",
"584 119 QCURVE SMOOTH",
"673 119 OFFCURVE",
"809 172 OFFCURVE",
"876 264 OFFCURVE",
"876 318 QCURVE SMOOTH",
"876 374 OFFCURVE",
"812 456 OFFCURVE",
"738 484 QCURVE SMOOTH",
"691 502 OFFCURVE",
"368 580 OFFCURVE",
"303 614 QCURVE SMOOTH",
"219 658 OFFCURVE",
"136 789 OFFCURVE",
"136 870 QCURVE SMOOTH",
"136 958 OFFCURVE",
"237 1113 OFFCURVE",
"431 1193 OFFCURVE",
"549 1193 QCURVE SMOOTH",
"680 1193 OFFCURVE",
"879 1109 OFFCURVE",
"986 946 OFFCURVE",
"990 842 QCURVE",
"841 831 LINE",
"829 942 OFFCURVE",
"691 1056 OFFCURVE",
"556 1056 QCURVE SMOOTH",
"415 1056 OFFCURVE",
"286 953 OFFCURVE",
"286 880 QCURVE SMOOTH",
"286 817 OFFCURVE",
"376 735 OFFCURVE",
"755 650 OFFCURVE",
"825 618 QCURVE SMOOTH",
"928 570 OFFCURVE",
"1025 426 OFFCURVE",
"1025 331 QCURVE SMOOTH",
"1025 238 OFFCURVE",
"918 72 OFFCURVE",
"717 -20 OFFCURVE",
"592 -20 QCURVE SMOOTH",
"432 -20 OFFCURVE",
"217 73 OFFCURVE",
"95 259 OFFCURVE",
"92 377 QCURVE"
);
}
);
width = 1132;
}
);
unicode =   53;
},
{
glyphname = T;
layers = (
{
layerId = "84ea52b8-4d94-41b7-b7f8-6e3870ee3aa0";
paths = (
{
closed = 1;
nodes = (
"435 0 LINE",
"435 1034 LINE",
"48 1034 LINE",
"48 1173 LINE",
"978 1173 LINE",
"978 1034 LINE",
"590 1034 LINE",
"590 0 LINE"
);
}
);
width = 1019;
}
);
unicode =   54;
},
{
glyphname = U;
layers = (
{
layerId = "84ea52b8-4d94-41b7-b7f8-6e3870ee3aa0";
paths = (
{
closed = 1;
nodes = (
"928 1173 LINE",
"1083 1173 LINE",
"1083 495 LINE SMOOTH",
"1083 318 OFFCURVE",
"1003 110 OFFCURVE",
"794 -20 OFFCURVE",
"625 -20 QCURVE SMOOTH",
"460 -20 OFFCURVE",
"250 94 OFFCURVE",
"161 309 OFFCURVE",
"161 495 QCURVE SMOOTH",
"161 1173 LINE",
"316 1173 LINE",
"316 496 LINE SMOOTH",
"316 343 OFFCURVE",
"373 198 OFFCURVE",
"511 120 OFFCURVE",
"611 120 QCURVE SMOOTH",
"782 120 OFFCURVE",
"928 275 OFFCURVE",
"928 496 QCURVE SMOOTH"
);
}
);
width = 1248;
}
);
unicode =   55;
},
{
glyphname = V;
layers = (
{
layerId = "84ea52b8-4d94-41b7-b7f8-6e3870ee3aa0";
paths = (
{
closed = 1;
nodes = (
"1082 1173 LINE",
"623 0 LINE",
"464 0 LINE",
"9 1173 LINE",
"177 1173 LINE",
"482 321 LINE SMOOTH",
"519 218 OFFCURVE",
"544 129 QCURVE",
"571 225 OFFCURVE",
"607 321 QCURVE SMOOTH",
"924 1173 LINE"
);
}
);
width = 1098;
}
);
unicode =   56;
},
{
glyphname = W;
layers = (
{
layerId = "84ea52b8-4d94-41b7-b7f8-6e3870ee3aa0";
paths = (
{
closed = 1;
nodes = (
"762 961 OFFCURVE",
"495 0 QCURVE",
"336 0 LINE",
"25 1173 LINE",
"184 1173 LINE",
"363 404 LINE SMOOTH",
"391 283 OFFCURVE",
"412 164 QCURVE",
"457 352 OFFCURVE",
"465 381 QCURVE SMOOTH",
"688 1173 LINE",
"875 1173 LINE",
"1043 579 LINE",
"1107 358 OFFCURVE",
"1135 164 QCURVE",
"1157 275 OFFCURVE",
"1193 419 QCURVE",
"1377 1173 LINE",
"1533 1173 LINE",
"1211 0 LINE",
"1062 0 LINE",
"780 1020 OFFCURVE",
"778 1031 QCURVE"
);
}
);
width = 1556;
}
);
unicode =   57;
},
{
glyphname = X;
layers = (
{
layerId = "84ea52b8-4d94-41b7-b7f8-6e3870ee3aa0";
paths = (
{
closed = 1;
nodes = (
"9 0 LINE",
"463 611 LINE",
"63 1173 LINE",
"248 1173 LINE",
"460 872 LINE SMOOTH",
"527 778 OFFCURVE",
"555 728 QCURVE",
"594 792 OFFCURVE",
"648 862 QCURVE SMOOTH",
"884 1173 LINE",
"1052 1173 LINE",
"640 620 LINE",
"1084 0 LINE",
"892 0 LINE",
"574 450 OFFCURVE",
"546 497 QCURVE",
"507 433 OFFCURVE",
"490 409 QCURVE SMOOTH",
"196 0 LINE"
);
}
);
width = 1097;
}
);
unicode =   58;
},
{
glyphname = Y;
layers = (
{
layerId = "84ea52b8-4d94-41b7-b7f8-6e3870ee3aa0";
paths = (
{
closed = 1;
nodes = (
"1081 1173 LINE",
"613 497 LINE",
"613 0 LINE",
"458 0 LINE",
"458 497 LINE",
"6 1173 LINE",
"195 1173 LINE",
"426 819 LINE SMOOTH",
"490 720 OFFCURVE",
"545 621 QCURVE",
"598 713 OFFCURVE",
"673 828 QCURVE SMOOTH",
"900 1173 LINE"
);
}
);
width = 1097;
}
);
unicode =   59;
},
{
glyphname = Z;
layers = (
{
layerId = "84ea52b8-4d94-41b7-b7f8-6e3870ee3aa0";
paths = (
{
closed = 1;
nodes = (
"219 138 LINE",
"968 138 LINE",
"968 0 LINE",
"41 0 LINE",
"41 144 LINE",
"642 895 LINE SMOOTH",
"706 975 OFFCURVE",
"763 1034 QCURVE",
"109 1034 LINE",
"109 1173 LINE",
"949 1173 LINE",
"949 1034 LINE",
"290 221 LINE"
);
}
);
width = 1019;
}
);
unicode =   5a;
},
{
glyphname = bracketleft;
layers = (
{
layerId = "84ea52b8-4d94-41b7-b7f8-6e3870ee3aa0";
paths = (
{
closed = 1;
nodes = (
"139 -326 LINE",
"139 1173 LINE",
"457 1173 LINE",
"457 1054 LINE",
"283 1054 LINE",
"283 -206 LINE",
"457 -206 LINE",
"457 -326 LINE"
);
}
);
width = 490;
}
);
unicode =   5b;
},
{
glyphname = backslash;
layers = (
{
layerId = "84ea52b8-4d94-41b7-b7f8-6e3870ee3aa0";
paths = (
{
closed = 1;
nodes = (
"455 -20 LINE",
"340 -20 LINE",
"0 1193 LINE",
"116 1193 LINE"
);
}
);
width = 455;
}
);
unicode =   5c;
},
{
glyphname = bracketright;
layers = (
{
layerId = "84ea52b8-4d94-41b7-b7f8-6e3870ee3aa0";
paths = (
{
closed = 1;
nodes = (
"357 -326 LINE",
"39 -326 LINE",
"39 -206 LINE",
"213 -206 LINE",
"213 1054 LINE",
"39 1054 LINE",
"39 1173 LINE",
"357 1173 LINE"
);
}
);
width = 490;
}
);
unicode =   5d;
},
{
glyphname = asciicircum;
layers = (
{
layerId = "84ea52b8-4d94-41b7-b7f8-6e3870ee3aa0";
paths = (
{
closed = 1;
nodes = (
"394 1030 LINE",
"202 552 LINE",
"54 552 LINE",
"337 1193 LINE",
"453 1193 LINE",
"737 552 LINE",
"592 552 LINE"
);
}
);
width = 791;
}
);
unicode =   5e;
},
{
glyphname = underscore;
layers = (
{
layerId = "84ea52b8-4d94-41b7-b7f8-6e3870ee3aa0";
paths = (
{
closed = 1;
nodes = (
"-31 -326 LINE",
"-31 -222 LINE",
"924 -222 LINE",
"924 -326 LINE"
);
}
);
width = 901;
}
);
unicode =   5f;
},
{
glyphname = grave;
layers = (
{
layerId = "84ea52b8-4d94-41b7-b7f8-6e3870ee3aa0";
paths = (
{
closed = 1;
nodes = (
"390 955 LINE",
"274 955 LINE",
"89 1179 LINE",
"282 1179 LINE"
);
}
);
width = 607;
}
);
unicode =   60;
},
{
glyphname = a;
layers = (
{
layerId = "84ea52b8-4d94-41b7-b7f8-6e3870ee3aa0";
paths = (
{
closed = 1;
nodes = (
"597 37 OFFCURVE",
"449 -19 OFFCURVE",
"365 -19 QCURVE SMOOTH",
"225 -19 OFFCURVE",
"74 118 OFFCURVE",
"74 224 QCURVE SMOOTH",
"74 286 OFFCURVE",
"131 390 OFFCURVE",
"223 452 OFFCURVE",
"281 468 QCURVE SMOOTH",
"323 479 OFFCURVE",
"409 490 QCURVE",
"583 510 OFFCURVE",
"665 539 QCURVE",
"666 577 LINE",
"666 665 OFFCURVE",
"625 701 QCURVE SMOOTH",
"570 750 OFFCURVE",
"461 750 QCURVE SMOOTH",
"360 750 OFFCURVE",
"263 678 OFFCURVE",
"240 588 QCURVE",
"99 607 LINE",
"118 698 OFFCURVE",
"206 809 OFFCURVE",
"373 869 OFFCURVE",
"482 869 QCURVE SMOOTH",
"591 869 OFFCURVE",
"727 818 OFFCURVE",
"791 740 OFFCURVE",
"804 681 QCURVE",
"811 644 OFFCURVE",
"811 548 QCURVE SMOOTH",
"811 356 LINE SMOOTH",
"811 155 OFFCURVE",
"829 49 OFFCURVE",
"857 0 QCURVE",
"706 0 LINE",
"684 45 OFFCURVE",
"677 105 QCURVE"
);
},
{
closed = 1;
nodes = (
"665 426 LINE",
"587 394 OFFCURVE",
"430 372 QCURVE SMOOTH",
"341 359 OFFCURVE",
"268 327 OFFCURVE",
"228 266 OFFCURVE",
"228 228 QCURVE SMOOTH",
"228 170 OFFCURVE",
"315 94 OFFCURVE",
"399 94 QCURVE SMOOTH",
"482 94 OFFCURVE",
"612 166 OFFCURVE",
"642 230 QCURVE SMOOTH",
"665 278 OFFCURVE",
"665 374 QCURVE SMOOTH"
);
}
);
width = 944;
}
);
unicode =   61;
},
{
glyphname = b;
layers = (
{
layerId = "84ea52b8-4d94-41b7-b7f8-6e3870ee3aa0";
paths = (
{
closed = 1;
nodes = (
"268 0 LINE",
"134 0 LINE",
"134 1173 LINE",
"278 1173 LINE",
"278 754 LINE",
"369 869 OFFCURVE",
"511 869 QCURVE SMOOTH",
"589 869 OFFCURVE",
"729 806 OFFCURVE",
"820 691 OFFCURVE",
"871 530 OFFCURVE",
"871 438 QCURVE SMOOTH",
"871 219 OFFCURVE",
"655 -19 OFFCURVE",
"504 -19 QCURVE SMOOTH",
"353 -19 OFFCURVE",
"268 106 QCURVE"
);
},
{
closed = 1;
nodes = (
"266 278 OFFCURVE",
"308 210 QCURVE SMOOTH",
"376 99 OFFCURVE",
"492 99 QCURVE SMOOTH",
"586 99 OFFCURVE",
"724 263 OFFCURVE",
"724 426 QCURVE SMOOTH",
"724 592 OFFCURVE",
"592 750 OFFCURVE",
"498 750 QCURVE SMOOTH",
"404 750 OFFCURVE",
"266 586 OFFCURVE",
"266 431 QCURVE SMOOTH"
);
}
);
width = 955;
}
);
unicode =   62;
},
{
glyphname = c;
layers = (
{
layerId = "84ea52b8-4d94-41b7-b7f8-6e3870ee3aa0";
paths = (
{
closed = 1;
nodes = (
"820 293 LINE",
"797 146 OFFCURVE",
"606 -19 OFFCURVE",
"466 -19 QCURVE SMOOTH",
"292 -19 OFFCURVE",
"80 209 OFFCURVE",
"80 422 QCURVE SMOOTH",
"80 559 OFFCURVE",
"171 766 OFFCURVE",
"358 869 OFFCURVE",
"467 869 QCURVE SMOOTH",
"606 869 OFFCURVE",
"782 729 OFFCURVE",
"806 600 QCURVE",
"666 578 LINE",
"646 664 OFFCURVE",
"545 750 OFFCURVE",
"473 750 QCURVE SMOOTH",
"364 750 OFFCURVE",
"228 594 OFFCURVE",
"228 426 QCURVE SMOOTH",
"228 254 OFFCURVE",
"359 99 OFFCURVE",
"465 99 QCURVE SMOOTH",
"550 99 OFFCURVE",
"663 203 OFFCURVE",
"678 311 QCURVE"
);
}
);
width = 839;
}
);
unicode =   63;
},
{
glyphname = d;
layers = (
{
layerId = "84ea52b8-4d94-41b7-b7f8-6e3870ee3aa0";
paths = (
{
closed = 1;
nodes = (
"664 1173 LINE",
"807 1173 LINE",
"807 0 LINE",
"673 0 LINE",
"673 107 LINE",
"592 -19 OFFCURVE",
"436 -19 QCURVE SMOOTH",
"334 -19 OFFCURVE",
"164 93 OFFCURVE",
"70 294 OFFCURVE",
"70 424 QCURVE SMOOTH",
"70 551 OFFCURVE",
"155 758 OFFCURVE",
"324 869 OFFCURVE",
"429 869 QCURVE SMOOTH",
"506 869 OFFCURVE",
"626 804 OFFCURVE",
"664 752 QCURVE"
);
},
{
closed = 1;
nodes = (
"218 261 OFFCURVE",
"356 99 OFFCURVE",
"449 99 QCURVE SMOOTH",
"544 99 OFFCURVE",
"676 254 OFFCURVE",
"676 412 QCURVE SMOOTH",
"676 586 OFFCURVE",
"541 750 OFFCURVE",
"443 750 QCURVE SMOOTH",
"347 750 OFFCURVE",
"218 593 OFFCURVE",
"218 424 QCURVE SMOOTH"
);
}
);
width = 955;
}
);
unicode =   64;
},
{
glyphname = e;
layers = (
{
layerId = "84ea52b8-4d94-41b7-b7f8-6e3870ee3aa0";
paths = (
{
closed = 1;
nodes = (
"853 255 LINE",
"818 125 OFFCURVE",
"628 -19 OFFCURVE",
"480 -19 QCURVE SMOOTH",
"293 -19 OFFCURVE",
"75 210 OFFCURVE",
"75 418 QCURVE SMOOTH",
"75 632 OFFCURVE",
"296 869 OFFCURVE",
"472 869 QCURVE SMOOTH",
"642 869 OFFCURVE",
"858 637 OFFCURVE",
"858 426 QCURVE SMOOTH",
"858 414 OFFCURVE",
"857 388 QCURVE",
"224 388 LINE",
"232 248 OFFCURVE",
"374 99 OFFCURVE",
"481 99 QCURVE SMOOTH",
"560 99 OFFCURVE",
"672 182 OFFCURVE",
"705 274 QCURVE"
);
},
{
closed = 1;
nodes = (
"706 506 LINE",
"697 614 OFFCURVE",
"652 667 QCURVE SMOOTH",
"583 750 OFFCURVE",
"473 750 QCURVE SMOOTH",
"374 750 OFFCURVE",
"239 618 OFFCURVE",
"232 506 QCURVE"
);
}
);
width = 943;
}
);
unicode =   65;
},
{
glyphname = f;
layers = (
{
layerId = "84ea52b8-4d94-41b7-b7f8-6e3870ee3aa0";
paths = (
{
closed = 1;
nodes = (
"290 850 LINE",
"455 850 LINE",
"455 738 LINE",
"290 738 LINE",
"290 0 LINE",
"146 0 LINE",
"146 738 LINE",
"19 738 LINE",
"19 850 LINE",
"146 850 LINE",
"146 940 LINE SMOOTH",
"146 1026 OFFCURVE",
"162 1067 QCURVE",
"182 1123 OFFCURVE",
"287 1193 OFFCURVE",
"382 1193 QCURVE SMOOTH",
"442 1193 OFFCURVE",
"516 1178 QCURVE",
"494 1053 LINE",
"450 1061 OFFCURVE",
"410 1061 QCURVE SMOOTH",
"344 1061 OFFCURVE",
"290 1005 OFFCURVE",
"290 928 QCURVE SMOOTH"
);
}
);
width = 445;
}
);
unicode =   66;
},
{
glyphname = g;
layers = (
{
layerId = "84ea52b8-4d94-41b7-b7f8-6e3870ee3aa0";
paths = (
{
closed = 1;
nodes = (
"95 -70 LINE",
"235 -91 LINE",
"252 -226 OFFCURVE",
"430 -226 QCURVE SMOOTH",
"530 -226 OFFCURVE",
"639 -146 OFFCURVE",
"658 -74 QCURVE SMOOTH",
"668 -34 OFFCURVE",
"668 88 QCURVE SMOOTH",
"668 111 LINE",
"574 0 OFFCURVE",
"433 0 QCURVE SMOOTH",
"258 0 OFFCURVE",
"66 253 OFFCURVE",
"66 430 QCURVE SMOOTH",
"66 551 OFFCURVE",
"154 757 OFFCURVE",
"321 869 OFFCURVE",
"434 869 QCURVE SMOOTH",
"584 869 OFFCURVE",
"682 747 QCURVE",
"682 850 LINE",
"815 850 LINE",
"815 115 LINE SMOOTH",
"815 -83 OFFCURVE",
"734 -249 OFFCURVE",
"559 -345 OFFCURVE",
"431 -345 QCURVE SMOOTH",
"279 -345 OFFCURVE",
"185 -276 QCURVE SMOOTH",
"95 -211 OFFCURVE",
"95 -81 QCURVE SMOOTH"
);
},
{
closed = 1;
nodes = (
"214 273 OFFCURVE",
"347 119 OFFCURVE",
"447 119 QCURVE SMOOTH",
"546 119 OFFCURVE",
"680 272 OFFCURVE",
"680 435 QCURVE SMOOTH",
"680 591 OFFCURVE",
"542 750 OFFCURVE",
"444 750 QCURVE SMOOTH",
"348 750 OFFCURVE",
"214 594 OFFCURVE",
"214 440 QCURVE SMOOTH"
);
}
);
width = 952;
}
);
unicode =   67;
},
{
glyphname = h;
layers = (
{
layerId = "84ea52b8-4d94-41b7-b7f8-6e3870ee3aa0";
paths = (
{
closed = 1;
nodes = (
"440 745 OFFCURVE",
"327 678 OFFCURVE",
"279 565 OFFCURVE",
"279 465 QCURVE SMOOTH",
"279 0 LINE",
"135 0 LINE",
"135 1173 LINE",
"279 1173 LINE",
"279 752 LINE",
"380 869 OFFCURVE",
"533 869 QCURVE SMOOTH",
"628 869 OFFCURVE",
"767 794 OFFCURVE",
"827 663 OFFCURVE",
"827 538 QCURVE SMOOTH",
"827 0 LINE",
"683 0 LINE",
"683 538 LINE SMOOTH",
"683 646 OFFCURVE",
"589 745 OFFCURVE",
"504 745 QCURVE SMOOTH"
);
}
);
width = 966;
}
);
unicode =   68;
},
{
glyphname = i;
layers = (
{
layerId = "84ea52b8-4d94-41b7-b7f8-6e3870ee3aa0";
paths = (
{
closed = 1;
nodes = (
"136 1007 LINE",
"136 1173 LINE",
"280 1173 LINE",
"280 1007 LINE"
);
},
{
closed = 1;
nodes = (
"136 0 LINE",
"136 850 LINE",
"280 850 LINE",
"280 0 LINE"
);
}
);
width = 419;
}
);
unicode =   69;
},
{
glyphname = j;
layers = (
{
layerId = "84ea52b8-4d94-41b7-b7f8-6e3870ee3aa0";
paths = (
{
closed = 1;
nodes = (
"88 1006 LINE",
"88 1173 LINE",
"232 1173 LINE",
"232 1006 LINE"
);
},
{
closed = 1;
nodes = (
"-67 -207 LINE",
"-24 -218 OFFCURVE",
"1 -218 QCURVE SMOOTH",
"45 -218 OFFCURVE",
"88 -160 OFFCURVE",
"88 -43 QCURVE SMOOTH",
"88 850 LINE",
"232 850 LINE",
"232 -46 LINE SMOOTH",
"232 -203 OFFCURVE",
"191 -265 QCURVE SMOOTH",
"139 -345 OFFCURVE",
"19 -345 QCURVE SMOOTH",
"-40 -345 OFFCURVE",
"-94 -330 QCURVE"
);
}
);
width = 373;
}
);
unicode =   6a;
},
{
glyphname = k;
layers = (
{
layerId = "84ea52b8-4d94-41b7-b7f8-6e3870ee3aa0";
paths = (
{
closed = 1;
nodes = (
"381 434 LINE",
"280 337 LINE",
"280 0 LINE",
"136 0 LINE",
"136 1173 LINE",
"280 1173 LINE",
"280 504 LINE",
"621 850 LINE",
"807 850 LINE",
"482 534 LINE",
"840 0 LINE",
"662 0 LINE"
);
}
);
width = 848;
}
);
unicode =   6b;
},
{
glyphname = l;
layers = (
{
layerId = "84ea52b8-4d94-41b7-b7f8-6e3870ee3aa0";
paths = (
{
closed = 1;
nodes = (
"131 0 LINE",
"131 1173 LINE",
"275 1173 LINE",
"275 0 LINE"
);
}
);
width = 419;
}
);
unicode =   6c;
},
{
glyphname = m;
layers = (
{
layerId = "84ea52b8-4d94-41b7-b7f8-6e3870ee3aa0";
paths = (
{
closed = 1;
nodes = (
"429 744 OFFCURVE",
"325 680 OFFCURVE",
"279 557 OFFCURVE",
"279 441 QCURVE SMOOTH",
"279 0 LINE",
"135 0 LINE",
"135 850 LINE",
"264 850 LINE",
"264 730 LINE",
"304 793 OFFCURVE",
"437 869 OFFCURVE",
"521 869 QCURVE SMOOTH",
"616 869 OFFCURVE",
"737 790 OFFCURVE",
"761 720 QCURVE",
"862 869 OFFCURVE",
"1024 869 QCURVE SMOOTH",
"1150 869 OFFCURVE",
"1286 729 OFFCURVE",
"1286 583 QCURVE SMOOTH",
"1286 0 LINE",
"1143 0 LINE",
"1143 535 LINE SMOOTH",
"1143 622 OFFCURVE",
"1115 698 OFFCURVE",
"1041 744 OFFCURVE",
"992 744 QCURVE SMOOTH",
"902 744 OFFCURVE",
"784 625 OFFCURVE",
"784 494 QCURVE SMOOTH",
"784 0 LINE",
"640 0 LINE",
"640 552 LINE SMOOTH",
"640 648 OFFCURVE",
"569 744 OFFCURVE",
"489 744 QCURVE SMOOTH"
);
}
);
width = 1418;
}
);
unicode =   6d;
},
{
glyphname = n;
layers = (
{
layerId = "84ea52b8-4d94-41b7-b7f8-6e3870ee3aa0";
paths = (
{
closed = 1;
nodes = (
"279 0 LINE",
"135 0 LINE",
"135 850 LINE",
"265 850 LINE",
"265 729 LINE",
"358 869 OFFCURVE",
"535 869 QCURVE SMOOTH",
"612 869 OFFCURVE",
"741 814 OFFCURVE",
"805 724 OFFCURVE",
"817 662 QCURVE SMOOTH",
"825 622 OFFCURVE",
"825 522 QCURVE SMOOTH",
"825 0 LINE",
"681 0 LINE",
"681 517 LINE SMOOTH",
"681 605 OFFCURVE",
"648 692 OFFCURVE",
"562 744 OFFCURVE",
"505 744 QCURVE SMOOTH",
"413 744 OFFCURVE",
"279 627 OFFCURVE",
"279 464 QCURVE SMOOTH"
);
}
);
width = 966;
}
);
unicode =   6e;
},
{
glyphname = o;
layers = (
{
layerId = "84ea52b8-4d94-41b7-b7f8-6e3870ee3aa0";
paths = (
{
closed = 1;
nodes = (
"68 661 OFFCURVE",
"200 774 QCURVE SMOOTH",
"309 869 OFFCURVE",
"467 869 QCURVE SMOOTH",
"642 869 OFFCURVE",
"864 639 OFFCURVE",
"864 437 QCURVE SMOOTH",
"864 273 OFFCURVE",
"766 85 OFFCURVE",
"578 -19 OFFCURVE",
"467 -19 QCURVE SMOOTH",
"288 -19 OFFCURVE",
"68 210 OFFCURVE",
"68 425 QCURVE SMOOTH"
);
},
{
closed = 1;
nodes = (
"216 262 OFFCURVE",
"359 99 OFFCURVE",
"467 99 QCURVE SMOOTH",
"574 99 OFFCURVE",
"716 262 OFFCURVE",
"716 430 QCURVE SMOOTH",
"716 587 OFFCURVE",
"573 750 OFFCURVE",
"467 750 QCURVE SMOOTH",
"359 750 OFFCURVE",
"216 588 OFFCURVE",
"216 425 QCURVE SMOOTH"
);
}
);
width = 940;
}
);
unicode =   6f;
},
{
glyphname = p;
layers = (
{
layerId = "84ea52b8-4d94-41b7-b7f8-6e3870ee3aa0";
paths = (
{
closed = 1;
nodes = (
"279 -326 LINE",
"135 -326 LINE",
"135 850 LINE",
"266 850 LINE",
"266 739 LINE",
"313 804 OFFCURVE",
"429 869 OFFCURVE",
"513 869 QCURVE SMOOTH",
"621 869 OFFCURVE",
"788 757 OFFCURVE",
"873 553 OFFCURVE",
"873 431 QCURVE SMOOTH",
"873 301 OFFCURVE",
"779 92 OFFCURVE",
"601 -19 OFFCURVE",
"502 -19 QCURVE SMOOTH",
"430 -19 OFFCURVE",
"316 42 OFFCURVE",
"279 88 QCURVE"
);
},
{
closed = 1;
nodes = (
"265 256 OFFCURVE",
"398 99 OFFCURVE",
"493 99 QCURVE SMOOTH",
"589 99 OFFCURVE",
"725 262 OFFCURVE",
"725 432 QCURVE SMOOTH",
"725 594 OFFCURVE",
"592 756 OFFCURVE",
"499 756 QCURVE SMOOTH",
"407 756 OFFCURVE",
"265 584 OFFCURVE",
"265 420 QCURVE SMOOTH"
);
}
);
width = 955;
}
);
unicode =   70;
},
{
glyphname = q;
layers = (
{
layerId = "84ea52b8-4d94-41b7-b7f8-6e3870ee3aa0";
paths = (
{
closed = 1;
nodes = (
"678 850 LINE",
"808 850 LINE",
"808 -326 LINE",
"664 -326 LINE",
"664 90 LINE",
"630 43 OFFCURVE",
"509 -19 OFFCURVE",
"441 -19 QCURVE SMOOTH",
"290 -19 OFFCURVE",
"72 222 OFFCURVE",
"72 433 QCURVE SMOOTH",
"72 561 OFFCURVE",
"160 764 OFFCURVE",
"329 869 OFFCURVE",
"430 869 QCURVE SMOOTH",
"588 869 OFFCURVE",
"678 736 QCURVE"
);
},
{
closed = 1;
nodes = (
"220 263 OFFCURVE",
"357 99 OFFCURVE",
"453 99 QCURVE SMOOTH",
"545 99 OFFCURVE",
"678 255 OFFCURVE",
"678 414 QCURVE SMOOTH",
"678 584 OFFCURVE",
"538 755 OFFCURVE",
"444 755 QCURVE SMOOTH",
"350 755 OFFCURVE",
"220 596 OFFCURVE",
"220 427 QCURVE SMOOTH"
);
}
);
width = 955;
}
);
unicode =   71;
},
{
glyphname = r;
layers = (
{
layerId = "84ea52b8-4d94-41b7-b7f8-6e3870ee3aa0";
paths = (
{
closed = 1;
nodes = (
"277 536 OFFCURVE",
"277 445 QCURVE SMOOTH",
"277 0 LINE",
"133 0 LINE",
"133 850 LINE",
"263 850 LINE",
"263 721 LINE",
"313 811 OFFCURVE",
"397 869 OFFCURVE",
"447 869 QCURVE SMOOTH",
"520 869 OFFCURVE",
"595 822 QCURVE",
"545 689 LINE",
"493 720 OFFCURVE",
"440 720 QCURVE SMOOTH",
"393 720 OFFCURVE",
"317 663 OFFCURVE",
"301 613 QCURVE SMOOTH"
);
}
);
width = 567;
}
);
unicode =   72;
},
{
glyphname = s;
layers = (
{
layerId = "84ea52b8-4d94-41b7-b7f8-6e3870ee3aa0";
paths = (
{
closed = 1;
nodes = (
"206 276 LINE",
"218 190 OFFCURVE",
"327 99 OFFCURVE",
"426 99 QCURVE SMOOTH",
"525 99 OFFCURVE",
"621 180 OFFCURVE",
"621 234 QCURVE SMOOTH",
"621 283 OFFCURVE",
"579 311 QCURVE SMOOTH",
"549 330 OFFCURVE",
"431 360 QCURVE SMOOTH",
"273 400 OFFCURVE",
"151 458 OFFCURVE",
"87 562 OFFCURVE",
"87 624 QCURVE SMOOTH",
"87 681 OFFCURVE",
"139 778 OFFCURVE",
"184 810 QCURVE SMOOTH",
"218 834 OFFCURVE",
"334 869 OFFCURVE",
"400 869 QCURVE SMOOTH",
"500 869 OFFCURVE",
"651 811 OFFCURVE",
"723 713 OFFCURVE",
"737 630 QCURVE",
"596 611 LINE",
"587 677 OFFCURVE",
"495 750 OFFCURVE",
"411 750 QCURVE SMOOTH",
"311 750 OFFCURVE",
"227 685 OFFCURVE",
"227 641 QCURVE SMOOTH",
"227 581 OFFCURVE",
"299 552 QCURVE",
"321 544 OFFCURVE",
"427 515 QCURVE SMOOTH",
"579 474 OFFCURVE",
"700 422 OFFCURVE",
"769 323 OFFCURVE",
"769 250 QCURVE SMOOTH",
"769 178 OFFCURVE",
"685 50 OFFCURVE",
"527 -19 OFFCURVE",
"427 -19 QCURVE SMOOTH",
"261 -19 OFFCURVE",
"87 118 OFFCURVE",
"63 254 QCURVE"
);
}
);
width = 848;
}
);
unicode =   73;
},
{
glyphname = t;
layers = (
{
layerId = "84ea52b8-4d94-41b7-b7f8-6e3870ee3aa0";
paths = (
{
closed = 1;
nodes = (
"450 2 LINE",
"389 -11 OFFCURVE",
"341 -11 QCURVE SMOOTH",
"263 -11 OFFCURVE",
"177 38 OFFCURVE",
"141 119 OFFCURVE",
"141 249 QCURVE SMOOTH",
"141 738 LINE",
"36 738 LINE",
"36 850 LINE",
"141 850 LINE",
"141 1060 LINE",
"285 1146 LINE",
"285 850 LINE",
"429 850 LINE",
"429 738 LINE",
"285 738 LINE",
"285 241 LINE SMOOTH",
"285 179 OFFCURVE",
"300 144 OFFCURVE",
"334 123 OFFCURVE",
"366 123 QCURVE SMOOTH",
"390 123 OFFCURVE",
"429 129 QCURVE"
);
}
);
width = 465;
}
);
unicode =   74;
},
{
glyphname = u;
layers = (
{
layerId = "84ea52b8-4d94-41b7-b7f8-6e3870ee3aa0";
paths = (
{
closed = 1;
nodes = (
"515 105 OFFCURVE",
"628 171 OFFCURVE",
"676 286 OFFCURVE",
"676 394 QCURVE SMOOTH",
"676 850 LINE",
"820 850 LINE",
"820 0 LINE",
"691 0 LINE",
"691 125 LINE",
"592 -19 OFFCURVE",
"421 -19 QCURVE SMOOTH",
"346 -19 OFFCURVE",
"216 38 OFFCURVE",
"152 126 OFFCURVE",
"140 189 QCURVE SMOOTH",
"131 231 OFFCURVE",
"131 323 QCURVE SMOOTH",
"131 850 LINE",
"275 850 LINE",
"275 378 LINE SMOOTH",
"275 266 OFFCURVE",
"284 226 QCURVE SMOOTH",
"297 170 OFFCURVE",
"385 105 OFFCURVE",
"450 105 QCURVE SMOOTH"
);
}
);
width = 967;
}
);
unicode =   75;
},
{
glyphname = v;
layers = (
{
layerId = "84ea52b8-4d94-41b7-b7f8-6e3870ee3aa0";
paths = (
{
closed = 1;
nodes = (
"805 850 LINE",
"483 0 LINE",
"349 0 LINE",
"26 850 LINE",
"178 850 LINE",
"360 341 LINE SMOOTH",
"390 258 OFFCURVE",
"415 170 QCURVE",
"434 237 OFFCURVE",
"468 331 QCURVE SMOOTH",
"657 850 LINE"
);
}
);
width = 829;
}
);
unicode =   76;
},
{
glyphname = w;
layers = (
{
layerId = "84ea52b8-4d94-41b7-b7f8-6e3870ee3aa0";
paths = (
{
closed = 1;
nodes = (
"588 654 LINE",
"416 0 LINE",
"266 0 LINE",
"6 850 LINE",
"155 850 LINE",
"340 177 LINE",
"360 262 OFFCURVE",
"519 850 QCURVE",
"667 850 LINE",
"837 194 LINE",
"1031 850 LINE",
"1171 850 LINE",
"906 0 LINE",
"756 0 LINE",
"621 509 LINE"
);
}
);
width = 1187;
}
);
unicode =   77;
},
{
glyphname = x;
layers = (
{
layerId = "84ea52b8-4d94-41b7-b7f8-6e3870ee3aa0";
paths = (
{
closed = 1;
nodes = (
"15 0 LINE",
"325 442 LINE",
"38 850 LINE",
"218 850 LINE",
"379 604 OFFCURVE",
"408 555 QCURVE",
"432 592 OFFCURVE",
"616 850 QCURVE",
"788 850 LINE",
"494 450 LINE",
"810 0 LINE",
"633 0 LINE",
"413 335 LINE",
"189 0 LINE"
);
}
);
width = 825;
}
);
unicode =   78;
},
{
glyphname = y;
layers = (
{
layerId = "84ea52b8-4d94-41b7-b7f8-6e3870ee3aa0";
paths = (
{
closed = 1;
nodes = (
"160 -345 OFFCURVE",
"109 -327 QCURVE",
"93 -192 LINE",
"140 -205 OFFCURVE",
"175 -205 QCURVE SMOOTH",
"223 -205 OFFCURVE",
"281 -173 OFFCURVE",
"299 -144 QCURVE SMOOTH",
"313 -122 OFFCURVE",
"343 -37 QCURVE SMOOTH",
"347 -25 OFFCURVE",
"356 -2 QCURVE",
"33 850 LINE",
"189 850 LINE",
"365 358 LINE",
"400 264 OFFCURVE",
"427 161 QCURVE",
"452 260 OFFCURVE",
"486 354 QCURVE SMOOTH",
"668 850 LINE",
"812 850 LINE",
"489 -14 LINE SMOOTH",
"437 -154 OFFCURVE",
"408 -207 QCURVE SMOOTH",
"369 -278 OFFCURVE",
"270 -345 OFFCURVE",
"201 -345 QCURVE SMOOTH"
);
}
);
width = 830;
}
);
unicode =   79;
},
{
glyphname = z;
layers = (
{
layerId = "84ea52b8-4d94-41b7-b7f8-6e3870ee3aa0";
paths = (
{
closed = 1;
nodes = (
"218 117 LINE",
"314 124 OFFCURVE",
"399 124 QCURVE SMOOTH",
"792 124 LINE",
"792 0 LINE",
"40 0 LINE",
"40 117 LINE",
"581 738 LINE",
"489 733 OFFCURVE",
"418 733 QCURVE SMOOTH",
"72 733 LINE",
"72 850 LINE",
"766 850 LINE",
"766 754 LINE",
"306 215 LINE"
);
}
);
width = 836;
}
);
unicode =   7a;
},
{
glyphname = braceleft;
layers = (
{
layerId = "84ea52b8-4d94-41b7-b7f8-6e3870ee3aa0";
paths = (
{
closed = 1;
nodes = (
"57 490 LINE",
"118 491 OFFCURVE",
"196 554 OFFCURVE",
"221 665 OFFCURVE",
"223 932 OFFCURVE",
"227 974 QCURVE SMOOTH",
"234 1042 OFFCURVE",
"273 1123 OFFCURVE",
"331 1172 OFFCURVE",
"376 1185 QCURVE SMOOTH",
"406 1193 OFFCURVE",
"520 1193 QCURVE",
"520 1067 LINE",
"495 1067 LINE SMOOTH",
"412 1067 OFFCURVE",
"357 1007 OFFCURVE",
"357 903 QCURVE SMOOTH",
"357 694 OFFCURVE",
"349 638 QCURVE",
"334 553 OFFCURVE",
"265 460 OFFCURVE",
"190 424 QCURVE",
"278 387 OFFCURVE",
"357 236 OFFCURVE",
"357 64 QCURVE SMOOTH",
"357 -92 OFFCURVE",
"361 -122 QCURVE SMOOTH",
"367 -176 OFFCURVE",
"419 -219 OFFCURVE",
"495 -219 QCURVE SMOOTH",
"520 -219 LINE",
"520 -345 LINE",
"475 -345 LINE SMOOTH",
"397 -345 OFFCURVE",
"361 -332 QCURVE SMOOTH",
"310 -314 OFFCURVE",
"243 -231 OFFCURVE",
"223 -105 OFFCURVE",
"221 183 OFFCURVE",
"196 294 OFFCURVE",
"118 358 OFFCURVE",
"57 359 QCURVE"
);
}
);
width = 568;
}
);
unicode =   7b;
},
{
glyphname = bar;
layers = (
{
layerId = "84ea52b8-4d94-41b7-b7f8-6e3870ee3aa0";
paths = (
{
closed = 1;
nodes = (
"188 -345 LINE",
"188 1193 LINE",
"314 1193 LINE",
"314 -345 LINE"
);
}
);
width = 501;
}
);
unicode =   7c;
},
{
glyphname = braceright;
layers = (
{
layerId = "84ea52b8-4d94-41b7-b7f8-6e3870ee3aa0";
paths = (
{
closed = 1;
nodes = (
"510 359 LINE",
"448 358 OFFCURVE",
"371 294 OFFCURVE",
"345 184 OFFCURVE",
"343 -83 OFFCURVE",
"339 -126 QCURVE SMOOTH",
"332 -194 OFFCURVE",
"293 -274 OFFCURVE",
"235 -323 OFFCURVE",
"191 -336 QCURVE SMOOTH",
"160 -345 OFFCURVE",
"47 -345 QCURVE",
"47 -219 LINE",
"71 -219 LINE SMOOTH",
"155 -219 OFFCURVE",
"209 -159 OFFCURVE",
"209 -54 QCURVE SMOOTH",
"209 146 OFFCURVE",
"216 199 QCURVE SMOOTH",
"229 288 OFFCURVE",
"306 394 OFFCURVE",
"376 424 QCURVE",
"284 468 OFFCURVE",
"209 613 OFFCURVE",
"209 785 QCURVE SMOOTH",
"209 941 OFFCURVE",
"205 971 QCURVE SMOOTH",
"199 1025 OFFCURVE",
"147 1067 OFFCURVE",
"71 1067 QCURVE SMOOTH",
"47 1067 LINE",
"47 1193 LINE",
"91 1193 LINE SMOOTH",
"170 1193 OFFCURVE",
"205 1180 QCURVE SMOOTH",
"256 1162 OFFCURVE",
"323 1079 OFFCURVE",
"343 953 OFFCURVE",
"345 665 OFFCURVE",
"371 555 OFFCURVE",
"448 491 OFFCURVE",
"510 490 QCURVE"
);
}
);
width = 568;
}
);
unicode =   7d;
},
{
glyphname = asciitilde;
layers = (
{
layerId = "84ea52b8-4d94-41b7-b7f8-6e3870ee3aa0";
paths = (
{
closed = 1;
nodes = (
"352 587 OFFCURVE",
"317 601 OFFCURVE",
"288 609 OFFCURVE",
"262 612 OFFCURVE",
"248 612 QCURVE SMOOTH",
"230 612 OFFCURVE",
"192 600 OFFCURVE",
"154 579 OFFCURVE",
"118 551 OFFCURVE",
"102 535 QCURVE",
"102 639 LINE",
"166 708 OFFCURVE",
"261 708 QCURVE SMOOTH",
"279 708 OFFCURVE",
"311 705 OFFCURVE",
"346 696 OFFCURVE",
"389 680 OFFCURVE",
"419 668 QCURVE",
"443 657 OFFCURVE",
"478 643 OFFCURVE",
"508 635 OFFCURVE",
"534 632 OFFCURVE",
"548 632 QCURVE SMOOTH",
"566 632 OFFCURVE",
"604 644 OFFCURVE",
"642 665 OFFCURVE",
"678 693 OFFCURVE",
"693 709 QCURVE",
"693 605 LINE",
"630 536 OFFCURVE",
"535 536 QCURVE SMOOTH",
"516 536 OFFCURVE",
"484 540 OFFCURVE",
"449 548 OFFCURVE",
"406 564 OFFCURVE",
"376 577 QCURVE SMOOTH"
);
}
);
width = 795;
}
);
unicode =   7e;
},
{
glyphname = quotedblleft;
layers = (
{
layerId = "84ea52b8-4d94-41b7-b7f8-6e3870ee3aa0";
paths = (
{
closed = 1;
nodes = (
"248 1412 OFFCURVE",
"251 1410 QCURVE",
"253 1407 OFFCURVE",
"253 1402 QCURVE SMOOTH",
"253 1389 OFFCURVE",
"218 1332 QCURVE",
"196 1293 OFFCURVE",
"196 1275 QCURVE SMOOTH",
"196 1267 OFFCURVE",
"199 1262 QCURVE SMOOTH",
"204 1254 OFFCURVE",
"215 1254 QCURVE",
"237 1257 LINE",
"253 1257 OFFCURVE",
"267 1242 QCURVE SMOOTH",
"284 1224 OFFCURVE",
"284 1187 QCURVE",
"283 1180 LINE",
"282 1138 OFFCURVE",
"238 1077 OFFCURVE",
"213 1074 QCURVE",
"205 1074 LINE SMOOTH",
"157 1074 OFFCURVE",
"139 1134 QCURVE SMOOTH",
"132 1157 OFFCURVE",
"132 1191 QCURVE SMOOTH",
"132 1305 OFFCURVE",
"221 1398 QCURVE",
"237 1412 OFFCURVE",
"245 1412 QCURVE SMOOTH"
);
},
{
closed = 1;
nodes = (
"461 1418 OFFCURVE",
"463 1416 QCURVE SMOOTH",
"466 1413 OFFCURVE",
"466 1408 QCURVE SMOOTH",
"466 1398 OFFCURVE",
"431 1338 QCURVE",
"408 1296 OFFCURVE",
"408 1280 QCURVE SMOOTH",
"408 1272 OFFCURVE",
"412 1266 QCURVE",
"416 1259 OFFCURVE",
"427 1259 QCURVE",
"450 1263 LINE",
"465 1263 OFFCURVE",
"479 1248 QCURVE SMOOTH",
"496 1230 OFFCURVE",
"496 1190 QCURVE SMOOTH",
"496 1186 LINE",
"495 1143 OFFCURVE",
"451 1082 OFFCURVE",
"425 1080 QCURVE",
"419 1080 LINE SMOOTH",
"370 1080 OFFCURVE",
"352 1140 QCURVE",
"345 1161 OFFCURVE",
"345 1196 QCURVE SMOOTH",
"345 1313 OFFCURVE",
"433 1403 QCURVE",
"450 1418 OFFCURVE",
"458 1418 QCURVE SMOOTH"
);
}
);
width = 665;
}
);
unicode = 201c;
},
{
glyphname = quotedblright;
layers = (
{
layerId = "84ea52b8-4d94-41b7-b7f8-6e3870ee3aa0";
paths = (
{
closed = 1;
nodes = (
"170 1061 OFFCURVE",
"168 1063 QCURVE",
"165 1065 OFFCURVE",
"165 1070 QCURVE SMOOTH",
"165 1079 OFFCURVE",
"175 1097 QCURVE SMOOTH",
"200 1142 LINE SMOOTH",
"222 1182 OFFCURVE",
"222 1198 QCURVE SMOOTH",
"222 1206 OFFCURVE",
"218 1212 QCURVE",
"214 1219 OFFCURVE",
"204 1219 QCURVE SMOOTH",
"198 1219 OFFCURVE",
"190 1216 QCURVE",
"185 1215 OFFCURVE",
"181 1215 QCURVE SMOOTH",
"165 1215 OFFCURVE",
"152 1230 QCURVE",
"134 1248 OFFCURVE",
"134 1287 QCURVE SMOOTH",
"134 1293 LINE",
"136 1336 OFFCURVE",
"180 1397 OFFCURVE",
"206 1399 QCURVE",
"212 1399 LINE SMOOTH",
"261 1399 OFFCURVE",
"279 1339 QCURVE SMOOTH",
"286 1316 OFFCURVE",
"286 1282 QCURVE SMOOTH",
"286 1167 OFFCURVE",
"198 1075 QCURVE",
"181 1061 OFFCURVE",
"173 1061 QCURVE SMOOTH"
);
},
{
closed = 1;
nodes = (
"382 1067 OFFCURVE",
"380 1069 QCURVE SMOOTH",
"378 1071 OFFCURVE",
"378 1075 QCURVE SMOOTH",
"378 1087 OFFCURVE",
"413 1147 QCURVE",
"435 1188 OFFCURVE",
"435 1204 QCURVE SMOOTH",
"435 1212 OFFCURVE",
"431 1218 QCURVE",
"427 1225 OFFCURVE",
"417 1225 QCURVE SMOOTH",
"411 1225 OFFCURVE",
"404 1222 QCURVE",
"398 1221 OFFCURVE",
"394 1221 QCURVE SMOOTH",
"378 1221 OFFCURVE",
"364 1236 QCURVE SMOOTH",
"347 1254 OFFCURVE",
"347 1293 QCURVE",
"348 1299 LINE",
"349 1342 OFFCURVE",
"393 1402 OFFCURVE",
"418 1404 QCURVE",
"424 1404 LINE SMOOTH",
"445 1404 OFFCURVE",
"462 1392 QCURVE SMOOTH",
"497 1368 OFFCURVE",
"499 1293 QCURVE",
"499 1240 OFFCURVE",
"459 1130 OFFCURVE",
"411 1081 QCURVE",
"393 1067 OFFCURVE",
"385 1067 QCURVE SMOOTH"
);
}
);
width = 624;
}
);
unicode = 201d;
},
{
glyphname = arabicquestionmark;
layers = (
{
layerId = "84ea52b8-4d94-41b7-b7f8-6e3870ee3aa0";
paths = (
{
closed = 1;
nodes = (
"522 969 OFFCURVE",
"474 904 OFFCURVE",
"453 904 QCURVE SMOOTH",
"434 904 OFFCURVE",
"424 972 OFFCURVE",
"397 972 QCURVE SMOOTH",
"358 972 OFFCURVE",
"314 929 QCURVE",
"274 886 OFFCURVE",
"274 857 QCURVE SMOOTH",
"274 833 OFFCURVE",
"350 831 QCURVE SMOOTH",
"439 829 OFFCURVE",
"455 814 QCURVE SMOOTH",
"506 766 OFFCURVE",
"506 699 QCURVE SMOOTH",
"506 615 OFFCURVE",
"445 530 QCURVE",
"439 521 OFFCURVE",
"425 521 QCURVE SMOOTH",
"410 521 OFFCURVE",
"410 534 QCURVE SMOOTH",
"410 548 OFFCURVE",
"427 610 OFFCURVE",
"427 626 QCURVE SMOOTH",
"427 651 OFFCURVE",
"418 668 QCURVE SMOOTH",
"402 699 OFFCURVE",
"344 702 QCURVE SMOOTH",
"254 706 OFFCURVE",
"247 710 QCURVE",
"200 724 OFFCURVE",
"200 782 QCURVE SMOOTH",
"200 860 OFFCURVE",
"261 963 QCURVE",
"334 1090 OFFCURVE",
"438 1090 QCURVE SMOOTH",
"522 1090 OFFCURVE",
"522 1003 QCURVE SMOOTH"
);
},
{
closed = 1;
nodes = (
"469 340 OFFCURVE",
"442 292 QCURVE",
"417 242 OFFCURVE",
"403 242 QCURVE SMOOTH",
"389 242 OFFCURVE",
"335 315 OFFCURVE",
"335 326 QCURVE SMOOTH",
"335 338 OFFCURVE",
"397 444 OFFCURVE",
"403 444 QCURVE SMOOTH",
"412 444 OFFCURVE",
"469 362 OFFCURVE",
"469 352 QCURVE SMOOTH"
);
}
);
width = 722;
}
);
unicode =  61f;
},
{
glyphname = hamza;
layers = (
{
layerId = "84ea52b8-4d94-41b7-b7f8-6e3870ee3aa0";
paths = (
{
closed = 1;
nodes = (
"151 445 OFFCURVE",
"173 471 QCURVE SMOOTH",
"201 504 OFFCURVE",
"280 593 QCURVE",
"317 630 OFFCURVE",
"342 633 QCURVE",
"356 634 LINE",
"388 634 OFFCURVE",
"405 615 QCURVE SMOOTH",
"424 594 OFFCURVE",
"424 573 QCURVE SMOOTH",
"424 568 LINE",
"421 548 OFFCURVE",
"405 548 QCURVE SMOOTH",
"392 548 OFFCURVE",
"360 558 QCURVE",
"351 560 OFFCURVE",
"338 560 QCURVE SMOOTH",
"298 560 OFFCURVE",
"278 538 QCURVE",
"266 526 OFFCURVE",
"266 510 QCURVE SMOOTH",
"266 479 OFFCURVE",
"296 459 QCURVE SMOOTH",
"312 448 OFFCURVE",
"331 448 QCURVE SMOOTH",
"338 448 OFFCURVE",
"346 450 QCURVE",
"375 456 OFFCURVE",
"450 497 OFFCURVE",
"480 520 QCURVE",
"485 522 OFFCURVE",
"486 522 QCURVE",
"490 522 OFFCURVE",
"490 516 QCURVE SMOOTH",
"490 496 OFFCURVE",
"450 447 OFFCURVE",
"372 390 OFFCURVE",
"238 300 OFFCURVE",
"189 264 OFFCURVE",
"174 258 QCURVE",
"167 254 OFFCURVE",
"160 254 QCURVE SMOOTH",
"154 254 OFFCURVE",
"148 257 QCURVE SMOOTH",
"144 259 OFFCURVE",
"144 263 QCURVE SMOOTH",
"144 272 OFFCURVE",
"160 289 QCURVE SMOOTH",
"185 315 OFFCURVE",
"209 340 OFFCURVE",
"210 344 QCURVE",
"210 345 LINE",
"210 348 OFFCURVE",
"206 350 QCURVE",
"193 357 OFFCURVE",
"179 370 QCURVE",
"151 394 OFFCURVE",
"151 423 QCURVE SMOOTH"
);
}
);
width = 592;
}
);
},
{
glyphname = alifmad;
layers = (
{
layerId = "84ea52b8-4d94-41b7-b7f8-6e3870ee3aa0";
paths = (
{
closed = 1;
nodes = (
"336 977 OFFCURVE",
"335 795 QCURVE",
"333 629 OFFCURVE",
"332 584 QCURVE",
"324 456 OFFCURVE",
"261 316 QCURVE SMOOTH",
"250 290 OFFCURVE",
"240 290 QCURVE SMOOTH",
"220 290 OFFCURVE",
"220 313 QCURVE",
"221 323 LINE",
"235 368 OFFCURVE",
"243 547 QCURVE",
"234 661 OFFCURVE",
"234 796 QCURVE",
"235 872 LINE",
"261 962 OFFCURVE",
"328 1095 QCURVE",
"335 1098 OFFCURVE",
"340 1098 QCURVE SMOOTH",
"348 1098 OFFCURVE",
"355 1090 QCURVE"
);
},
{
closed = 1;
nodes = (
"592 1358 OFFCURVE",
"463 1265 QCURVE SMOOTH",
"402 1220 OFFCURVE",
"320 1220 QCURVE SMOOTH",
"292 1220 OFFCURVE",
"266 1231 QCURVE",
"264 1231 OFFCURVE",
"246 1242 QCURVE",
"232 1252 OFFCURVE",
"219 1252 QCURVE",
"213 1251 LINE",
"168 1230 OFFCURVE",
"116 1158 QCURVE",
"112 1154 OFFCURVE",
"93 1154 QCURVE",
"90 1157 OFFCURVE",
"90 1163 QCURVE SMOOTH",
"90 1171 OFFCURVE",
"93 1185 QCURVE",
"173 1345 OFFCURVE",
"283 1421 QCURVE",
"293 1431 OFFCURVE",
"308 1431 QCURVE SMOOTH",
"318 1431 OFFCURVE",
"348 1414 QCURVE SMOOTH",
"386 1393 OFFCURVE",
"446 1393 QCURVE SMOOTH",
"505 1393 OFFCURVE",
"551 1433 QCURVE",
"574 1462 OFFCURVE",
"631 1518 QCURVE",
"633 1518 LINE",
"638 1518 OFFCURVE",
"644 1513 QCURVE",
"644 1511 OFFCURVE",
"646 1508 QCURVE"
);
}
);
width = 512;
}
);
unicode =  622;
},
{
glyphname = alifhamzaabove;
layers = (
{
layerId = "84ea52b8-4d94-41b7-b7f8-6e3870ee3aa0";
paths = (
{
closed = 1;
nodes = (
"489 460 LINE",
"489 562 OFFCURVE",
"701 863 QCURVE",
"747 968 OFFCURVE",
"747 1020 QCURVE",
"754 1020 LINE",
"871 791 OFFCURVE",
"871 684 QCURVE SMOOTH",
"871 544 OFFCURVE",
"713 460 QCURVE",
"713 456 LINE",
"718 456 LINE",
"879 469 OFFCURVE",
"1120 606 QCURVE",
"1191 638 OFFCURVE",
"1232 638 QCURVE SMOOTH",
"1343 638 OFFCURVE",
"1427 435 QCURVE",
"1439 391 OFFCURVE",
"1439 360 QCURVE SMOOTH",
"1439 319 LINE",
"1419 178 OFFCURVE",
"1335 178 QCURVE SMOOTH",
"1210 178 OFFCURVE",
"1129 452 QCURVE",
"1120 506 LINE",
"1008 422 OFFCURVE",
"891 377 QCURVE",
"816 360 OFFCURVE",
"816 353 QCURVE",
"962 268 OFFCURVE",
"962 169 QCURVE SMOOTH",
"962 145 LINE SMOOTH",
"962 24 OFFCURVE",
"814 0 QCURVE",
"792 0 LINE SMOOTH",
"640 0 OFFCURVE",
"518 195 QCURVE",
"493 253 OFFCURVE",
"477 340 QCURVE",
"432 340 OFFCURVE",
"323 390 QCURVE",
"323 386 LINE",
"340 338 OFFCURVE",
"340 270 QCURVE SMOOTH",
"340 100 OFFCURVE",
"199 17 QCURVE",
"179 4 OFFCURVE",
"124 4 QCURVE SMOOTH",
"69 4 OFFCURVE",
"0 49 QCURVE",
"0 54 LINE SMOOTH",
"0 62 OFFCURVE",
"79 71 QCURVE",
"155 100 OFFCURVE",
"182 165 QCURVE",
"199 220 OFFCURVE",
"199 266 QCURVE SMOOTH",
"199 360 OFFCURVE",
"129 597 QCURVE",
"129 633 OFFCURVE",
"249 743 QCURVE",
"257 743 LINE SMOOTH",
"270 743 OFFCURVE",
"287 630 QCURVE",
"323 527 OFFCURVE",
"419 482 QCURVE"
);
},
{
closed = 1;
nodes = (
"564 452 LINE",
"726 511 OFFCURVE",
"726 655 QCURVE",
"713 758 LINE",
"709 758 LINE",
"559 561 OFFCURVE",
"559 452 QCURVE"
);
},
{
closed = 1;
nodes = (
"581 232 OFFCURVE",
"739 137 QCURVE",
"766 129 OFFCURVE",
"788 129 QCURVE SMOOTH",
"825 129 OFFCURVE",
"825 174 QCURVE",
"788 328 OFFCURVE",
"581 328 QCURVE"
);
}
);
width = 1474;
}
);
unicode =  623;
},
{
glyphname = waohamza;
layers = (
{
layerId = "84ea52b8-4d94-41b7-b7f8-6e3870ee3aa0";
paths = (
{
closed = 1;
nodes = (
"489 460 LINE",
"489 562 OFFCURVE",
"701 863 QCURVE",
"747 968 OFFCURVE",
"747 1020 QCURVE",
"754 1020 LINE",
"871 791 OFFCURVE",
"871 684 QCURVE SMOOTH",
"871 544 OFFCURVE",
"713 460 QCURVE",
"713 456 LINE",
"718 456 LINE",
"879 469 OFFCURVE",
"1120 606 QCURVE",
"1191 638 OFFCURVE",
"1232 638 QCURVE SMOOTH",
"1343 638 OFFCURVE",
"1427 435 QCURVE",
"1439 391 OFFCURVE",
"1439 360 QCURVE SMOOTH",
"1439 319 LINE",
"1419 178 OFFCURVE",
"1335 178 QCURVE SMOOTH",
"1210 178 OFFCURVE",
"1129 452 QCURVE",
"1120 506 LINE",
"1008 422 OFFCURVE",
"891 377 QCURVE",
"816 360 OFFCURVE",
"816 353 QCURVE",
"962 268 OFFCURVE",
"962 169 QCURVE SMOOTH",
"962 145 LINE SMOOTH",
"962 24 OFFCURVE",
"814 0 QCURVE",
"792 0 LINE SMOOTH",
"640 0 OFFCURVE",
"518 195 QCURVE",
"493 253 OFFCURVE",
"477 340 QCURVE",
"432 340 OFFCURVE",
"323 390 QCURVE",
"323 386 LINE",
"340 338 OFFCURVE",
"340 270 QCURVE SMOOTH",
"340 100 OFFCURVE",
"199 17 QCURVE",
"179 4 OFFCURVE",
"124 4 QCURVE SMOOTH",
"69 4 OFFCURVE",
"0 49 QCURVE",
"0 54 LINE SMOOTH",
"0 62 OFFCURVE",
"79 71 QCURVE",
"155 100 OFFCURVE",
"182 165 QCURVE",
"199 220 OFFCURVE",
"199 266 QCURVE SMOOTH",
"199 360 OFFCURVE",
"129 597 QCURVE",
"129 633 OFFCURVE",
"249 743 QCURVE",
"257 743 LINE SMOOTH",
"270 743 OFFCURVE",
"287 630 QCURVE",
"323 527 OFFCURVE",
"419 482 QCURVE"
);
},
{
closed = 1;
nodes = (
"564 452 LINE",
"726 511 OFFCURVE",
"726 655 QCURVE",
"713 758 LINE",
"709 758 LINE",
"559 561 OFFCURVE",
"559 452 QCURVE"
);
},
{
closed = 1;
nodes = (
"581 232 OFFCURVE",
"739 137 QCURVE",
"766 129 OFFCURVE",
"788 129 QCURVE SMOOTH",
"825 129 OFFCURVE",
"825 174 QCURVE",
"788 328 OFFCURVE",
"581 328 QCURVE"
);
}
);
width = 1474;
}
);
unicode =  624, 676;
},
{
glyphname = alifhamzabelow;
layers = (
{
layerId = "84ea52b8-4d94-41b7-b7f8-6e3870ee3aa0";
paths = (
{
closed = 1;
nodes = (
"489 460 LINE",
"489 562 OFFCURVE",
"701 863 QCURVE",
"747 968 OFFCURVE",
"747 1020 QCURVE",
"754 1020 LINE",
"871 791 OFFCURVE",
"871 684 QCURVE SMOOTH",
"871 544 OFFCURVE",
"713 460 QCURVE",
"713 456 LINE",
"718 456 LINE",
"879 469 OFFCURVE",
"1120 606 QCURVE",
"1191 638 OFFCURVE",
"1232 638 QCURVE SMOOTH",
"1343 638 OFFCURVE",
"1427 435 QCURVE",
"1439 391 OFFCURVE",
"1439 360 QCURVE SMOOTH",
"1439 319 LINE",
"1419 178 OFFCURVE",
"1335 178 QCURVE SMOOTH",
"1210 178 OFFCURVE",
"1129 452 QCURVE",
"1120 506 LINE",
"1008 422 OFFCURVE",
"891 377 QCURVE",
"816 360 OFFCURVE",
"816 353 QCURVE",
"962 268 OFFCURVE",
"962 169 QCURVE SMOOTH",
"962 145 LINE SMOOTH",
"962 24 OFFCURVE",
"814 0 QCURVE",
"792 0 LINE SMOOTH",
"640 0 OFFCURVE",
"518 195 QCURVE",
"493 253 OFFCURVE",
"477 340 QCURVE",
"432 340 OFFCURVE",
"323 390 QCURVE",
"323 386 LINE",
"340 338 OFFCURVE",
"340 270 QCURVE SMOOTH",
"340 100 OFFCURVE",
"199 17 QCURVE",
"179 4 OFFCURVE",
"124 4 QCURVE SMOOTH",
"69 4 OFFCURVE",
"0 49 QCURVE",
"0 54 LINE SMOOTH",
"0 62 OFFCURVE",
"79 71 QCURVE",
"155 100 OFFCURVE",
"182 165 QCURVE",
"199 220 OFFCURVE",
"199 266 QCURVE SMOOTH",
"199 360 OFFCURVE",
"129 597 QCURVE",
"129 633 OFFCURVE",
"249 743 QCURVE",
"257 743 LINE SMOOTH",
"270 743 OFFCURVE",
"287 630 QCURVE",
"323 527 OFFCURVE",
"419 482 QCURVE"
);
},
{
closed = 1;
nodes = (
"564 452 LINE",
"726 511 OFFCURVE",
"726 655 QCURVE",
"713 758 LINE",
"709 758 LINE",
"559 561 OFFCURVE",
"559 452 QCURVE"
);
},
{
closed = 1;
nodes = (
"581 232 OFFCURVE",
"739 137 QCURVE",
"766 129 OFFCURVE",
"788 129 QCURVE SMOOTH",
"825 129 OFFCURVE",
"825 174 QCURVE",
"788 328 OFFCURVE",
"581 328 QCURVE"
);
}
);
width = 1474;
}
);
unicode =  625;
},
{
glyphname = yehhamza;
layers = (
{
layerId = "84ea52b8-4d94-41b7-b7f8-6e3870ee3aa0";
paths = (
{
closed = 1;
nodes = (
"489 460 LINE",
"489 562 OFFCURVE",
"701 863 QCURVE",
"747 968 OFFCURVE",
"747 1020 QCURVE",
"754 1020 LINE",
"871 791 OFFCURVE",
"871 684 QCURVE SMOOTH",
"871 544 OFFCURVE",
"713 460 QCURVE",
"713 456 LINE",
"718 456 LINE",
"879 469 OFFCURVE",
"1120 606 QCURVE",
"1191 638 OFFCURVE",
"1232 638 QCURVE SMOOTH",
"1343 638 OFFCURVE",
"1427 435 QCURVE",
"1439 391 OFFCURVE",
"1439 360 QCURVE SMOOTH",
"1439 319 LINE",
"1419 178 OFFCURVE",
"1335 178 QCURVE SMOOTH",
"1210 178 OFFCURVE",
"1129 452 QCURVE",
"1120 506 LINE",
"1008 422 OFFCURVE",
"891 377 QCURVE",
"816 360 OFFCURVE",
"816 353 QCURVE",
"962 268 OFFCURVE",
"962 169 QCURVE SMOOTH",
"962 145 LINE SMOOTH",
"962 24 OFFCURVE",
"814 0 QCURVE",
"792 0 LINE SMOOTH",
"640 0 OFFCURVE",
"518 195 QCURVE",
"493 253 OFFCURVE",
"477 340 QCURVE",
"432 340 OFFCURVE",
"323 390 QCURVE",
"323 386 LINE",
"340 338 OFFCURVE",
"340 270 QCURVE SMOOTH",
"340 100 OFFCURVE",
"199 17 QCURVE",
"179 4 OFFCURVE",
"124 4 QCURVE SMOOTH",
"69 4 OFFCURVE",
"0 49 QCURVE",
"0 54 LINE SMOOTH",
"0 62 OFFCURVE",
"79 71 QCURVE",
"155 100 OFFCURVE",
"182 165 QCURVE",
"199 220 OFFCURVE",
"199 266 QCURVE SMOOTH",
"199 360 OFFCURVE",
"129 597 QCURVE",
"129 633 OFFCURVE",
"249 743 QCURVE",
"257 743 LINE SMOOTH",
"270 743 OFFCURVE",
"287 630 QCURVE",
"323 527 OFFCURVE",
"419 482 QCURVE"
);
},
{
closed = 1;
nodes = (
"564 452 LINE",
"726 511 OFFCURVE",
"726 655 QCURVE",
"713 758 LINE",
"709 758 LINE",
"559 561 OFFCURVE",
"559 452 QCURVE"
);
},
{
closed = 1;
nodes = (
"581 232 OFFCURVE",
"739 137 QCURVE",
"766 129 OFFCURVE",
"788 129 QCURVE SMOOTH",
"825 129 OFFCURVE",
"825 174 QCURVE",
"788 328 OFFCURVE",
"581 328 QCURVE"
);
}
);
width = 1474;
}
);
unicode =  626, 678;
},
{
glyphname = alif;
layers = (
{
layerId = "84ea52b8-4d94-41b7-b7f8-6e3870ee3aa0";
paths = (
{
closed = 1;
nodes = (
"489 460 LINE",
"489 562 OFFCURVE",
"701 863 QCURVE",
"747 968 OFFCURVE",
"747 1020 QCURVE",
"754 1020 LINE",
"871 791 OFFCURVE",
"871 684 QCURVE SMOOTH",
"871 544 OFFCURVE",
"713 460 QCURVE",
"713 456 LINE",
"718 456 LINE",
"879 469 OFFCURVE",
"1120 606 QCURVE",
"1191 638 OFFCURVE",
"1232 638 QCURVE SMOOTH",
"1343 638 OFFCURVE",
"1427 435 QCURVE",
"1439 391 OFFCURVE",
"1439 360 QCURVE SMOOTH",
"1439 319 LINE",
"1419 178 OFFCURVE",
"1335 178 QCURVE SMOOTH",
"1210 178 OFFCURVE",
"1129 452 QCURVE",
"1120 506 LINE",
"1008 422 OFFCURVE",
"891 377 QCURVE",
"816 360 OFFCURVE",
"816 353 QCURVE",
"962 268 OFFCURVE",
"962 169 QCURVE SMOOTH",
"962 145 LINE SMOOTH",
"962 24 OFFCURVE",
"814 0 QCURVE",
"792 0 LINE SMOOTH",
"640 0 OFFCURVE",
"518 195 QCURVE",
"493 253 OFFCURVE",
"477 340 QCURVE",
"432 340 OFFCURVE",
"323 390 QCURVE",
"323 386 LINE",
"340 338 OFFCURVE",
"340 270 QCURVE SMOOTH",
"340 100 OFFCURVE",
"199 17 QCURVE",
"179 4 OFFCURVE",
"124 4 QCURVE SMOOTH",
"69 4 OFFCURVE",
"0 49 QCURVE",
"0 54 LINE SMOOTH",
"0 62 OFFCURVE",
"79 71 QCURVE",
"155 100 OFFCURVE",
"182 165 QCURVE",
"199 220 OFFCURVE",
"199 266 QCURVE SMOOTH",
"199 360 OFFCURVE",
"129 597 QCURVE",
"129 633 OFFCURVE",
"249 743 QCURVE",
"257 743 LINE SMOOTH",
"270 743 OFFCURVE",
"287 630 QCURVE",
"323 527 OFFCURVE",
"419 482 QCURVE"
);
},
{
closed = 1;
nodes = (
"564 452 LINE",
"726 511 OFFCURVE",
"726 655 QCURVE",
"713 758 LINE",
"709 758 LINE",
"559 561 OFFCURVE",
"559 452 QCURVE"
);
},
{
closed = 1;
nodes = (
"581 232 OFFCURVE",
"739 137 QCURVE",
"766 129 OFFCURVE",
"788 129 QCURVE SMOOTH",
"825 129 OFFCURVE",
"825 174 QCURVE",
"788 328 OFFCURVE",
"581 328 QCURVE"
);
}
);
width = 1474;
}
);
unicode =  627;
},
{
glyphname = bay;
layers = (
{
layerId = "84ea52b8-4d94-41b7-b7f8-6e3870ee3aa0";
paths = (
{
closed = 1;
nodes = (
"489 460 LINE",
"489 562 OFFCURVE",
"701 863 QCURVE",
"747 968 OFFCURVE",
"747 1020 QCURVE",
"754 1020 LINE",
"871 791 OFFCURVE",
"871 684 QCURVE SMOOTH",
"871 544 OFFCURVE",
"713 460 QCURVE",
"713 456 LINE",
"718 456 LINE",
"879 469 OFFCURVE",
"1120 606 QCURVE",
"1191 638 OFFCURVE",
"1232 638 QCURVE SMOOTH",
"1343 638 OFFCURVE",
"1427 435 QCURVE",
"1439 391 OFFCURVE",
"1439 360 QCURVE SMOOTH",
"1439 319 LINE",
"1419 178 OFFCURVE",
"1335 178 QCURVE SMOOTH",
"1210 178 OFFCURVE",
"1129 452 QCURVE",
"1120 506 LINE",
"1008 422 OFFCURVE",
"891 377 QCURVE",
"816 360 OFFCURVE",
"816 353 QCURVE",
"962 268 OFFCURVE",
"962 169 QCURVE SMOOTH",
"962 145 LINE SMOOTH",
"962 24 OFFCURVE",
"814 0 QCURVE",
"792 0 LINE SMOOTH",
"640 0 OFFCURVE",
"518 195 QCURVE",
"493 253 OFFCURVE",
"477 340 QCURVE",
"432 340 OFFCURVE",
"323 390 QCURVE",
"323 386 LINE",
"340 338 OFFCURVE",
"340 270 QCURVE SMOOTH",
"340 100 OFFCURVE",
"199 17 QCURVE",
"179 4 OFFCURVE",
"124 4 QCURVE SMOOTH",
"69 4 OFFCURVE",
"0 49 QCURVE",
"0 54 LINE SMOOTH",
"0 62 OFFCURVE",
"79 71 QCURVE",
"155 100 OFFCURVE",
"182 165 QCURVE",
"199 220 OFFCURVE",
"199 266 QCURVE SMOOTH",
"199 360 OFFCURVE",
"129 597 QCURVE",
"129 633 OFFCURVE",
"249 743 QCURVE",
"257 743 LINE SMOOTH",
"270 743 OFFCURVE",
"287 630 QCURVE",
"323 527 OFFCURVE",
"419 482 QCURVE"
);
},
{
closed = 1;
nodes = (
"564 452 LINE",
"726 511 OFFCURVE",
"726 655 QCURVE",
"713 758 LINE",
"709 758 LINE",
"559 561 OFFCURVE",
"559 452 QCURVE"
);
},
{
closed = 1;
nodes = (
"581 232 OFFCURVE",
"739 137 QCURVE",
"766 129 OFFCURVE",
"788 129 QCURVE SMOOTH",
"825 129 OFFCURVE",
"825 174 QCURVE",
"788 328 OFFCURVE",
"581 328 QCURVE"
);
}
);
width = 1474;
}
);
unicode =  628;
},
{
glyphname = goaltay;
layers = (
{
layerId = "84ea52b8-4d94-41b7-b7f8-6e3870ee3aa0";
paths = (
{
closed = 1;
nodes = (
"489 460 LINE",
"489 562 OFFCURVE",
"701 863 QCURVE",
"747 968 OFFCURVE",
"747 1020 QCURVE",
"754 1020 LINE",
"871 791 OFFCURVE",
"871 684 QCURVE SMOOTH",
"871 544 OFFCURVE",
"713 460 QCURVE",
"713 456 LINE",
"718 456 LINE",
"879 469 OFFCURVE",
"1120 606 QCURVE",
"1191 638 OFFCURVE",
"1232 638 QCURVE SMOOTH",
"1343 638 OFFCURVE",
"1427 435 QCURVE",
"1439 391 OFFCURVE",
"1439 360 QCURVE SMOOTH",
"1439 319 LINE",
"1419 178 OFFCURVE",
"1335 178 QCURVE SMOOTH",
"1210 178 OFFCURVE",
"1129 452 QCURVE",
"1120 506 LINE",
"1008 422 OFFCURVE",
"891 377 QCURVE",
"816 360 OFFCURVE",
"816 353 QCURVE",
"962 268 OFFCURVE",
"962 169 QCURVE SMOOTH",
"962 145 LINE SMOOTH",
"962 24 OFFCURVE",
"814 0 QCURVE",
"792 0 LINE SMOOTH",
"640 0 OFFCURVE",
"518 195 QCURVE",
"493 253 OFFCURVE",
"477 340 QCURVE",
"432 340 OFFCURVE",
"323 390 QCURVE",
"323 386 LINE",
"340 338 OFFCURVE",
"340 270 QCURVE SMOOTH",
"340 100 OFFCURVE",
"199 17 QCURVE",
"179 4 OFFCURVE",
"124 4 QCURVE SMOOTH",
"69 4 OFFCURVE",
"0 49 QCURVE",
"0 54 LINE SMOOTH",
"0 62 OFFCURVE",
"79 71 QCURVE",
"155 100 OFFCURVE",
"182 165 QCURVE",
"199 220 OFFCURVE",
"199 266 QCURVE SMOOTH",
"199 360 OFFCURVE",
"129 597 QCURVE",
"129 633 OFFCURVE",
"249 743 QCURVE",
"257 743 LINE SMOOTH",
"270 743 OFFCURVE",
"287 630 QCURVE",
"323 527 OFFCURVE",
"419 482 QCURVE"
);
},
{
closed = 1;
nodes = (
"564 452 LINE",
"726 511 OFFCURVE",
"726 655 QCURVE",
"713 758 LINE",
"709 758 LINE",
"559 561 OFFCURVE",
"559 452 QCURVE"
);
},
{
closed = 1;
nodes = (
"581 232 OFFCURVE",
"739 137 QCURVE",
"766 129 OFFCURVE",
"788 129 QCURVE SMOOTH",
"825 129 OFFCURVE",
"825 174 QCURVE",
"788 328 OFFCURVE",
"581 328 QCURVE"
);
}
);
width = 1474;
}
);
unicode =  629, 6c3;
},
{
glyphname = tay;
layers = (
{
layerId = "84ea52b8-4d94-41b7-b7f8-6e3870ee3aa0";
paths = (
{
closed = 1;
nodes = (
"489 460 LINE",
"489 562 OFFCURVE",
"701 863 QCURVE",
"747 968 OFFCURVE",
"747 1020 QCURVE",
"754 1020 LINE",
"871 791 OFFCURVE",
"871 684 QCURVE SMOOTH",
"871 544 OFFCURVE",
"713 460 QCURVE",
"713 456 LINE",
"718 456 LINE",
"879 469 OFFCURVE",
"1120 606 QCURVE",
"1191 638 OFFCURVE",
"1232 638 QCURVE SMOOTH",
"1343 638 OFFCURVE",
"1427 435 QCURVE",
"1439 391 OFFCURVE",
"1439 360 QCURVE SMOOTH",
"1439 319 LINE",
"1419 178 OFFCURVE",
"1335 178 QCURVE SMOOTH",
"1210 178 OFFCURVE",
"1129 452 QCURVE",
"1120 506 LINE",
"1008 422 OFFCURVE",
"891 377 QCURVE",
"816 360 OFFCURVE",
"816 353 QCURVE",
"962 268 OFFCURVE",
"962 169 QCURVE SMOOTH",
"962 145 LINE SMOOTH",
"962 24 OFFCURVE",
"814 0 QCURVE",
"792 0 LINE SMOOTH",
"640 0 OFFCURVE",
"518 195 QCURVE",
"493 253 OFFCURVE",
"477 340 QCURVE",
"432 340 OFFCURVE",
"323 390 QCURVE",
"323 386 LINE",
"340 338 OFFCURVE",
"340 270 QCURVE SMOOTH",
"340 100 OFFCURVE",
"199 17 QCURVE",
"179 4 OFFCURVE",
"124 4 QCURVE SMOOTH",
"69 4 OFFCURVE",
"0 49 QCURVE",
"0 54 LINE SMOOTH",
"0 62 OFFCURVE",
"79 71 QCURVE",
"155 100 OFFCURVE",
"182 165 QCURVE",
"199 220 OFFCURVE",
"199 266 QCURVE SMOOTH",
"199 360 OFFCURVE",
"129 597 QCURVE",
"129 633 OFFCURVE",
"249 743 QCURVE",
"257 743 LINE SMOOTH",
"270 743 OFFCURVE",
"287 630 QCURVE",
"323 527 OFFCURVE",
"419 482 QCURVE"
);
},
{
closed = 1;
nodes = (
"564 452 LINE",
"726 511 OFFCURVE",
"726 655 QCURVE",
"713 758 LINE",
"709 758 LINE",
"559 561 OFFCURVE",
"559 452 QCURVE"
);
},
{
closed = 1;
nodes = (
"581 232 OFFCURVE",
"739 137 QCURVE",
"766 129 OFFCURVE",
"788 129 QCURVE SMOOTH",
"825 129 OFFCURVE",
"825 174 QCURVE",
"788 328 OFFCURVE",
"581 328 QCURVE"
);
}
);
width = 1474;
}
);
unicode =  62a;
},
{
glyphname = say;
layers = (
{
layerId = "84ea52b8-4d94-41b7-b7f8-6e3870ee3aa0";
paths = (
{
closed = 1;
nodes = (
"489 460 LINE",
"489 562 OFFCURVE",
"701 863 QCURVE",
"747 968 OFFCURVE",
"747 1020 QCURVE",
"754 1020 LINE",
"871 791 OFFCURVE",
"871 684 QCURVE SMOOTH",
"871 544 OFFCURVE",
"713 460 QCURVE",
"713 456 LINE",
"718 456 LINE",
"879 469 OFFCURVE",
"1120 606 QCURVE",
"1191 638 OFFCURVE",
"1232 638 QCURVE SMOOTH",
"1343 638 OFFCURVE",
"1427 435 QCURVE",
"1439 391 OFFCURVE",
"1439 360 QCURVE SMOOTH",
"1439 319 LINE",
"1419 178 OFFCURVE",
"1335 178 QCURVE SMOOTH",
"1210 178 OFFCURVE",
"1129 452 QCURVE",
"1120 506 LINE",
"1008 422 OFFCURVE",
"891 377 QCURVE",
"816 360 OFFCURVE",
"816 353 QCURVE",
"962 268 OFFCURVE",
"962 169 QCURVE SMOOTH",
"962 145 LINE SMOOTH",
"962 24 OFFCURVE",
"814 0 QCURVE",
"792 0 LINE SMOOTH",
"640 0 OFFCURVE",
"518 195 QCURVE",
"493 253 OFFCURVE",
"477 340 QCURVE",
"432 340 OFFCURVE",
"323 390 QCURVE",
"323 386 LINE",
"340 338 OFFCURVE",
"340 270 QCURVE SMOOTH",
"340 100 OFFCURVE",
"199 17 QCURVE",
"179 4 OFFCURVE",
"124 4 QCURVE SMOOTH",
"69 4 OFFCURVE",
"0 49 QCURVE",
"0 54 LINE SMOOTH",
"0 62 OFFCURVE",
"79 71 QCURVE",
"155 100 OFFCURVE",
"182 165 QCURVE",
"199 220 OFFCURVE",
"199 266 QCURVE SMOOTH",
"199 360 OFFCURVE",
"129 597 QCURVE",
"129 633 OFFCURVE",
"249 743 QCURVE",
"257 743 LINE SMOOTH",
"270 743 OFFCURVE",
"287 630 QCURVE",
"323 527 OFFCURVE",
"419 482 QCURVE"
);
},
{
closed = 1;
nodes = (
"564 452 LINE",
"726 511 OFFCURVE",
"726 655 QCURVE",
"713 758 LINE",
"709 758 LINE",
"559 561 OFFCURVE",
"559 452 QCURVE"
);
},
{
closed = 1;
nodes = (
"581 232 OFFCURVE",
"739 137 QCURVE",
"766 129 OFFCURVE",
"788 129 QCURVE SMOOTH",
"825 129 OFFCURVE",
"825 174 QCURVE",
"788 328 OFFCURVE",
"581 328 QCURVE"
);
}
);
width = 1474;
}
);
unicode =  62b;
},
{
glyphname = jeem;
layers = (
{
layerId = "84ea52b8-4d94-41b7-b7f8-6e3870ee3aa0";
paths = (
{
closed = 1;
nodes = (
"489 460 LINE",
"489 562 OFFCURVE",
"701 863 QCURVE",
"747 968 OFFCURVE",
"747 1020 QCURVE",
"754 1020 LINE",
"871 791 OFFCURVE",
"871 684 QCURVE SMOOTH",
"871 544 OFFCURVE",
"713 460 QCURVE",
"713 456 LINE",
"718 456 LINE",
"879 469 OFFCURVE",
"1120 606 QCURVE",
"1191 638 OFFCURVE",
"1232 638 QCURVE SMOOTH",
"1343 638 OFFCURVE",
"1427 435 QCURVE",
"1439 391 OFFCURVE",
"1439 360 QCURVE SMOOTH",
"1439 319 LINE",
"1419 178 OFFCURVE",
"1335 178 QCURVE SMOOTH",
"1210 178 OFFCURVE",
"1129 452 QCURVE",
"1120 506 LINE",
"1008 422 OFFCURVE",
"891 377 QCURVE",
"816 360 OFFCURVE",
"816 353 QCURVE",
"962 268 OFFCURVE",
"962 169 QCURVE SMOOTH",
"962 145 LINE SMOOTH",
"962 24 OFFCURVE",
"814 0 QCURVE",
"792 0 LINE SMOOTH",
"640 0 OFFCURVE",
"518 195 QCURVE",
"493 253 OFFCURVE",
"477 340 QCURVE",
"432 340 OFFCURVE",
"323 390 QCURVE",
"323 386 LINE",
"340 338 OFFCURVE",
"340 270 QCURVE SMOOTH",
"340 100 OFFCURVE",
"199 17 QCURVE",
"179 4 OFFCURVE",
"124 4 QCURVE SMOOTH",
"69 4 OFFCURVE",
"0 49 QCURVE",
"0 54 LINE SMOOTH",
"0 62 OFFCURVE",
"79 71 QCURVE",
"155 100 OFFCURVE",
"182 165 QCURVE",
"199 220 OFFCURVE",
"199 266 QCURVE SMOOTH",
"199 360 OFFCURVE",
"129 597 QCURVE",
"129 633 OFFCURVE",
"249 743 QCURVE",
"257 743 LINE SMOOTH",
"270 743 OFFCURVE",
"287 630 QCURVE",
"323 527 OFFCURVE",
"419 482 QCURVE"
);
},
{
closed = 1;
nodes = (
"564 452 LINE",
"726 511 OFFCURVE",
"726 655 QCURVE",
"713 758 LINE",
"709 758 LINE",
"559 561 OFFCURVE",
"559 452 QCURVE"
);
},
{
closed = 1;
nodes = (
"581 232 OFFCURVE",
"739 137 QCURVE",
"766 129 OFFCURVE",
"788 129 QCURVE SMOOTH",
"825 129 OFFCURVE",
"825 174 QCURVE",
"788 328 OFFCURVE",
"581 328 QCURVE"
);
}
);
width = 1474;
}
);
unicode =  62c;
},
{
glyphname = hay;
layers = (
{
layerId = "84ea52b8-4d94-41b7-b7f8-6e3870ee3aa0";
paths = (
{
closed = 1;
nodes = (
"489 460 LINE",
"489 562 OFFCURVE",
"701 863 QCURVE",
"747 968 OFFCURVE",
"747 1020 QCURVE",
"754 1020 LINE",
"871 791 OFFCURVE",
"871 684 QCURVE SMOOTH",
"871 544 OFFCURVE",
"713 460 QCURVE",
"713 456 LINE",
"718 456 LINE",
"879 469 OFFCURVE",
"1120 606 QCURVE",
"1191 638 OFFCURVE",
"1232 638 QCURVE SMOOTH",
"1343 638 OFFCURVE",
"1427 435 QCURVE",
"1439 391 OFFCURVE",
"1439 360 QCURVE SMOOTH",
"1439 319 LINE",
"1419 178 OFFCURVE",
"1335 178 QCURVE SMOOTH",
"1210 178 OFFCURVE",
"1129 452 QCURVE",
"1120 506 LINE",
"1008 422 OFFCURVE",
"891 377 QCURVE",
"816 360 OFFCURVE",
"816 353 QCURVE",
"962 268 OFFCURVE",
"962 169 QCURVE SMOOTH",
"962 145 LINE SMOOTH",
"962 24 OFFCURVE",
"814 0 QCURVE",
"792 0 LINE SMOOTH",
"640 0 OFFCURVE",
"518 195 QCURVE",
"493 253 OFFCURVE",
"477 340 QCURVE",
"432 340 OFFCURVE",
"323 390 QCURVE",
"323 386 LINE",
"340 338 OFFCURVE",
"340 270 QCURVE SMOOTH",
"340 100 OFFCURVE",
"199 17 QCURVE",
"179 4 OFFCURVE",
"124 4 QCURVE SMOOTH",
"69 4 OFFCURVE",
"0 49 QCURVE",
"0 54 LINE SMOOTH",
"0 62 OFFCURVE",
"79 71 QCURVE",
"155 100 OFFCURVE",
"182 165 QCURVE",
"199 220 OFFCURVE",
"199 266 QCURVE SMOOTH",
"199 360 OFFCURVE",
"129 597 QCURVE",
"129 633 OFFCURVE",
"249 743 QCURVE",
"257 743 LINE SMOOTH",
"270 743 OFFCURVE",
"287 630 QCURVE",
"323 527 OFFCURVE",
"419 482 QCURVE"
);
},
{
closed = 1;
nodes = (
"564 452 LINE",
"726 511 OFFCURVE",
"726 655 QCURVE",
"713 758 LINE",
"709 758 LINE",
"559 561 OFFCURVE",
"559 452 QCURVE"
);
},
{
closed = 1;
nodes = (
"581 232 OFFCURVE",
"739 137 QCURVE",
"766 129 OFFCURVE",
"788 129 QCURVE SMOOTH",
"825 129 OFFCURVE",
"825 174 QCURVE",
"788 328 OFFCURVE",
"581 328 QCURVE"
);
}
);
width = 1474;
}
);
unicode =  62d;
},
{
glyphname = khay;
layers = (
{
layerId = "84ea52b8-4d94-41b7-b7f8-6e3870ee3aa0";
paths = (
{
closed = 1;
nodes = (
"489 460 LINE",
"489 562 OFFCURVE",
"701 863 QCURVE",
"747 968 OFFCURVE",
"747 1020 QCURVE",
"754 1020 LINE",
"871 791 OFFCURVE",
"871 684 QCURVE SMOOTH",
"871 544 OFFCURVE",
"713 460 QCURVE",
"713 456 LINE",
"718 456 LINE",
"879 469 OFFCURVE",
"1120 606 QCURVE",
"1191 638 OFFCURVE",
"1232 638 QCURVE SMOOTH",
"1343 638 OFFCURVE",
"1427 435 QCURVE",
"1439 391 OFFCURVE",
"1439 360 QCURVE SMOOTH",
"1439 319 LINE",
"1419 178 OFFCURVE",
"1335 178 QCURVE SMOOTH",
"1210 178 OFFCURVE",
"1129 452 QCURVE",
"1120 506 LINE",
"1008 422 OFFCURVE",
"891 377 QCURVE",
"816 360 OFFCURVE",
"816 353 QCURVE",
"962 268 OFFCURVE",
"962 169 QCURVE SMOOTH",
"962 145 LINE SMOOTH",
"962 24 OFFCURVE",
"814 0 QCURVE",
"792 0 LINE SMOOTH",
"640 0 OFFCURVE",
"518 195 QCURVE",
"493 253 OFFCURVE",
"477 340 QCURVE",
"432 340 OFFCURVE",
"323 390 QCURVE",
"323 386 LINE",
"340 338 OFFCURVE",
"340 270 QCURVE SMOOTH",
"340 100 OFFCURVE",
"199 17 QCURVE",
"179 4 OFFCURVE",
"124 4 QCURVE SMOOTH",
"69 4 OFFCURVE",
"0 49 QCURVE",
"0 54 LINE SMOOTH",
"0 62 OFFCURVE",
"79 71 QCURVE",
"155 100 OFFCURVE",
"182 165 QCURVE",
"199 220 OFFCURVE",
"199 266 QCURVE SMOOTH",
"199 360 OFFCURVE",
"129 597 QCURVE",
"129 633 OFFCURVE",
"249 743 QCURVE",
"257 743 LINE SMOOTH",
"270 743 OFFCURVE",
"287 630 QCURVE",
"323 527 OFFCURVE",
"419 482 QCURVE"
);
},
{
closed = 1;
nodes = (
"564 452 LINE",
"726 511 OFFCURVE",
"726 655 QCURVE",
"713 758 LINE",
"709 758 LINE",
"559 561 OFFCURVE",
"559 452 QCURVE"
);
},
{
closed = 1;
nodes = (
"581 232 OFFCURVE",
"739 137 QCURVE",
"766 129 OFFCURVE",
"788 129 QCURVE SMOOTH",
"825 129 OFFCURVE",
"825 174 QCURVE",
"788 328 OFFCURVE",
"581 328 QCURVE"
);
}
);
width = 1474;
}
);
unicode =  62e;
},
{
glyphname = dal;
layers = (
{
layerId = "84ea52b8-4d94-41b7-b7f8-6e3870ee3aa0";
paths = (
{
closed = 1;
nodes = (
"489 460 LINE",
"489 562 OFFCURVE",
"701 863 QCURVE",
"747 968 OFFCURVE",
"747 1020 QCURVE",
"754 1020 LINE",
"871 791 OFFCURVE",
"871 684 QCURVE SMOOTH",
"871 544 OFFCURVE",
"713 460 QCURVE",
"713 456 LINE",
"718 456 LINE",
"879 469 OFFCURVE",
"1120 606 QCURVE",
"1191 638 OFFCURVE",
"1232 638 QCURVE SMOOTH",
"1343 638 OFFCURVE",
"1427 435 QCURVE",
"1439 391 OFFCURVE",
"1439 360 QCURVE SMOOTH",
"1439 319 LINE",
"1419 178 OFFCURVE",
"1335 178 QCURVE SMOOTH",
"1210 178 OFFCURVE",
"1129 452 QCURVE",
"1120 506 LINE",
"1008 422 OFFCURVE",
"891 377 QCURVE",
"816 360 OFFCURVE",
"816 353 QCURVE",
"962 268 OFFCURVE",
"962 169 QCURVE SMOOTH",
"962 145 LINE SMOOTH",
"962 24 OFFCURVE",
"814 0 QCURVE",
"792 0 LINE SMOOTH",
"640 0 OFFCURVE",
"518 195 QCURVE",
"493 253 OFFCURVE",
"477 340 QCURVE",
"432 340 OFFCURVE",
"323 390 QCURVE",
"323 386 LINE",
"340 338 OFFCURVE",
"340 270 QCURVE SMOOTH",
"340 100 OFFCURVE",
"199 17 QCURVE",
"179 4 OFFCURVE",
"124 4 QCURVE SMOOTH",
"69 4 OFFCURVE",
"0 49 QCURVE",
"0 54 LINE SMOOTH",
"0 62 OFFCURVE",
"79 71 QCURVE",
"155 100 OFFCURVE",
"182 165 QCURVE",
"199 220 OFFCURVE",
"199 266 QCURVE SMOOTH",
"199 360 OFFCURVE",
"129 597 QCURVE",
"129 633 OFFCURVE",
"249 743 QCURVE",
"257 743 LINE SMOOTH",
"270 743 OFFCURVE",
"287 630 QCURVE",
"323 527 OFFCURVE",
"419 482 QCURVE"
);
},
{
closed = 1;
nodes = (
"564 452 LINE",
"726 511 OFFCURVE",
"726 655 QCURVE",
"713 758 LINE",
"709 758 LINE",
"559 561 OFFCURVE",
"559 452 QCURVE"
);
},
{
closed = 1;
nodes = (
"581 232 OFFCURVE",
"739 137 QCURVE",
"766 129 OFFCURVE",
"788 129 QCURVE SMOOTH",
"825 129 OFFCURVE",
"825 174 QCURVE",
"788 328 OFFCURVE",
"581 328 QCURVE"
);
}
);
width = 1474;
}
);
unicode =  62f;
},
{
glyphname = zal;
layers = (
{
layerId = "84ea52b8-4d94-41b7-b7f8-6e3870ee3aa0";
paths = (
{
closed = 1;
nodes = (
"489 460 LINE",
"489 562 OFFCURVE",
"701 863 QCURVE",
"747 968 OFFCURVE",
"747 1020 QCURVE",
"754 1020 LINE",
"871 791 OFFCURVE",
"871 684 QCURVE SMOOTH",
"871 544 OFFCURVE",
"713 460 QCURVE",
"713 456 LINE",
"718 456 LINE",
"879 469 OFFCURVE",
"1120 606 QCURVE",
"1191 638 OFFCURVE",
"1232 638 QCURVE SMOOTH",
"1343 638 OFFCURVE",
"1427 435 QCURVE",
"1439 391 OFFCURVE",
"1439 360 QCURVE SMOOTH",
"1439 319 LINE",
"1419 178 OFFCURVE",
"1335 178 QCURVE SMOOTH",
"1210 178 OFFCURVE",
"1129 452 QCURVE",
"1120 506 LINE",
"1008 422 OFFCURVE",
"891 377 QCURVE",
"816 360 OFFCURVE",
"816 353 QCURVE",
"962 268 OFFCURVE",
"962 169 QCURVE SMOOTH",
"962 145 LINE SMOOTH",
"962 24 OFFCURVE",
"814 0 QCURVE",
"792 0 LINE SMOOTH",
"640 0 OFFCURVE",
"518 195 QCURVE",
"493 253 OFFCURVE",
"477 340 QCURVE",
"432 340 OFFCURVE",
"323 390 QCURVE",
"323 386 LINE",
"340 338 OFFCURVE",
"340 270 QCURVE SMOOTH",
"340 100 OFFCURVE",
"199 17 QCURVE",
"179 4 OFFCURVE",
"124 4 QCURVE SMOOTH",
"69 4 OFFCURVE",
"0 49 QCURVE",
"0 54 LINE SMOOTH",
"0 62 OFFCURVE",
"79 71 QCURVE",
"155 100 OFFCURVE",
"182 165 QCURVE",
"199 220 OFFCURVE",
"199 266 QCURVE SMOOTH",
"199 360 OFFCURVE",
"129 597 QCURVE",
"129 633 OFFCURVE",
"249 743 QCURVE",
"257 743 LINE SMOOTH",
"270 743 OFFCURVE",
"287 630 QCURVE",
"323 527 OFFCURVE",
"419 482 QCURVE"
);
},
{
closed = 1;
nodes = (
"564 452 LINE",
"726 511 OFFCURVE",
"726 655 QCURVE",
"713 758 LINE",
"709 758 LINE",
"559 561 OFFCURVE",
"559 452 QCURVE"
);
},
{
closed = 1;
nodes = (
"581 232 OFFCURVE",
"739 137 QCURVE",
"766 129 OFFCURVE",
"788 129 QCURVE SMOOTH",
"825 129 OFFCURVE",
"825 174 QCURVE",
"788 328 OFFCURVE",
"581 328 QCURVE"
);
}
);
width = 1474;
}
);
unicode =  630;
},
{
glyphname = ray;
layers = (
{
layerId = "84ea52b8-4d94-41b7-b7f8-6e3870ee3aa0";
paths = (
{
closed = 1;
nodes = (
"489 460 LINE",
"489 562 OFFCURVE",
"701 863 QCURVE",
"747 968 OFFCURVE",
"747 1020 QCURVE",
"754 1020 LINE",
"871 791 OFFCURVE",
"871 684 QCURVE SMOOTH",
"871 544 OFFCURVE",
"713 460 QCURVE",
"713 456 LINE",
"718 456 LINE",
"879 469 OFFCURVE",
"1120 606 QCURVE",
"1191 638 OFFCURVE",
"1232 638 QCURVE SMOOTH",
"1343 638 OFFCURVE",
"1427 435 QCURVE",
"1439 391 OFFCURVE",
"1439 360 QCURVE SMOOTH",
"1439 319 LINE",
"1419 178 OFFCURVE",
"1335 178 QCURVE SMOOTH",
"1210 178 OFFCURVE",
"1129 452 QCURVE",
"1120 506 LINE",
"1008 422 OFFCURVE",
"891 377 QCURVE",
"816 360 OFFCURVE",
"816 353 QCURVE",
"962 268 OFFCURVE",
"962 169 QCURVE SMOOTH",
"962 145 LINE SMOOTH",
"962 24 OFFCURVE",
"814 0 QCURVE",
"792 0 LINE SMOOTH",
"640 0 OFFCURVE",
"518 195 QCURVE",
"493 253 OFFCURVE",
"477 340 QCURVE",
"432 340 OFFCURVE",
"323 390 QCURVE",
"323 386 LINE",
"340 338 OFFCURVE",
"340 270 QCURVE SMOOTH",
"340 100 OFFCURVE",
"199 17 QCURVE",
"179 4 OFFCURVE",
"124 4 QCURVE SMOOTH",
"69 4 OFFCURVE",
"0 49 QCURVE",
"0 54 LINE SMOOTH",
"0 62 OFFCURVE",
"79 71 QCURVE",
"155 100 OFFCURVE",
"182 165 QCURVE",
"199 220 OFFCURVE",
"199 266 QCURVE SMOOTH",
"199 360 OFFCURVE",
"129 597 QCURVE",
"129 633 OFFCURVE",
"249 743 QCURVE",
"257 743 LINE SMOOTH",
"270 743 OFFCURVE",
"287 630 QCURVE",
"323 527 OFFCURVE",
"419 482 QCURVE"
);
},
{
closed = 1;
nodes = (
"564 452 LINE",
"726 511 OFFCURVE",
"726 655 QCURVE",
"713 758 LINE",
"709 758 LINE",
"559 561 OFFCURVE",
"559 452 QCURVE"
);
},
{
closed = 1;
nodes = (
"581 232 OFFCURVE",
"739 137 QCURVE",
"766 129 OFFCURVE",
"788 129 QCURVE SMOOTH",
"825 129 OFFCURVE",
"825 174 QCURVE",
"788 328 OFFCURVE",
"581 328 QCURVE"
);
}
);
width = 1474;
}
);
unicode =  631;
},
{
glyphname = zay;
layers = (
{
layerId = "84ea52b8-4d94-41b7-b7f8-6e3870ee3aa0";
paths = (
{
closed = 1;
nodes = (
"489 460 LINE",
"489 562 OFFCURVE",
"701 863 QCURVE",
"747 968 OFFCURVE",
"747 1020 QCURVE",
"754 1020 LINE",
"871 791 OFFCURVE",
"871 684 QCURVE SMOOTH",
"871 544 OFFCURVE",
"713 460 QCURVE",
"713 456 LINE",
"718 456 LINE",
"879 469 OFFCURVE",
"1120 606 QCURVE",
"1191 638 OFFCURVE",
"1232 638 QCURVE SMOOTH",
"1343 638 OFFCURVE",
"1427 435 QCURVE",
"1439 391 OFFCURVE",
"1439 360 QCURVE SMOOTH",
"1439 319 LINE",
"1419 178 OFFCURVE",
"1335 178 QCURVE SMOOTH",
"1210 178 OFFCURVE",
"1129 452 QCURVE",
"1120 506 LINE",
"1008 422 OFFCURVE",
"891 377 QCURVE",
"816 360 OFFCURVE",
"816 353 QCURVE",
"962 268 OFFCURVE",
"962 169 QCURVE SMOOTH",
"962 145 LINE SMOOTH",
"962 24 OFFCURVE",
"814 0 QCURVE",
"792 0 LINE SMOOTH",
"640 0 OFFCURVE",
"518 195 QCURVE",
"493 253 OFFCURVE",
"477 340 QCURVE",
"432 340 OFFCURVE",
"323 390 QCURVE",
"323 386 LINE",
"340 338 OFFCURVE",
"340 270 QCURVE SMOOTH",
"340 100 OFFCURVE",
"199 17 QCURVE",
"179 4 OFFCURVE",
"124 4 QCURVE SMOOTH",
"69 4 OFFCURVE",
"0 49 QCURVE",
"0 54 LINE SMOOTH",
"0 62 OFFCURVE",
"79 71 QCURVE",
"155 100 OFFCURVE",
"182 165 QCURVE",
"199 220 OFFCURVE",
"199 266 QCURVE SMOOTH",
"199 360 OFFCURVE",
"129 597 QCURVE",
"129 633 OFFCURVE",
"249 743 QCURVE",
"257 743 LINE SMOOTH",
"270 743 OFFCURVE",
"287 630 QCURVE",
"323 527 OFFCURVE",
"419 482 QCURVE"
);
},
{
closed = 1;
nodes = (
"564 452 LINE",
"726 511 OFFCURVE",
"726 655 QCURVE",
"713 758 LINE",
"709 758 LINE",
"559 561 OFFCURVE",
"559 452 QCURVE"
);
},
{
closed = 1;
nodes = (
"581 232 OFFCURVE",
"739 137 QCURVE",
"766 129 OFFCURVE",
"788 129 QCURVE SMOOTH",
"825 129 OFFCURVE",
"825 174 QCURVE",
"788 328 OFFCURVE",
"581 328 QCURVE"
);
}
);
width = 1474;
}
);
unicode =  632;
},
{
glyphname = seen;
layers = (
{
layerId = "84ea52b8-4d94-41b7-b7f8-6e3870ee3aa0";
paths = (
{
closed = 1;
nodes = (
"489 460 LINE",
"489 562 OFFCURVE",
"701 863 QCURVE",
"747 968 OFFCURVE",
"747 1020 QCURVE",
"754 1020 LINE",
"871 791 OFFCURVE",
"871 684 QCURVE SMOOTH",
"871 544 OFFCURVE",
"713 460 QCURVE",
"713 456 LINE",
"718 456 LINE",
"879 469 OFFCURVE",
"1120 606 QCURVE",
"1191 638 OFFCURVE",
"1232 638 QCURVE SMOOTH",
"1343 638 OFFCURVE",
"1427 435 QCURVE",
"1439 391 OFFCURVE",
"1439 360 QCURVE SMOOTH",
"1439 319 LINE",
"1419 178 OFFCURVE",
"1335 178 QCURVE SMOOTH",
"1210 178 OFFCURVE",
"1129 452 QCURVE",
"1120 506 LINE",
"1008 422 OFFCURVE",
"891 377 QCURVE",
"816 360 OFFCURVE",
"816 353 QCURVE",
"962 268 OFFCURVE",
"962 169 QCURVE SMOOTH",
"962 145 LINE SMOOTH",
"962 24 OFFCURVE",
"814 0 QCURVE",
"792 0 LINE SMOOTH",
"640 0 OFFCURVE",
"518 195 QCURVE",
"493 253 OFFCURVE",
"477 340 QCURVE",
"432 340 OFFCURVE",
"323 390 QCURVE",
"323 386 LINE",
"340 338 OFFCURVE",
"340 270 QCURVE SMOOTH",
"340 100 OFFCURVE",
"199 17 QCURVE",
"179 4 OFFCURVE",
"124 4 QCURVE SMOOTH",
"69 4 OFFCURVE",
"0 49 QCURVE",
"0 54 LINE SMOOTH",
"0 62 OFFCURVE",
"79 71 QCURVE",
"155 100 OFFCURVE",
"182 165 QCURVE",
"199 220 OFFCURVE",
"199 266 QCURVE SMOOTH",
"199 360 OFFCURVE",
"129 597 QCURVE",
"129 633 OFFCURVE",
"249 743 QCURVE",
"257 743 LINE SMOOTH",
"270 743 OFFCURVE",
"287 630 QCURVE",
"323 527 OFFCURVE",
"419 482 QCURVE"
);
},
{
closed = 1;
nodes = (
"564 452 LINE",
"726 511 OFFCURVE",
"726 655 QCURVE",
"713 758 LINE",
"709 758 LINE",
"559 561 OFFCURVE",
"559 452 QCURVE"
);
},
{
closed = 1;
nodes = (
"581 232 OFFCURVE",
"739 137 QCURVE",
"766 129 OFFCURVE",
"788 129 QCURVE SMOOTH",
"825 129 OFFCURVE",
"825 174 QCURVE",
"788 328 OFFCURVE",
"581 328 QCURVE"
);
}
);
width = 1474;
}
);
unicode =  633;
},
{
glyphname = sheen;
layers = (
{
layerId = "84ea52b8-4d94-41b7-b7f8-6e3870ee3aa0";
paths = (
{
closed = 1;
nodes = (
"489 460 LINE",
"489 562 OFFCURVE",
"701 863 QCURVE",
"747 968 OFFCURVE",
"747 1020 QCURVE",
"754 1020 LINE",
"871 791 OFFCURVE",
"871 684 QCURVE SMOOTH",
"871 544 OFFCURVE",
"713 460 QCURVE",
"713 456 LINE",
"718 456 LINE",
"879 469 OFFCURVE",
"1120 606 QCURVE",
"1191 638 OFFCURVE",
"1232 638 QCURVE SMOOTH",
"1343 638 OFFCURVE",
"1427 435 QCURVE",
"1439 391 OFFCURVE",
"1439 360 QCURVE SMOOTH",
"1439 319 LINE",
"1419 178 OFFCURVE",
"1335 178 QCURVE SMOOTH",
"1210 178 OFFCURVE",
"1129 452 QCURVE",
"1120 506 LINE",
"1008 422 OFFCURVE",
"891 377 QCURVE",
"816 360 OFFCURVE",
"816 353 QCURVE",
"962 268 OFFCURVE",
"962 169 QCURVE SMOOTH",
"962 145 LINE SMOOTH",
"962 24 OFFCURVE",
"814 0 QCURVE",
"792 0 LINE SMOOTH",
"640 0 OFFCURVE",
"518 195 QCURVE",
"493 253 OFFCURVE",
"477 340 QCURVE",
"432 340 OFFCURVE",
"323 390 QCURVE",
"323 386 LINE",
"340 338 OFFCURVE",
"340 270 QCURVE SMOOTH",
"340 100 OFFCURVE",
"199 17 QCURVE",
"179 4 OFFCURVE",
"124 4 QCURVE SMOOTH",
"69 4 OFFCURVE",
"0 49 QCURVE",
"0 54 LINE SMOOTH",
"0 62 OFFCURVE",
"79 71 QCURVE",
"155 100 OFFCURVE",
"182 165 QCURVE",
"199 220 OFFCURVE",
"199 266 QCURVE SMOOTH",
"199 360 OFFCURVE",
"129 597 QCURVE",
"129 633 OFFCURVE",
"249 743 QCURVE",
"257 743 LINE SMOOTH",
"270 743 OFFCURVE",
"287 630 QCURVE",
"323 527 OFFCURVE",
"419 482 QCURVE"
);
},
{
closed = 1;
nodes = (
"564 452 LINE",
"726 511 OFFCURVE",
"726 655 QCURVE",
"713 758 LINE",
"709 758 LINE",
"559 561 OFFCURVE",
"559 452 QCURVE"
);
},
{
closed = 1;
nodes = (
"581 232 OFFCURVE",
"739 137 QCURVE",
"766 129 OFFCURVE",
"788 129 QCURVE SMOOTH",
"825 129 OFFCURVE",
"825 174 QCURVE",
"788 328 OFFCURVE",
"581 328 QCURVE"
);
}
);
width = 1474;
}
);
unicode =  634;
},
{
glyphname = suad;
layers = (
{
layerId = "84ea52b8-4d94-41b7-b7f8-6e3870ee3aa0";
paths = (
{
closed = 1;
nodes = (
"489 460 LINE",
"489 562 OFFCURVE",
"701 863 QCURVE",
"747 968 OFFCURVE",
"747 1020 QCURVE",
"754 1020 LINE",
"871 791 OFFCURVE",
"871 684 QCURVE SMOOTH",
"871 544 OFFCURVE",
"713 460 QCURVE",
"713 456 LINE",
"718 456 LINE",
"879 469 OFFCURVE",
"1120 606 QCURVE",
"1191 638 OFFCURVE",
"1232 638 QCURVE SMOOTH",
"1343 638 OFFCURVE",
"1427 435 QCURVE",
"1439 391 OFFCURVE",
"1439 360 QCURVE SMOOTH",
"1439 319 LINE",
"1419 178 OFFCURVE",
"1335 178 QCURVE SMOOTH",
"1210 178 OFFCURVE",
"1129 452 QCURVE",
"1120 506 LINE",
"1008 422 OFFCURVE",
"891 377 QCURVE",
"816 360 OFFCURVE",
"816 353 QCURVE",
"962 268 OFFCURVE",
"962 169 QCURVE SMOOTH",
"962 145 LINE SMOOTH",
"962 24 OFFCURVE",
"814 0 QCURVE",
"792 0 LINE SMOOTH",
"640 0 OFFCURVE",
"518 195 QCURVE",
"493 253 OFFCURVE",
"477 340 QCURVE",
"432 340 OFFCURVE",
"323 390 QCURVE",
"323 386 LINE",
"340 338 OFFCURVE",
"340 270 QCURVE SMOOTH",
"340 100 OFFCURVE",
"199 17 QCURVE",
"179 4 OFFCURVE",
"124 4 QCURVE SMOOTH",
"69 4 OFFCURVE",
"0 49 QCURVE",
"0 54 LINE SMOOTH",
"0 62 OFFCURVE",
"79 71 QCURVE",
"155 100 OFFCURVE",
"182 165 QCURVE",
"199 220 OFFCURVE",
"199 266 QCURVE SMOOTH",
"199 360 OFFCURVE",
"129 597 QCURVE",
"129 633 OFFCURVE",
"249 743 QCURVE",
"257 743 LINE SMOOTH",
"270 743 OFFCURVE",
"287 630 QCURVE",
"323 527 OFFCURVE",
"419 482 QCURVE"
);
},
{
closed = 1;
nodes = (
"564 452 LINE",
"726 511 OFFCURVE",
"726 655 QCURVE",
"713 758 LINE",
"709 758 LINE",
"559 561 OFFCURVE",
"559 452 QCURVE"
);
},
{
closed = 1;
nodes = (
"581 232 OFFCURVE",
"739 137 QCURVE",
"766 129 OFFCURVE",
"788 129 QCURVE SMOOTH",
"825 129 OFFCURVE",
"825 174 QCURVE",
"788 328 OFFCURVE",
"581 328 QCURVE"
);
}
);
width = 1474;
}
);
unicode =  635;
},
{
glyphname = zuad;
layers = (
{
layerId = "84ea52b8-4d94-41b7-b7f8-6e3870ee3aa0";
paths = (
{
closed = 1;
nodes = (
"489 460 LINE",
"489 562 OFFCURVE",
"701 863 QCURVE",
"747 968 OFFCURVE",
"747 1020 QCURVE",
"754 1020 LINE",
"871 791 OFFCURVE",
"871 684 QCURVE SMOOTH",
"871 544 OFFCURVE",
"713 460 QCURVE",
"713 456 LINE",
"718 456 LINE",
"879 469 OFFCURVE",
"1120 606 QCURVE",
"1191 638 OFFCURVE",
"1232 638 QCURVE SMOOTH",
"1343 638 OFFCURVE",
"1427 435 QCURVE",
"1439 391 OFFCURVE",
"1439 360 QCURVE SMOOTH",
"1439 319 LINE",
"1419 178 OFFCURVE",
"1335 178 QCURVE SMOOTH",
"1210 178 OFFCURVE",
"1129 452 QCURVE",
"1120 506 LINE",
"1008 422 OFFCURVE",
"891 377 QCURVE",
"816 360 OFFCURVE",
"816 353 QCURVE",
"962 268 OFFCURVE",
"962 169 QCURVE SMOOTH",
"962 145 LINE SMOOTH",
"962 24 OFFCURVE",
"814 0 QCURVE",
"792 0 LINE SMOOTH",
"640 0 OFFCURVE",
"518 195 QCURVE",
"493 253 OFFCURVE",
"477 340 QCURVE",
"432 340 OFFCURVE",
"323 390 QCURVE",
"323 386 LINE",
"340 338 OFFCURVE",
"340 270 QCURVE SMOOTH",
"340 100 OFFCURVE",
"199 17 QCURVE",
"179 4 OFFCURVE",
"124 4 QCURVE SMOOTH",
"69 4 OFFCURVE",
"0 49 QCURVE",
"0 54 LINE SMOOTH",
"0 62 OFFCURVE",
"79 71 QCURVE",
"155 100 OFFCURVE",
"182 165 QCURVE",
"199 220 OFFCURVE",
"199 266 QCURVE SMOOTH",
"199 360 OFFCURVE",
"129 597 QCURVE",
"129 633 OFFCURVE",
"249 743 QCURVE",
"257 743 LINE SMOOTH",
"270 743 OFFCURVE",
"287 630 QCURVE",
"323 527 OFFCURVE",
"419 482 QCURVE"
);
},
{
closed = 1;
nodes = (
"564 452 LINE",
"726 511 OFFCURVE",
"726 655 QCURVE",
"713 758 LINE",
"709 758 LINE",
"559 561 OFFCURVE",
"559 452 QCURVE"
);
},
{
closed = 1;
nodes = (
"581 232 OFFCURVE",
"739 137 QCURVE",
"766 129 OFFCURVE",
"788 129 QCURVE SMOOTH",
"825 129 OFFCURVE",
"825 174 QCURVE",
"788 328 OFFCURVE",
"581 328 QCURVE"
);
}
);
width = 1474;
}
);
unicode =  636;
},
{
glyphname = toa;
layers = (
{
layerId = "84ea52b8-4d94-41b7-b7f8-6e3870ee3aa0";
paths = (
{
closed = 1;
nodes = (
"489 460 LINE",
"489 562 OFFCURVE",
"701 863 QCURVE",
"747 968 OFFCURVE",
"747 1020 QCURVE",
"754 1020 LINE",
"871 791 OFFCURVE",
"871 684 QCURVE SMOOTH",
"871 544 OFFCURVE",
"713 460 QCURVE",
"713 456 LINE",
"718 456 LINE",
"879 469 OFFCURVE",
"1120 606 QCURVE",
"1191 638 OFFCURVE",
"1232 638 QCURVE SMOOTH",
"1343 638 OFFCURVE",
"1427 435 QCURVE",
"1439 391 OFFCURVE",
"1439 360 QCURVE SMOOTH",
"1439 319 LINE",
"1419 178 OFFCURVE",
"1335 178 QCURVE SMOOTH",
"1210 178 OFFCURVE",
"1129 452 QCURVE",
"1120 506 LINE",
"1008 422 OFFCURVE",
"891 377 QCURVE",
"816 360 OFFCURVE",
"816 353 QCURVE",
"962 268 OFFCURVE",
"962 169 QCURVE SMOOTH",
"962 145 LINE SMOOTH",
"962 24 OFFCURVE",
"814 0 QCURVE",
"792 0 LINE SMOOTH",
"640 0 OFFCURVE",
"518 195 QCURVE",
"493 253 OFFCURVE",
"477 340 QCURVE",
"432 340 OFFCURVE",
"323 390 QCURVE",
"323 386 LINE",
"340 338 OFFCURVE",
"340 270 QCURVE SMOOTH",
"340 100 OFFCURVE",
"199 17 QCURVE",
"179 4 OFFCURVE",
"124 4 QCURVE SMOOTH",
"69 4 OFFCURVE",
"0 49 QCURVE",
"0 54 LINE SMOOTH",
"0 62 OFFCURVE",
"79 71 QCURVE",
"155 100 OFFCURVE",
"182 165 QCURVE",
"199 220 OFFCURVE",
"199 266 QCURVE SMOOTH",
"199 360 OFFCURVE",
"129 597 QCURVE",
"129 633 OFFCURVE",
"249 743 QCURVE",
"257 743 LINE SMOOTH",
"270 743 OFFCURVE",
"287 630 QCURVE",
"323 527 OFFCURVE",
"419 482 QCURVE"
);
},
{
closed = 1;
nodes = (
"564 452 LINE",
"726 511 OFFCURVE",
"726 655 QCURVE",
"713 758 LINE",
"709 758 LINE",
"559 561 OFFCURVE",
"559 452 QCURVE"
);
},
{
closed = 1;
nodes = (
"581 232 OFFCURVE",
"739 137 QCURVE",
"766 129 OFFCURVE",
"788 129 QCURVE SMOOTH",
"825 129 OFFCURVE",
"825 174 QCURVE",
"788 328 OFFCURVE",
"581 328 QCURVE"
);
}
);
width = 1474;
}
);
unicode =  637;
},
{
glyphname = zoa;
layers = (
{
layerId = "84ea52b8-4d94-41b7-b7f8-6e3870ee3aa0";
paths = (
{
closed = 1;
nodes = (
"489 460 LINE",
"489 562 OFFCURVE",
"701 863 QCURVE",
"747 968 OFFCURVE",
"747 1020 QCURVE",
"754 1020 LINE",
"871 791 OFFCURVE",
"871 684 QCURVE SMOOTH",
"871 544 OFFCURVE",
"713 460 QCURVE",
"713 456 LINE",
"718 456 LINE",
"879 469 OFFCURVE",
"1120 606 QCURVE",
"1191 638 OFFCURVE",
"1232 638 QCURVE SMOOTH",
"1343 638 OFFCURVE",
"1427 435 QCURVE",
"1439 391 OFFCURVE",
"1439 360 QCURVE SMOOTH",
"1439 319 LINE",
"1419 178 OFFCURVE",
"1335 178 QCURVE SMOOTH",
"1210 178 OFFCURVE",
"1129 452 QCURVE",
"1120 506 LINE",
"1008 422 OFFCURVE",
"891 377 QCURVE",
"816 360 OFFCURVE",
"816 353 QCURVE",
"962 268 OFFCURVE",
"962 169 QCURVE SMOOTH",
"962 145 LINE SMOOTH",
"962 24 OFFCURVE",
"814 0 QCURVE",
"792 0 LINE SMOOTH",
"640 0 OFFCURVE",
"518 195 QCURVE",
"493 253 OFFCURVE",
"477 340 QCURVE",
"432 340 OFFCURVE",
"323 390 QCURVE",
"323 386 LINE",
"340 338 OFFCURVE",
"340 270 QCURVE SMOOTH",
"340 100 OFFCURVE",
"199 17 QCURVE",
"179 4 OFFCURVE",
"124 4 QCURVE SMOOTH",
"69 4 OFFCURVE",
"0 49 QCURVE",
"0 54 LINE SMOOTH",
"0 62 OFFCURVE",
"79 71 QCURVE",
"155 100 OFFCURVE",
"182 165 QCURVE",
"199 220 OFFCURVE",
"199 266 QCURVE SMOOTH",
"199 360 OFFCURVE",
"129 597 QCURVE",
"129 633 OFFCURVE",
"249 743 QCURVE",
"257 743 LINE SMOOTH",
"270 743 OFFCURVE",
"287 630 QCURVE",
"323 527 OFFCURVE",
"419 482 QCURVE"
);
},
{
closed = 1;
nodes = (
"564 452 LINE",
"726 511 OFFCURVE",
"726 655 QCURVE",
"713 758 LINE",
"709 758 LINE",
"559 561 OFFCURVE",
"559 452 QCURVE"
);
},
{
closed = 1;
nodes = (
"581 232 OFFCURVE",
"739 137 QCURVE",
"766 129 OFFCURVE",
"788 129 QCURVE SMOOTH",
"825 129 OFFCURVE",
"825 174 QCURVE",
"788 328 OFFCURVE",
"581 328 QCURVE"
);
}
);
width = 1474;
}
);
unicode =  638;
},
{
glyphname = ain;
layers = (
{
layerId = "84ea52b8-4d94-41b7-b7f8-6e3870ee3aa0";
paths = (
{
closed = 1;
nodes = (
"489 460 LINE",
"489 562 OFFCURVE",
"701 863 QCURVE",
"747 968 OFFCURVE",
"747 1020 QCURVE",
"754 1020 LINE",
"871 791 OFFCURVE",
"871 684 QCURVE SMOOTH",
"871 544 OFFCURVE",
"713 460 QCURVE",
"713 456 LINE",
"718 456 LINE",
"879 469 OFFCURVE",
"1120 606 QCURVE",
"1191 638 OFFCURVE",
"1232 638 QCURVE SMOOTH",
"1343 638 OFFCURVE",
"1427 435 QCURVE",
"1439 391 OFFCURVE",
"1439 360 QCURVE SMOOTH",
"1439 319 LINE",
"1419 178 OFFCURVE",
"1335 178 QCURVE SMOOTH",
"1210 178 OFFCURVE",
"1129 452 QCURVE",
"1120 506 LINE",
"1008 422 OFFCURVE",
"891 377 QCURVE",
"816 360 OFFCURVE",
"816 353 QCURVE",
"962 268 OFFCURVE",
"962 169 QCURVE SMOOTH",
"962 145 LINE SMOOTH",
"962 24 OFFCURVE",
"814 0 QCURVE",
"792 0 LINE SMOOTH",
"640 0 OFFCURVE",
"518 195 QCURVE",
"493 253 OFFCURVE",
"477 340 QCURVE",
"432 340 OFFCURVE",
"323 390 QCURVE",
"323 386 LINE",
"340 338 OFFCURVE",
"340 270 QCURVE SMOOTH",
"340 100 OFFCURVE",
"199 17 QCURVE",
"179 4 OFFCURVE",
"124 4 QCURVE SMOOTH",
"69 4 OFFCURVE",
"0 49 QCURVE",
"0 54 LINE SMOOTH",
"0 62 OFFCURVE",
"79 71 QCURVE",
"155 100 OFFCURVE",
"182 165 QCURVE",
"199 220 OFFCURVE",
"199 266 QCURVE SMOOTH",
"199 360 OFFCURVE",
"129 597 QCURVE",
"129 633 OFFCURVE",
"249 743 QCURVE",
"257 743 LINE SMOOTH",
"270 743 OFFCURVE",
"287 630 QCURVE",
"323 527 OFFCURVE",
"419 482 QCURVE"
);
},
{
closed = 1;
nodes = (
"564 452 LINE",
"726 511 OFFCURVE",
"726 655 QCURVE",
"713 758 LINE",
"709 758 LINE",
"559 561 OFFCURVE",
"559 452 QCURVE"
);
},
{
closed = 1;
nodes = (
"581 232 OFFCURVE",
"739 137 QCURVE",
"766 129 OFFCURVE",
"788 129 QCURVE SMOOTH",
"825 129 OFFCURVE",
"825 174 QCURVE",
"788 328 OFFCURVE",
"581 328 QCURVE"
);
}
);
width = 1474;
}
);
unicode =  639;
},
{
glyphname = ghain;
layers = (
{
layerId = "84ea52b8-4d94-41b7-b7f8-6e3870ee3aa0";
paths = (
{
closed = 1;
nodes = (
"489 460 LINE",
"489 562 OFFCURVE",
"701 863 QCURVE",
"747 968 OFFCURVE",
"747 1020 QCURVE",
"754 1020 LINE",
"871 791 OFFCURVE",
"871 684 QCURVE SMOOTH",
"871 544 OFFCURVE",
"713 460 QCURVE",
"713 456 LINE",
"718 456 LINE",
"879 469 OFFCURVE",
"1120 606 QCURVE",
"1191 638 OFFCURVE",
"1232 638 QCURVE SMOOTH",
"1343 638 OFFCURVE",
"1427 435 QCURVE",
"1439 391 OFFCURVE",
"1439 360 QCURVE SMOOTH",
"1439 319 LINE",
"1419 178 OFFCURVE",
"1335 178 QCURVE SMOOTH",
"1210 178 OFFCURVE",
"1129 452 QCURVE",
"1120 506 LINE",
"1008 422 OFFCURVE",
"891 377 QCURVE",
"816 360 OFFCURVE",
"816 353 QCURVE",
"962 268 OFFCURVE",
"962 169 QCURVE SMOOTH",
"962 145 LINE SMOOTH",
"962 24 OFFCURVE",
"814 0 QCURVE",
"792 0 LINE SMOOTH",
"640 0 OFFCURVE",
"518 195 QCURVE",
"493 253 OFFCURVE",
"477 340 QCURVE",
"432 340 OFFCURVE",
"323 390 QCURVE",
"323 386 LINE",
"340 338 OFFCURVE",
"340 270 QCURVE SMOOTH",
"340 100 OFFCURVE",
"199 17 QCURVE",
"179 4 OFFCURVE",
"124 4 QCURVE SMOOTH",
"69 4 OFFCURVE",
"0 49 QCURVE",
"0 54 LINE SMOOTH",
"0 62 OFFCURVE",
"79 71 QCURVE",
"155 100 OFFCURVE",
"182 165 QCURVE",
"199 220 OFFCURVE",
"199 266 QCURVE SMOOTH",
"199 360 OFFCURVE",
"129 597 QCURVE",
"129 633 OFFCURVE",
"249 743 QCURVE",
"257 743 LINE SMOOTH",
"270 743 OFFCURVE",
"287 630 QCURVE",
"323 527 OFFCURVE",
"419 482 QCURVE"
);
},
{
closed = 1;
nodes = (
"564 452 LINE",
"726 511 OFFCURVE",
"726 655 QCURVE",
"713 758 LINE",
"709 758 LINE",
"559 561 OFFCURVE",
"559 452 QCURVE"
);
},
{
closed = 1;
nodes = (
"581 232 OFFCURVE",
"739 137 QCURVE",
"766 129 OFFCURVE",
"788 129 QCURVE SMOOTH",
"825 129 OFFCURVE",
"825 174 QCURVE",
"788 328 OFFCURVE",
"581 328 QCURVE"
);
}
);
width = 1474;
}
);
unicode =  63a;
},
{
glyphname = fay;
layers = (
{
layerId = "84ea52b8-4d94-41b7-b7f8-6e3870ee3aa0";
paths = (
{
closed = 1;
nodes = (
"489 460 LINE",
"489 562 OFFCURVE",
"701 863 QCURVE",
"747 968 OFFCURVE",
"747 1020 QCURVE",
"754 1020 LINE",
"871 791 OFFCURVE",
"871 684 QCURVE SMOOTH",
"871 544 OFFCURVE",
"713 460 QCURVE",
"713 456 LINE",
"718 456 LINE",
"879 469 OFFCURVE",
"1120 606 QCURVE",
"1191 638 OFFCURVE",
"1232 638 QCURVE SMOOTH",
"1343 638 OFFCURVE",
"1427 435 QCURVE",
"1439 391 OFFCURVE",
"1439 360 QCURVE SMOOTH",
"1439 319 LINE",
"1419 178 OFFCURVE",
"1335 178 QCURVE SMOOTH",
"1210 178 OFFCURVE",
"1129 452 QCURVE",
"1120 506 LINE",
"1008 422 OFFCURVE",
"891 377 QCURVE",
"816 360 OFFCURVE",
"816 353 QCURVE",
"962 268 OFFCURVE",
"962 169 QCURVE SMOOTH",
"962 145 LINE SMOOTH",
"962 24 OFFCURVE",
"814 0 QCURVE",
"792 0 LINE SMOOTH",
"640 0 OFFCURVE",
"518 195 QCURVE",
"493 253 OFFCURVE",
"477 340 QCURVE",
"432 340 OFFCURVE",
"323 390 QCURVE",
"323 386 LINE",
"340 338 OFFCURVE",
"340 270 QCURVE SMOOTH",
"340 100 OFFCURVE",
"199 17 QCURVE",
"179 4 OFFCURVE",
"124 4 QCURVE SMOOTH",
"69 4 OFFCURVE",
"0 49 QCURVE",
"0 54 LINE SMOOTH",
"0 62 OFFCURVE",
"79 71 QCURVE",
"155 100 OFFCURVE",
"182 165 QCURVE",
"199 220 OFFCURVE",
"199 266 QCURVE SMOOTH",
"199 360 OFFCURVE",
"129 597 QCURVE",
"129 633 OFFCURVE",
"249 743 QCURVE",
"257 743 LINE SMOOTH",
"270 743 OFFCURVE",
"287 630 QCURVE",
"323 527 OFFCURVE",
"419 482 QCURVE"
);
},
{
closed = 1;
nodes = (
"564 452 LINE",
"726 511 OFFCURVE",
"726 655 QCURVE",
"713 758 LINE",
"709 758 LINE",
"559 561 OFFCURVE",
"559 452 QCURVE"
);
},
{
closed = 1;
nodes = (
"581 232 OFFCURVE",
"739 137 QCURVE",
"766 129 OFFCURVE",
"788 129 QCURVE SMOOTH",
"825 129 OFFCURVE",
"825 174 QCURVE",
"788 328 OFFCURVE",
"581 328 QCURVE"
);
}
);
width = 1474;
}
);
unicode =  641;
},
{
glyphname = qaf;
layers = (
{
layerId = "84ea52b8-4d94-41b7-b7f8-6e3870ee3aa0";
paths = (
{
closed = 1;
nodes = (
"489 460 LINE",
"489 562 OFFCURVE",
"701 863 QCURVE",
"747 968 OFFCURVE",
"747 1020 QCURVE",
"754 1020 LINE",
"871 791 OFFCURVE",
"871 684 QCURVE SMOOTH",
"871 544 OFFCURVE",
"713 460 QCURVE",
"713 456 LINE",
"718 456 LINE",
"879 469 OFFCURVE",
"1120 606 QCURVE",
"1191 638 OFFCURVE",
"1232 638 QCURVE SMOOTH",
"1343 638 OFFCURVE",
"1427 435 QCURVE",
"1439 391 OFFCURVE",
"1439 360 QCURVE SMOOTH",
"1439 319 LINE",
"1419 178 OFFCURVE",
"1335 178 QCURVE SMOOTH",
"1210 178 OFFCURVE",
"1129 452 QCURVE",
"1120 506 LINE",
"1008 422 OFFCURVE",
"891 377 QCURVE",
"816 360 OFFCURVE",
"816 353 QCURVE",
"962 268 OFFCURVE",
"962 169 QCURVE SMOOTH",
"962 145 LINE SMOOTH",
"962 24 OFFCURVE",
"814 0 QCURVE",
"792 0 LINE SMOOTH",
"640 0 OFFCURVE",
"518 195 QCURVE",
"493 253 OFFCURVE",
"477 340 QCURVE",
"432 340 OFFCURVE",
"323 390 QCURVE",
"323 386 LINE",
"340 338 OFFCURVE",
"340 270 QCURVE SMOOTH",
"340 100 OFFCURVE",
"199 17 QCURVE",
"179 4 OFFCURVE",
"124 4 QCURVE SMOOTH",
"69 4 OFFCURVE",
"0 49 QCURVE",
"0 54 LINE SMOOTH",
"0 62 OFFCURVE",
"79 71 QCURVE",
"155 100 OFFCURVE",
"182 165 QCURVE",
"199 220 OFFCURVE",
"199 266 QCURVE SMOOTH",
"199 360 OFFCURVE",
"129 597 QCURVE",
"129 633 OFFCURVE",
"249 743 QCURVE",
"257 743 LINE SMOOTH",
"270 743 OFFCURVE",
"287 630 QCURVE",
"323 527 OFFCURVE",
"419 482 QCURVE"
);
},
{
closed = 1;
nodes = (
"564 452 LINE",
"726 511 OFFCURVE",
"726 655 QCURVE",
"713 758 LINE",
"709 758 LINE",
"559 561 OFFCURVE",
"559 452 QCURVE"
);
},
{
closed = 1;
nodes = (
"581 232 OFFCURVE",
"739 137 QCURVE",
"766 129 OFFCURVE",
"788 129 QCURVE SMOOTH",
"825 129 OFFCURVE",
"825 174 QCURVE",
"788 328 OFFCURVE",
"581 328 QCURVE"
);
}
);
width = 1474;
}
);
unicode =  642;
},
{
glyphname = laam;
layers = (
{
layerId = "84ea52b8-4d94-41b7-b7f8-6e3870ee3aa0";
paths = (
{
closed = 1;
nodes = (
"489 460 LINE",
"489 562 OFFCURVE",
"701 863 QCURVE",
"747 968 OFFCURVE",
"747 1020 QCURVE",
"754 1020 LINE",
"871 791 OFFCURVE",
"871 684 QCURVE SMOOTH",
"871 544 OFFCURVE",
"713 460 QCURVE",
"713 456 LINE",
"718 456 LINE",
"879 469 OFFCURVE",
"1120 606 QCURVE",
"1191 638 OFFCURVE",
"1232 638 QCURVE SMOOTH",
"1343 638 OFFCURVE",
"1427 435 QCURVE",
"1439 391 OFFCURVE",
"1439 360 QCURVE SMOOTH",
"1439 319 LINE",
"1419 178 OFFCURVE",
"1335 178 QCURVE SMOOTH",
"1210 178 OFFCURVE",
"1129 452 QCURVE",
"1120 506 LINE",
"1008 422 OFFCURVE",
"891 377 QCURVE",
"816 360 OFFCURVE",
"816 353 QCURVE",
"962 268 OFFCURVE",
"962 169 QCURVE SMOOTH",
"962 145 LINE SMOOTH",
"962 24 OFFCURVE",
"814 0 QCURVE",
"792 0 LINE SMOOTH",
"640 0 OFFCURVE",
"518 195 QCURVE",
"493 253 OFFCURVE",
"477 340 QCURVE",
"432 340 OFFCURVE",
"323 390 QCURVE",
"323 386 LINE",
"340 338 OFFCURVE",
"340 270 QCURVE SMOOTH",
"340 100 OFFCURVE",
"199 17 QCURVE",
"179 4 OFFCURVE",
"124 4 QCURVE SMOOTH",
"69 4 OFFCURVE",
"0 49 QCURVE",
"0 54 LINE SMOOTH",
"0 62 OFFCURVE",
"79 71 QCURVE",
"155 100 OFFCURVE",
"182 165 QCURVE",
"199 220 OFFCURVE",
"199 266 QCURVE SMOOTH",
"199 360 OFFCURVE",
"129 597 QCURVE",
"129 633 OFFCURVE",
"249 743 QCURVE",
"257 743 LINE SMOOTH",
"270 743 OFFCURVE",
"287 630 QCURVE",
"323 527 OFFCURVE",
"419 482 QCURVE"
);
},
{
closed = 1;
nodes = (
"564 452 LINE",
"726 511 OFFCURVE",
"726 655 QCURVE",
"713 758 LINE",
"709 758 LINE",
"559 561 OFFCURVE",
"559 452 QCURVE"
);
},
{
closed = 1;
nodes = (
"581 232 OFFCURVE",
"739 137 QCURVE",
"766 129 OFFCURVE",
"788 129 QCURVE SMOOTH",
"825 129 OFFCURVE",
"825 174 QCURVE",
"788 328 OFFCURVE",
"581 328 QCURVE"
);
}
);
width = 1474;
}
);
unicode =  644;
},
{
glyphname = meem;
layers = (
{
layerId = "84ea52b8-4d94-41b7-b7f8-6e3870ee3aa0";
paths = (
{
closed = 1;
nodes = (
"489 460 LINE",
"489 562 OFFCURVE",
"701 863 QCURVE",
"747 968 OFFCURVE",
"747 1020 QCURVE",
"754 1020 LINE",
"871 791 OFFCURVE",
"871 684 QCURVE SMOOTH",
"871 544 OFFCURVE",
"713 460 QCURVE",
"713 456 LINE",
"718 456 LINE",
"879 469 OFFCURVE",
"1120 606 QCURVE",
"1191 638 OFFCURVE",
"1232 638 QCURVE SMOOTH",
"1343 638 OFFCURVE",
"1427 435 QCURVE",
"1439 391 OFFCURVE",
"1439 360 QCURVE SMOOTH",
"1439 319 LINE",
"1419 178 OFFCURVE",
"1335 178 QCURVE SMOOTH",
"1210 178 OFFCURVE",
"1129 452 QCURVE",
"1120 506 LINE",
"1008 422 OFFCURVE",
"891 377 QCURVE",
"816 360 OFFCURVE",
"816 353 QCURVE",
"962 268 OFFCURVE",
"962 169 QCURVE SMOOTH",
"962 145 LINE SMOOTH",
"962 24 OFFCURVE",
"814 0 QCURVE",
"792 0 LINE SMOOTH",
"640 0 OFFCURVE",
"518 195 QCURVE",
"493 253 OFFCURVE",
"477 340 QCURVE",
"432 340 OFFCURVE",
"323 390 QCURVE",
"323 386 LINE",
"340 338 OFFCURVE",
"340 270 QCURVE SMOOTH",
"340 100 OFFCURVE",
"199 17 QCURVE",
"179 4 OFFCURVE",
"124 4 QCURVE SMOOTH",
"69 4 OFFCURVE",
"0 49 QCURVE",
"0 54 LINE SMOOTH",
"0 62 OFFCURVE",
"79 71 QCURVE",
"155 100 OFFCURVE",
"182 165 QCURVE",
"199 220 OFFCURVE",
"199 266 QCURVE SMOOTH",
"199 360 OFFCURVE",
"129 597 QCURVE",
"129 633 OFFCURVE",
"249 743 QCURVE",
"257 743 LINE SMOOTH",
"270 743 OFFCURVE",
"287 630 QCURVE",
"323 527 OFFCURVE",
"419 482 QCURVE"
);
},
{
closed = 1;
nodes = (
"564 452 LINE",
"726 511 OFFCURVE",
"726 655 QCURVE",
"713 758 LINE",
"709 758 LINE",
"559 561 OFFCURVE",
"559 452 QCURVE"
);
},
{
closed = 1;
nodes = (
"581 232 OFFCURVE",
"739 137 QCURVE",
"766 129 OFFCURVE",
"788 129 QCURVE SMOOTH",
"825 129 OFFCURVE",
"825 174 QCURVE",
"788 328 OFFCURVE",
"581 328 QCURVE"
);
}
);
width = 1474;
}
);
unicode =  645;
},
{
glyphname = noon;
layers = (
{
layerId = "84ea52b8-4d94-41b7-b7f8-6e3870ee3aa0";
paths = (
{
closed = 1;
nodes = (
"489 460 LINE",
"489 562 OFFCURVE",
"701 863 QCURVE",
"747 968 OFFCURVE",
"747 1020 QCURVE",
"754 1020 LINE",
"871 791 OFFCURVE",
"871 684 QCURVE SMOOTH",
"871 544 OFFCURVE",
"713 460 QCURVE",
"713 456 LINE",
"718 456 LINE",
"879 469 OFFCURVE",
"1120 606 QCURVE",
"1191 638 OFFCURVE",
"1232 638 QCURVE SMOOTH",
"1343 638 OFFCURVE",
"1427 435 QCURVE",
"1439 391 OFFCURVE",
"1439 360 QCURVE SMOOTH",
"1439 319 LINE",
"1419 178 OFFCURVE",
"1335 178 QCURVE SMOOTH",
"1210 178 OFFCURVE",
"1129 452 QCURVE",
"1120 506 LINE",
"1008 422 OFFCURVE",
"891 377 QCURVE",
"816 360 OFFCURVE",
"816 353 QCURVE",
"962 268 OFFCURVE",
"962 169 QCURVE SMOOTH",
"962 145 LINE SMOOTH",
"962 24 OFFCURVE",
"814 0 QCURVE",
"792 0 LINE SMOOTH",
"640 0 OFFCURVE",
"518 195 QCURVE",
"493 253 OFFCURVE",
"477 340 QCURVE",
"432 340 OFFCURVE",
"323 390 QCURVE",
"323 386 LINE",
"340 338 OFFCURVE",
"340 270 QCURVE SMOOTH",
"340 100 OFFCURVE",
"199 17 QCURVE",
"179 4 OFFCURVE",
"124 4 QCURVE SMOOTH",
"69 4 OFFCURVE",
"0 49 QCURVE",
"0 54 LINE SMOOTH",
"0 62 OFFCURVE",
"79 71 QCURVE",
"155 100 OFFCURVE",
"182 165 QCURVE",
"199 220 OFFCURVE",
"199 266 QCURVE SMOOTH",
"199 360 OFFCURVE",
"129 597 QCURVE",
"129 633 OFFCURVE",
"249 743 QCURVE",
"257 743 LINE SMOOTH",
"270 743 OFFCURVE",
"287 630 QCURVE",
"323 527 OFFCURVE",
"419 482 QCURVE"
);
},
{
closed = 1;
nodes = (
"564 452 LINE",
"726 511 OFFCURVE",
"726 655 QCURVE",
"713 758 LINE",
"709 758 LINE",
"559 561 OFFCURVE",
"559 452 QCURVE"
);
},
{
closed = 1;
nodes = (
"581 232 OFFCURVE",
"739 137 QCURVE",
"766 129 OFFCURVE",
"788 129 QCURVE SMOOTH",
"825 129 OFFCURVE",
"825 174 QCURVE",
"788 328 OFFCURVE",
"581 328 QCURVE"
);
}
);
width = 1474;
}
);
unicode =  646;
},
{
glyphname = goalhay;
layers = (
{
layerId = "84ea52b8-4d94-41b7-b7f8-6e3870ee3aa0";
paths = (
{
closed = 1;
nodes = (
"489 460 LINE",
"489 562 OFFCURVE",
"701 863 QCURVE",
"747 968 OFFCURVE",
"747 1020 QCURVE",
"754 1020 LINE",
"871 791 OFFCURVE",
"871 684 QCURVE SMOOTH",
"871 544 OFFCURVE",
"713 460 QCURVE",
"713 456 LINE",
"718 456 LINE",
"879 469 OFFCURVE",
"1120 606 QCURVE",
"1191 638 OFFCURVE",
"1232 638 QCURVE SMOOTH",
"1343 638 OFFCURVE",
"1427 435 QCURVE",
"1439 391 OFFCURVE",
"1439 360 QCURVE SMOOTH",
"1439 319 LINE",
"1419 178 OFFCURVE",
"1335 178 QCURVE SMOOTH",
"1210 178 OFFCURVE",
"1129 452 QCURVE",
"1120 506 LINE",
"1008 422 OFFCURVE",
"891 377 QCURVE",
"816 360 OFFCURVE",
"816 353 QCURVE",
"962 268 OFFCURVE",
"962 169 QCURVE SMOOTH",
"962 145 LINE SMOOTH",
"962 24 OFFCURVE",
"814 0 QCURVE",
"792 0 LINE SMOOTH",
"640 0 OFFCURVE",
"518 195 QCURVE",
"493 253 OFFCURVE",
"477 340 QCURVE",
"432 340 OFFCURVE",
"323 390 QCURVE",
"323 386 LINE",
"340 338 OFFCURVE",
"340 270 QCURVE SMOOTH",
"340 100 OFFCURVE",
"199 17 QCURVE",
"179 4 OFFCURVE",
"124 4 QCURVE SMOOTH",
"69 4 OFFCURVE",
"0 49 QCURVE",
"0 54 LINE SMOOTH",
"0 62 OFFCURVE",
"79 71 QCURVE",
"155 100 OFFCURVE",
"182 165 QCURVE",
"199 220 OFFCURVE",
"199 266 QCURVE SMOOTH",
"199 360 OFFCURVE",
"129 597 QCURVE",
"129 633 OFFCURVE",
"249 743 QCURVE",
"257 743 LINE SMOOTH",
"270 743 OFFCURVE",
"287 630 QCURVE",
"323 527 OFFCURVE",
"419 482 QCURVE"
);
},
{
closed = 1;
nodes = (
"564 452 LINE",
"726 511 OFFCURVE",
"726 655 QCURVE",
"713 758 LINE",
"709 758 LINE",
"559 561 OFFCURVE",
"559 452 QCURVE"
);
},
{
closed = 1;
nodes = (
"581 232 OFFCURVE",
"739 137 QCURVE",
"766 129 OFFCURVE",
"788 129 QCURVE SMOOTH",
"825 129 OFFCURVE",
"825 174 QCURVE",
"788 328 OFFCURVE",
"581 328 QCURVE"
);
}
);
width = 1474;
}
);
unicode =  647;
},
{
glyphname = wao;
layers = (
{
layerId = "84ea52b8-4d94-41b7-b7f8-6e3870ee3aa0";
paths = (
{
closed = 1;
nodes = (
"489 460 LINE",
"489 562 OFFCURVE",
"701 863 QCURVE",
"747 968 OFFCURVE",
"747 1020 QCURVE",
"754 1020 LINE",
"871 791 OFFCURVE",
"871 684 QCURVE SMOOTH",
"871 544 OFFCURVE",
"713 460 QCURVE",
"713 456 LINE",
"718 456 LINE",
"879 469 OFFCURVE",
"1120 606 QCURVE",
"1191 638 OFFCURVE",
"1232 638 QCURVE SMOOTH",
"1343 638 OFFCURVE",
"1427 435 QCURVE",
"1439 391 OFFCURVE",
"1439 360 QCURVE SMOOTH",
"1439 319 LINE",
"1419 178 OFFCURVE",
"1335 178 QCURVE SMOOTH",
"1210 178 OFFCURVE",
"1129 452 QCURVE",
"1120 506 LINE",
"1008 422 OFFCURVE",
"891 377 QCURVE",
"816 360 OFFCURVE",
"816 353 QCURVE",
"962 268 OFFCURVE",
"962 169 QCURVE SMOOTH",
"962 145 LINE SMOOTH",
"962 24 OFFCURVE",
"814 0 QCURVE",
"792 0 LINE SMOOTH",
"640 0 OFFCURVE",
"518 195 QCURVE",
"493 253 OFFCURVE",
"477 340 QCURVE",
"432 340 OFFCURVE",
"323 390 QCURVE",
"323 386 LINE",
"340 338 OFFCURVE",
"340 270 QCURVE SMOOTH",
"340 100 OFFCURVE",
"199 17 QCURVE",
"179 4 OFFCURVE",
"124 4 QCURVE SMOOTH",
"69 4 OFFCURVE",
"0 49 QCURVE",
"0 54 LINE SMOOTH",
"0 62 OFFCURVE",
"79 71 QCURVE",
"155 100 OFFCURVE",
"182 165 QCURVE",
"199 220 OFFCURVE",
"199 266 QCURVE SMOOTH",
"199 360 OFFCURVE",
"129 597 QCURVE",
"129 633 OFFCURVE",
"249 743 QCURVE",
"257 743 LINE SMOOTH",
"270 743 OFFCURVE",
"287 630 QCURVE",
"323 527 OFFCURVE",
"419 482 QCURVE"
);
},
{
closed = 1;
nodes = (
"564 452 LINE",
"726 511 OFFCURVE",
"726 655 QCURVE",
"713 758 LINE",
"709 758 LINE",
"559 561 OFFCURVE",
"559 452 QCURVE"
);
},
{
closed = 1;
nodes = (
"581 232 OFFCURVE",
"739 137 QCURVE",
"766 129 OFFCURVE",
"788 129 QCURVE SMOOTH",
"825 129 OFFCURVE",
"825 174 QCURVE",
"788 328 OFFCURVE",
"581 328 QCURVE"
);
}
);
width = 1474;
}
);
unicode =  648;
},
{
glyphname = yeh;
layers = (
{
layerId = "84ea52b8-4d94-41b7-b7f8-6e3870ee3aa0";
paths = (
{
closed = 1;
nodes = (
"489 460 LINE",
"489 562 OFFCURVE",
"701 863 QCURVE",
"747 968 OFFCURVE",
"747 1020 QCURVE",
"754 1020 LINE",
"871 791 OFFCURVE",
"871 684 QCURVE SMOOTH",
"871 544 OFFCURVE",
"713 460 QCURVE",
"713 456 LINE",
"718 456 LINE",
"879 469 OFFCURVE",
"1120 606 QCURVE",
"1191 638 OFFCURVE",
"1232 638 QCURVE SMOOTH",
"1343 638 OFFCURVE",
"1427 435 QCURVE",
"1439 391 OFFCURVE",
"1439 360 QCURVE SMOOTH",
"1439 319 LINE",
"1419 178 OFFCURVE",
"1335 178 QCURVE SMOOTH",
"1210 178 OFFCURVE",
"1129 452 QCURVE",
"1120 506 LINE",
"1008 422 OFFCURVE",
"891 377 QCURVE",
"816 360 OFFCURVE",
"816 353 QCURVE",
"962 268 OFFCURVE",
"962 169 QCURVE SMOOTH",
"962 145 LINE SMOOTH",
"962 24 OFFCURVE",
"814 0 QCURVE",
"792 0 LINE SMOOTH",
"640 0 OFFCURVE",
"518 195 QCURVE",
"493 253 OFFCURVE",
"477 340 QCURVE",
"432 340 OFFCURVE",
"323 390 QCURVE",
"323 386 LINE",
"340 338 OFFCURVE",
"340 270 QCURVE SMOOTH",
"340 100 OFFCURVE",
"199 17 QCURVE",
"179 4 OFFCURVE",
"124 4 QCURVE SMOOTH",
"69 4 OFFCURVE",
"0 49 QCURVE",
"0 54 LINE SMOOTH",
"0 62 OFFCURVE",
"79 71 QCURVE",
"155 100 OFFCURVE",
"182 165 QCURVE",
"199 220 OFFCURVE",
"199 266 QCURVE SMOOTH",
"199 360 OFFCURVE",
"129 597 QCURVE",
"129 633 OFFCURVE",
"249 743 QCURVE",
"257 743 LINE SMOOTH",
"270 743 OFFCURVE",
"287 630 QCURVE",
"323 527 OFFCURVE",
"419 482 QCURVE"
);
},
{
closed = 1;
nodes = (
"564 452 LINE",
"726 511 OFFCURVE",
"726 655 QCURVE",
"713 758 LINE",
"709 758 LINE",
"559 561 OFFCURVE",
"559 452 QCURVE"
);
},
{
closed = 1;
nodes = (
"581 232 OFFCURVE",
"739 137 QCURVE",
"766 129 OFFCURVE",
"788 129 QCURVE SMOOTH",
"825 129 OFFCURVE",
"825 174 QCURVE",
"788 328 OFFCURVE",
"581 328 QCURVE"
);
}
);
width = 1474;
}
);
unicode =  64a;
},
{
glyphname = ttey;
layers = (
{
layerId = "84ea52b8-4d94-41b7-b7f8-6e3870ee3aa0";
paths = (
{
closed = 1;
nodes = (
"489 460 LINE",
"489 562 OFFCURVE",
"701 863 QCURVE",
"747 968 OFFCURVE",
"747 1020 QCURVE",
"754 1020 LINE",
"871 791 OFFCURVE",
"871 684 QCURVE SMOOTH",
"871 544 OFFCURVE",
"713 460 QCURVE",
"713 456 LINE",
"718 456 LINE",
"879 469 OFFCURVE",
"1120 606 QCURVE",
"1191 638 OFFCURVE",
"1232 638 QCURVE SMOOTH",
"1343 638 OFFCURVE",
"1427 435 QCURVE",
"1439 391 OFFCURVE",
"1439 360 QCURVE SMOOTH",
"1439 319 LINE",
"1419 178 OFFCURVE",
"1335 178 QCURVE SMOOTH",
"1210 178 OFFCURVE",
"1129 452 QCURVE",
"1120 506 LINE",
"1008 422 OFFCURVE",
"891 377 QCURVE",
"816 360 OFFCURVE",
"816 353 QCURVE",
"962 268 OFFCURVE",
"962 169 QCURVE SMOOTH",
"962 145 LINE SMOOTH",
"962 24 OFFCURVE",
"814 0 QCURVE",
"792 0 LINE SMOOTH",
"640 0 OFFCURVE",
"518 195 QCURVE",
"493 253 OFFCURVE",
"477 340 QCURVE",
"432 340 OFFCURVE",
"323 390 QCURVE",
"323 386 LINE",
"340 338 OFFCURVE",
"340 270 QCURVE SMOOTH",
"340 100 OFFCURVE",
"199 17 QCURVE",
"179 4 OFFCURVE",
"124 4 QCURVE SMOOTH",
"69 4 OFFCURVE",
"0 49 QCURVE",
"0 54 LINE SMOOTH",
"0 62 OFFCURVE",
"79 71 QCURVE",
"155 100 OFFCURVE",
"182 165 QCURVE",
"199 220 OFFCURVE",
"199 266 QCURVE SMOOTH",
"199 360 OFFCURVE",
"129 597 QCURVE",
"129 633 OFFCURVE",
"249 743 QCURVE",
"257 743 LINE SMOOTH",
"270 743 OFFCURVE",
"287 630 QCURVE",
"323 527 OFFCURVE",
"419 482 QCURVE"
);
},
{
closed = 1;
nodes = (
"564 452 LINE",
"726 511 OFFCURVE",
"726 655 QCURVE",
"713 758 LINE",
"709 758 LINE",
"559 561 OFFCURVE",
"559 452 QCURVE"
);
},
{
closed = 1;
nodes = (
"581 232 OFFCURVE",
"739 137 QCURVE",
"766 129 OFFCURVE",
"788 129 QCURVE SMOOTH",
"825 129 OFFCURVE",
"825 174 QCURVE",
"788 328 OFFCURVE",
"581 328 QCURVE"
);
}
);
width = 1474;
}
);
unicode =  679;
},
{
glyphname = pay;
layers = (
{
layerId = "84ea52b8-4d94-41b7-b7f8-6e3870ee3aa0";
paths = (
{
closed = 1;
nodes = (
"489 460 LINE",
"489 562 OFFCURVE",
"701 863 QCURVE",
"747 968 OFFCURVE",
"747 1020 QCURVE",
"754 1020 LINE",
"871 791 OFFCURVE",
"871 684 QCURVE SMOOTH",
"871 544 OFFCURVE",
"713 460 QCURVE",
"713 456 LINE",
"718 456 LINE",
"879 469 OFFCURVE",
"1120 606 QCURVE",
"1191 638 OFFCURVE",
"1232 638 QCURVE SMOOTH",
"1343 638 OFFCURVE",
"1427 435 QCURVE",
"1439 391 OFFCURVE",
"1439 360 QCURVE SMOOTH",
"1439 319 LINE",
"1419 178 OFFCURVE",
"1335 178 QCURVE SMOOTH",
"1210 178 OFFCURVE",
"1129 452 QCURVE",
"1120 506 LINE",
"1008 422 OFFCURVE",
"891 377 QCURVE",
"816 360 OFFCURVE",
"816 353 QCURVE",
"962 268 OFFCURVE",
"962 169 QCURVE SMOOTH",
"962 145 LINE SMOOTH",
"962 24 OFFCURVE",
"814 0 QCURVE",
"792 0 LINE SMOOTH",
"640 0 OFFCURVE",
"518 195 QCURVE",
"493 253 OFFCURVE",
"477 340 QCURVE",
"432 340 OFFCURVE",
"323 390 QCURVE",
"323 386 LINE",
"340 338 OFFCURVE",
"340 270 QCURVE SMOOTH",
"340 100 OFFCURVE",
"199 17 QCURVE",
"179 4 OFFCURVE",
"124 4 QCURVE SMOOTH",
"69 4 OFFCURVE",
"0 49 QCURVE",
"0 54 LINE SMOOTH",
"0 62 OFFCURVE",
"79 71 QCURVE",
"155 100 OFFCURVE",
"182 165 QCURVE",
"199 220 OFFCURVE",
"199 266 QCURVE SMOOTH",
"199 360 OFFCURVE",
"129 597 QCURVE",
"129 633 OFFCURVE",
"249 743 QCURVE",
"257 743 LINE SMOOTH",
"270 743 OFFCURVE",
"287 630 QCURVE",
"323 527 OFFCURVE",
"419 482 QCURVE"
);
},
{
closed = 1;
nodes = (
"564 452 LINE",
"726 511 OFFCURVE",
"726 655 QCURVE",
"713 758 LINE",
"709 758 LINE",
"559 561 OFFCURVE",
"559 452 QCURVE"
);
},
{
closed = 1;
nodes = (
"581 232 OFFCURVE",
"739 137 QCURVE",
"766 129 OFFCURVE",
"788 129 QCURVE SMOOTH",
"825 129 OFFCURVE",
"825 174 QCURVE",
"788 328 OFFCURVE",
"581 328 QCURVE"
);
}
);
width = 1474;
}
);
unicode =  67e;
},
{
glyphname = chay;
layers = (
{
layerId = "84ea52b8-4d94-41b7-b7f8-6e3870ee3aa0";
paths = (
{
closed = 1;
nodes = (
"489 460 LINE",
"489 562 OFFCURVE",
"701 863 QCURVE",
"747 968 OFFCURVE",
"747 1020 QCURVE",
"754 1020 LINE",
"871 791 OFFCURVE",
"871 684 QCURVE SMOOTH",
"871 544 OFFCURVE",
"713 460 QCURVE",
"713 456 LINE",
"718 456 LINE",
"879 469 OFFCURVE",
"1120 606 QCURVE",
"1191 638 OFFCURVE",
"1232 638 QCURVE SMOOTH",
"1343 638 OFFCURVE",
"1427 435 QCURVE",
"1439 391 OFFCURVE",
"1439 360 QCURVE SMOOTH",
"1439 319 LINE",
"1419 178 OFFCURVE",
"1335 178 QCURVE SMOOTH",
"1210 178 OFFCURVE",
"1129 452 QCURVE",
"1120 506 LINE",
"1008 422 OFFCURVE",
"891 377 QCURVE",
"816 360 OFFCURVE",
"816 353 QCURVE",
"962 268 OFFCURVE",
"962 169 QCURVE SMOOTH",
"962 145 LINE SMOOTH",
"962 24 OFFCURVE",
"814 0 QCURVE",
"792 0 LINE SMOOTH",
"640 0 OFFCURVE",
"518 195 QCURVE",
"493 253 OFFCURVE",
"477 340 QCURVE",
"432 340 OFFCURVE",
"323 390 QCURVE",
"323 386 LINE",
"340 338 OFFCURVE",
"340 270 QCURVE SMOOTH",
"340 100 OFFCURVE",
"199 17 QCURVE",
"179 4 OFFCURVE",
"124 4 QCURVE SMOOTH",
"69 4 OFFCURVE",
"0 49 QCURVE",
"0 54 LINE SMOOTH",
"0 62 OFFCURVE",
"79 71 QCURVE",
"155 100 OFFCURVE",
"182 165 QCURVE",
"199 220 OFFCURVE",
"199 266 QCURVE SMOOTH",
"199 360 OFFCURVE",
"129 597 QCURVE",
"129 633 OFFCURVE",
"249 743 QCURVE",
"257 743 LINE SMOOTH",
"270 743 OFFCURVE",
"287 630 QCURVE",
"323 527 OFFCURVE",
"419 482 QCURVE"
);
},
{
closed = 1;
nodes = (
"564 452 LINE",
"726 511 OFFCURVE",
"726 655 QCURVE",
"713 758 LINE",
"709 758 LINE",
"559 561 OFFCURVE",
"559 452 QCURVE"
);
},
{
closed = 1;
nodes = (
"581 232 OFFCURVE",
"739 137 QCURVE",
"766 129 OFFCURVE",
"788 129 QCURVE SMOOTH",
"825 129 OFFCURVE",
"825 174 QCURVE",
"788 328 OFFCURVE",
"581 328 QCURVE"
);
}
);
width = 1474;
}
);
unicode =  686;
},
{
glyphname = ddal;
layers = (
{
layerId = "84ea52b8-4d94-41b7-b7f8-6e3870ee3aa0";
paths = (
{
closed = 1;
nodes = (
"489 460 LINE",
"489 562 OFFCURVE",
"701 863 QCURVE",
"747 968 OFFCURVE",
"747 1020 QCURVE",
"754 1020 LINE",
"871 791 OFFCURVE",
"871 684 QCURVE SMOOTH",
"871 544 OFFCURVE",
"713 460 QCURVE",
"713 456 LINE",
"718 456 LINE",
"879 469 OFFCURVE",
"1120 606 QCURVE",
"1191 638 OFFCURVE",
"1232 638 QCURVE SMOOTH",
"1343 638 OFFCURVE",
"1427 435 QCURVE",
"1439 391 OFFCURVE",
"1439 360 QCURVE SMOOTH",
"1439 319 LINE",
"1419 178 OFFCURVE",
"1335 178 QCURVE SMOOTH",
"1210 178 OFFCURVE",
"1129 452 QCURVE",
"1120 506 LINE",
"1008 422 OFFCURVE",
"891 377 QCURVE",
"816 360 OFFCURVE",
"816 353 QCURVE",
"962 268 OFFCURVE",
"962 169 QCURVE SMOOTH",
"962 145 LINE SMOOTH",
"962 24 OFFCURVE",
"814 0 QCURVE",
"792 0 LINE SMOOTH",
"640 0 OFFCURVE",
"518 195 QCURVE",
"493 253 OFFCURVE",
"477 340 QCURVE",
"432 340 OFFCURVE",
"323 390 QCURVE",
"323 386 LINE",
"340 338 OFFCURVE",
"340 270 QCURVE SMOOTH",
"340 100 OFFCURVE",
"199 17 QCURVE",
"179 4 OFFCURVE",
"124 4 QCURVE SMOOTH",
"69 4 OFFCURVE",
"0 49 QCURVE",
"0 54 LINE SMOOTH",
"0 62 OFFCURVE",
"79 71 QCURVE",
"155 100 OFFCURVE",
"182 165 QCURVE",
"199 220 OFFCURVE",
"199 266 QCURVE SMOOTH",
"199 360 OFFCURVE",
"129 597 QCURVE",
"129 633 OFFCURVE",
"249 743 QCURVE",
"257 743 LINE SMOOTH",
"270 743 OFFCURVE",
"287 630 QCURVE",
"323 527 OFFCURVE",
"419 482 QCURVE"
);
},
{
closed = 1;
nodes = (
"564 452 LINE",
"726 511 OFFCURVE",
"726 655 QCURVE",
"713 758 LINE",
"709 758 LINE",
"559 561 OFFCURVE",
"559 452 QCURVE"
);
},
{
closed = 1;
nodes = (
"581 232 OFFCURVE",
"739 137 QCURVE",
"766 129 OFFCURVE",
"788 129 QCURVE SMOOTH",
"825 129 OFFCURVE",
"825 174 QCURVE",
"788 328 OFFCURVE",
"581 328 QCURVE"
);
}
);
width = 1474;
}
);
unicode =  688;
},
{
glyphname = rray;
layers = (
{
layerId = "84ea52b8-4d94-41b7-b7f8-6e3870ee3aa0";
paths = (
{
closed = 1;
nodes = (
"489 460 LINE",
"489 562 OFFCURVE",
"701 863 QCURVE",
"747 968 OFFCURVE",
"747 1020 QCURVE",
"754 1020 LINE",
"871 791 OFFCURVE",
"871 684 QCURVE SMOOTH",
"871 544 OFFCURVE",
"713 460 QCURVE",
"713 456 LINE",
"718 456 LINE",
"879 469 OFFCURVE",
"1120 606 QCURVE",
"1191 638 OFFCURVE",
"1232 638 QCURVE SMOOTH",
"1343 638 OFFCURVE",
"1427 435 QCURVE",
"1439 391 OFFCURVE",
"1439 360 QCURVE SMOOTH",
"1439 319 LINE",
"1419 178 OFFCURVE",
"1335 178 QCURVE SMOOTH",
"1210 178 OFFCURVE",
"1129 452 QCURVE",
"1120 506 LINE",
"1008 422 OFFCURVE",
"891 377 QCURVE",
"816 360 OFFCURVE",
"816 353 QCURVE",
"962 268 OFFCURVE",
"962 169 QCURVE SMOOTH",
"962 145 LINE SMOOTH",
"962 24 OFFCURVE",
"814 0 QCURVE",
"792 0 LINE SMOOTH",
"640 0 OFFCURVE",
"518 195 QCURVE",
"493 253 OFFCURVE",
"477 340 QCURVE",
"432 340 OFFCURVE",
"323 390 QCURVE",
"323 386 LINE",
"340 338 OFFCURVE",
"340 270 QCURVE SMOOTH",
"340 100 OFFCURVE",
"199 17 QCURVE",
"179 4 OFFCURVE",
"124 4 QCURVE SMOOTH",
"69 4 OFFCURVE",
"0 49 QCURVE",
"0 54 LINE SMOOTH",
"0 62 OFFCURVE",
"79 71 QCURVE",
"155 100 OFFCURVE",
"182 165 QCURVE",
"199 220 OFFCURVE",
"199 266 QCURVE SMOOTH",
"199 360 OFFCURVE",
"129 597 QCURVE",
"129 633 OFFCURVE",
"249 743 QCURVE",
"257 743 LINE SMOOTH",
"270 743 OFFCURVE",
"287 630 QCURVE",
"323 527 OFFCURVE",
"419 482 QCURVE"
);
},
{
closed = 1;
nodes = (
"564 452 LINE",
"726 511 OFFCURVE",
"726 655 QCURVE",
"713 758 LINE",
"709 758 LINE",
"559 561 OFFCURVE",
"559 452 QCURVE"
);
},
{
closed = 1;
nodes = (
"581 232 OFFCURVE",
"739 137 QCURVE",
"766 129 OFFCURVE",
"788 129 QCURVE SMOOTH",
"825 129 OFFCURVE",
"825 174 QCURVE",
"788 328 OFFCURVE",
"581 328 QCURVE"
);
}
);
width = 1474;
}
);
unicode =  691;
},
{
glyphname = yey;
layers = (
{
layerId = "84ea52b8-4d94-41b7-b7f8-6e3870ee3aa0";
paths = (
{
closed = 1;
nodes = (
"489 460 LINE",
"489 562 OFFCURVE",
"701 863 QCURVE",
"747 968 OFFCURVE",
"747 1020 QCURVE",
"754 1020 LINE",
"871 791 OFFCURVE",
"871 684 QCURVE SMOOTH",
"871 544 OFFCURVE",
"713 460 QCURVE",
"713 456 LINE",
"718 456 LINE",
"879 469 OFFCURVE",
"1120 606 QCURVE",
"1191 638 OFFCURVE",
"1232 638 QCURVE SMOOTH",
"1343 638 OFFCURVE",
"1427 435 QCURVE",
"1439 391 OFFCURVE",
"1439 360 QCURVE SMOOTH",
"1439 319 LINE",
"1419 178 OFFCURVE",
"1335 178 QCURVE SMOOTH",
"1210 178 OFFCURVE",
"1129 452 QCURVE",
"1120 506 LINE",
"1008 422 OFFCURVE",
"891 377 QCURVE",
"816 360 OFFCURVE",
"816 353 QCURVE",
"962 268 OFFCURVE",
"962 169 QCURVE SMOOTH",
"962 145 LINE SMOOTH",
"962 24 OFFCURVE",
"814 0 QCURVE",
"792 0 LINE SMOOTH",
"640 0 OFFCURVE",
"518 195 QCURVE",
"493 253 OFFCURVE",
"477 340 QCURVE",
"432 340 OFFCURVE",
"323 390 QCURVE",
"323 386 LINE",
"340 338 OFFCURVE",
"340 270 QCURVE SMOOTH",
"340 100 OFFCURVE",
"199 17 QCURVE",
"179 4 OFFCURVE",
"124 4 QCURVE SMOOTH",
"69 4 OFFCURVE",
"0 49 QCURVE",
"0 54 LINE SMOOTH",
"0 62 OFFCURVE",
"79 71 QCURVE",
"155 100 OFFCURVE",
"182 165 QCURVE",
"199 220 OFFCURVE",
"199 266 QCURVE SMOOTH",
"199 360 OFFCURVE",
"129 597 QCURVE",
"129 633 OFFCURVE",
"249 743 QCURVE",
"257 743 LINE SMOOTH",
"270 743 OFFCURVE",
"287 630 QCURVE",
"323 527 OFFCURVE",
"419 482 QCURVE"
);
},
{
closed = 1;
nodes = (
"564 452 LINE",
"726 511 OFFCURVE",
"726 655 QCURVE",
"713 758 LINE",
"709 758 LINE",
"559 561 OFFCURVE",
"559 452 QCURVE"
);
},
{
closed = 1;
nodes = (
"581 232 OFFCURVE",
"739 137 QCURVE",
"766 129 OFFCURVE",
"788 129 QCURVE SMOOTH",
"825 129 OFFCURVE",
"825 174 QCURVE",
"788 328 OFFCURVE",
"581 328 QCURVE"
);
}
);
width = 1474;
}
);
unicode =  698;
},
{
glyphname = kaf;
layers = (
{
layerId = "84ea52b8-4d94-41b7-b7f8-6e3870ee3aa0";
paths = (
{
closed = 1;
nodes = (
"489 460 LINE",
"489 562 OFFCURVE",
"701 863 QCURVE",
"747 968 OFFCURVE",
"747 1020 QCURVE",
"754 1020 LINE",
"871 791 OFFCURVE",
"871 684 QCURVE SMOOTH",
"871 544 OFFCURVE",
"713 460 QCURVE",
"713 456 LINE",
"718 456 LINE",
"879 469 OFFCURVE",
"1120 606 QCURVE",
"1191 638 OFFCURVE",
"1232 638 QCURVE SMOOTH",
"1343 638 OFFCURVE",
"1427 435 QCURVE",
"1439 391 OFFCURVE",
"1439 360 QCURVE SMOOTH",
"1439 319 LINE",
"1419 178 OFFCURVE",
"1335 178 QCURVE SMOOTH",
"1210 178 OFFCURVE",
"1129 452 QCURVE",
"1120 506 LINE",
"1008 422 OFFCURVE",
"891 377 QCURVE",
"816 360 OFFCURVE",
"816 353 QCURVE",
"962 268 OFFCURVE",
"962 169 QCURVE SMOOTH",
"962 145 LINE SMOOTH",
"962 24 OFFCURVE",
"814 0 QCURVE",
"792 0 LINE SMOOTH",
"640 0 OFFCURVE",
"518 195 QCURVE",
"493 253 OFFCURVE",
"477 340 QCURVE",
"432 340 OFFCURVE",
"323 390 QCURVE",
"323 386 LINE",
"340 338 OFFCURVE",
"340 270 QCURVE SMOOTH",
"340 100 OFFCURVE",
"199 17 QCURVE",
"179 4 OFFCURVE",
"124 4 QCURVE SMOOTH",
"69 4 OFFCURVE",
"0 49 QCURVE",
"0 54 LINE SMOOTH",
"0 62 OFFCURVE",
"79 71 QCURVE",
"155 100 OFFCURVE",
"182 165 QCURVE",
"199 220 OFFCURVE",
"199 266 QCURVE SMOOTH",
"199 360 OFFCURVE",
"129 597 QCURVE",
"129 633 OFFCURVE",
"249 743 QCURVE",
"257 743 LINE SMOOTH",
"270 743 OFFCURVE",
"287 630 QCURVE",
"323 527 OFFCURVE",
"419 482 QCURVE"
);
},
{
closed = 1;
nodes = (
"564 452 LINE",
"726 511 OFFCURVE",
"726 655 QCURVE",
"713 758 LINE",
"709 758 LINE",
"559 561 OFFCURVE",
"559 452 QCURVE"
);
},
{
closed = 1;
nodes = (
"581 232 OFFCURVE",
"739 137 QCURVE",
"766 129 OFFCURVE",
"788 129 QCURVE SMOOTH",
"825 129 OFFCURVE",
"825 174 QCURVE",
"788 328 OFFCURVE",
"581 328 QCURVE"
);
}
);
width = 1474;
}
);
unicode =  643, 6a9;
},
{
glyphname = ghaf;
layers = (
{
layerId = "84ea52b8-4d94-41b7-b7f8-6e3870ee3aa0";
paths = (
{
closed = 1;
nodes = (
"489 460 LINE",
"489 562 OFFCURVE",
"701 863 QCURVE",
"747 968 OFFCURVE",
"747 1020 QCURVE",
"754 1020 LINE",
"871 791 OFFCURVE",
"871 684 QCURVE SMOOTH",
"871 544 OFFCURVE",
"713 460 QCURVE",
"713 456 LINE",
"718 456 LINE",
"879 469 OFFCURVE",
"1120 606 QCURVE",
"1191 638 OFFCURVE",
"1232 638 QCURVE SMOOTH",
"1343 638 OFFCURVE",
"1427 435 QCURVE",
"1439 391 OFFCURVE",
"1439 360 QCURVE SMOOTH",
"1439 319 LINE",
"1419 178 OFFCURVE",
"1335 178 QCURVE SMOOTH",
"1210 178 OFFCURVE",
"1129 452 QCURVE",
"1120 506 LINE",
"1008 422 OFFCURVE",
"891 377 QCURVE",
"816 360 OFFCURVE",
"816 353 QCURVE",
"962 268 OFFCURVE",
"962 169 QCURVE SMOOTH",
"962 145 LINE SMOOTH",
"962 24 OFFCURVE",
"814 0 QCURVE",
"792 0 LINE SMOOTH",
"640 0 OFFCURVE",
"518 195 QCURVE",
"493 253 OFFCURVE",
"477 340 QCURVE",
"432 340 OFFCURVE",
"323 390 QCURVE",
"323 386 LINE",
"340 338 OFFCURVE",
"340 270 QCURVE SMOOTH",
"340 100 OFFCURVE",
"199 17 QCURVE",
"179 4 OFFCURVE",
"124 4 QCURVE SMOOTH",
"69 4 OFFCURVE",
"0 49 QCURVE",
"0 54 LINE SMOOTH",
"0 62 OFFCURVE",
"79 71 QCURVE",
"155 100 OFFCURVE",
"182 165 QCURVE",
"199 220 OFFCURVE",
"199 266 QCURVE SMOOTH",
"199 360 OFFCURVE",
"129 597 QCURVE",
"129 633 OFFCURVE",
"249 743 QCURVE",
"257 743 LINE SMOOTH",
"270 743 OFFCURVE",
"287 630 QCURVE",
"323 527 OFFCURVE",
"419 482 QCURVE"
);
},
{
closed = 1;
nodes = (
"564 452 LINE",
"726 511 OFFCURVE",
"726 655 QCURVE",
"713 758 LINE",
"709 758 LINE",
"559 561 OFFCURVE",
"559 452 QCURVE"
);
},
{
closed = 1;
nodes = (
"581 232 OFFCURVE",
"739 137 QCURVE",
"766 129 OFFCURVE",
"788 129 QCURVE SMOOTH",
"825 129 OFFCURVE",
"825 174 QCURVE",
"788 328 OFFCURVE",
"581 328 QCURVE"
);
}
);
width = 1474;
}
);
unicode =  6af;
},
{
glyphname = noonghunna;
layers = (
{
layerId = "84ea52b8-4d94-41b7-b7f8-6e3870ee3aa0";
paths = (
{
closed = 1;
nodes = (
"489 460 LINE",
"489 562 OFFCURVE",
"701 863 QCURVE",
"747 968 OFFCURVE",
"747 1020 QCURVE",
"754 1020 LINE",
"871 791 OFFCURVE",
"871 684 QCURVE SMOOTH",
"871 544 OFFCURVE",
"713 460 QCURVE",
"713 456 LINE",
"718 456 LINE",
"879 469 OFFCURVE",
"1120 606 QCURVE",
"1191 638 OFFCURVE",
"1232 638 QCURVE SMOOTH",
"1343 638 OFFCURVE",
"1427 435 QCURVE",
"1439 391 OFFCURVE",
"1439 360 QCURVE SMOOTH",
"1439 319 LINE",
"1419 178 OFFCURVE",
"1335 178 QCURVE SMOOTH",
"1210 178 OFFCURVE",
"1129 452 QCURVE",
"1120 506 LINE",
"1008 422 OFFCURVE",
"891 377 QCURVE",
"816 360 OFFCURVE",
"816 353 QCURVE",
"962 268 OFFCURVE",
"962 169 QCURVE SMOOTH",
"962 145 LINE SMOOTH",
"962 24 OFFCURVE",
"814 0 QCURVE",
"792 0 LINE SMOOTH",
"640 0 OFFCURVE",
"518 195 QCURVE",
"493 253 OFFCURVE",
"477 340 QCURVE",
"432 340 OFFCURVE",
"323 390 QCURVE",
"323 386 LINE",
"340 338 OFFCURVE",
"340 270 QCURVE SMOOTH",
"340 100 OFFCURVE",
"199 17 QCURVE",
"179 4 OFFCURVE",
"124 4 QCURVE SMOOTH",
"69 4 OFFCURVE",
"0 49 QCURVE",
"0 54 LINE SMOOTH",
"0 62 OFFCURVE",
"79 71 QCURVE",
"155 100 OFFCURVE",
"182 165 QCURVE",
"199 220 OFFCURVE",
"199 266 QCURVE SMOOTH",
"199 360 OFFCURVE",
"129 597 QCURVE",
"129 633 OFFCURVE",
"249 743 QCURVE",
"257 743 LINE SMOOTH",
"270 743 OFFCURVE",
"287 630 QCURVE",
"323 527 OFFCURVE",
"419 482 QCURVE"
);
},
{
closed = 1;
nodes = (
"564 452 LINE",
"726 511 OFFCURVE",
"726 655 QCURVE",
"713 758 LINE",
"709 758 LINE",
"559 561 OFFCURVE",
"559 452 QCURVE"
);
},
{
closed = 1;
nodes = (
"581 232 OFFCURVE",
"739 137 QCURVE",
"766 129 OFFCURVE",
"788 129 QCURVE SMOOTH",
"825 129 OFFCURVE",
"825 174 QCURVE",
"788 328 OFFCURVE",
"581 328 QCURVE"
);
}
);
width = 1474;
}
);
unicode =  6ba;
},
{
glyphname = dochashmihay;
layers = (
{
layerId = "84ea52b8-4d94-41b7-b7f8-6e3870ee3aa0";
paths = (
{
closed = 1;
nodes = (
"489 460 LINE",
"489 562 OFFCURVE",
"701 863 QCURVE",
"747 968 OFFCURVE",
"747 1020 QCURVE",
"754 1020 LINE",
"871 791 OFFCURVE",
"871 684 QCURVE SMOOTH",
"871 544 OFFCURVE",
"713 460 QCURVE",
"713 456 LINE",
"718 456 LINE",
"879 469 OFFCURVE",
"1120 606 QCURVE",
"1191 638 OFFCURVE",
"1232 638 QCURVE SMOOTH",
"1343 638 OFFCURVE",
"1427 435 QCURVE",
"1439 391 OFFCURVE",
"1439 360 QCURVE SMOOTH",
"1439 319 LINE",
"1419 178 OFFCURVE",
"1335 178 QCURVE SMOOTH",
"1210 178 OFFCURVE",
"1129 452 QCURVE",
"1120 506 LINE",
"1008 422 OFFCURVE",
"891 377 QCURVE",
"816 360 OFFCURVE",
"816 353 QCURVE",
"962 268 OFFCURVE",
"962 169 QCURVE SMOOTH",
"962 145 LINE SMOOTH",
"962 24 OFFCURVE",
"814 0 QCURVE",
"792 0 LINE SMOOTH",
"640 0 OFFCURVE",
"518 195 QCURVE",
"493 253 OFFCURVE",
"477 340 QCURVE",
"432 340 OFFCURVE",
"323 390 QCURVE",
"323 386 LINE",
"340 338 OFFCURVE",
"340 270 QCURVE SMOOTH",
"340 100 OFFCURVE",
"199 17 QCURVE",
"179 4 OFFCURVE",
"124 4 QCURVE SMOOTH",
"69 4 OFFCURVE",
"0 49 QCURVE",
"0 54 LINE SMOOTH",
"0 62 OFFCURVE",
"79 71 QCURVE",
"155 100 OFFCURVE",
"182 165 QCURVE",
"199 220 OFFCURVE",
"199 266 QCURVE SMOOTH",
"199 360 OFFCURVE",
"129 597 QCURVE",
"129 633 OFFCURVE",
"249 743 QCURVE",
"257 743 LINE SMOOTH",
"270 743 OFFCURVE",
"287 630 QCURVE",
"323 527 OFFCURVE",
"419 482 QCURVE"
);
},
{
closed = 1;
nodes = (
"564 452 LINE",
"726 511 OFFCURVE",
"726 655 QCURVE",
"713 758 LINE",
"709 758 LINE",
"559 561 OFFCURVE",
"559 452 QCURVE"
);
},
{
closed = 1;
nodes = (
"581 232 OFFCURVE",
"739 137 QCURVE",
"766 129 OFFCURVE",
"788 129 QCURVE SMOOTH",
"825 129 OFFCURVE",
"825 174 QCURVE",
"788 328 OFFCURVE",
"581 328 QCURVE"
);
}
);
width = 1474;
}
);
unicode =  6be;
},
{
glyphname = goalhayarabic;
layers = (
{
layerId = "84ea52b8-4d94-41b7-b7f8-6e3870ee3aa0";
paths = (
{
closed = 1;
nodes = (
"489 460 LINE",
"489 562 OFFCURVE",
"701 863 QCURVE",
"747 968 OFFCURVE",
"747 1020 QCURVE",
"754 1020 LINE",
"871 791 OFFCURVE",
"871 684 QCURVE SMOOTH",
"871 544 OFFCURVE",
"713 460 QCURVE",
"713 456 LINE",
"718 456 LINE",
"879 469 OFFCURVE",
"1120 606 QCURVE",
"1191 638 OFFCURVE",
"1232 638 QCURVE SMOOTH",
"1343 638 OFFCURVE",
"1427 435 QCURVE",
"1439 391 OFFCURVE",
"1439 360 QCURVE SMOOTH",
"1439 319 LINE",
"1419 178 OFFCURVE",
"1335 178 QCURVE SMOOTH",
"1210 178 OFFCURVE",
"1129 452 QCURVE",
"1120 506 LINE",
"1008 422 OFFCURVE",
"891 377 QCURVE",
"816 360 OFFCURVE",
"816 353 QCURVE",
"962 268 OFFCURVE",
"962 169 QCURVE SMOOTH",
"962 145 LINE SMOOTH",
"962 24 OFFCURVE",
"814 0 QCURVE",
"792 0 LINE SMOOTH",
"640 0 OFFCURVE",
"518 195 QCURVE",
"493 253 OFFCURVE",
"477 340 QCURVE",
"432 340 OFFCURVE",
"323 390 QCURVE",
"323 386 LINE",
"340 338 OFFCURVE",
"340 270 QCURVE SMOOTH",
"340 100 OFFCURVE",
"199 17 QCURVE",
"179 4 OFFCURVE",
"124 4 QCURVE SMOOTH",
"69 4 OFFCURVE",
"0 49 QCURVE",
"0 54 LINE SMOOTH",
"0 62 OFFCURVE",
"79 71 QCURVE",
"155 100 OFFCURVE",
"182 165 QCURVE",
"199 220 OFFCURVE",
"199 266 QCURVE SMOOTH",
"199 360 OFFCURVE",
"129 597 QCURVE",
"129 633 OFFCURVE",
"249 743 QCURVE",
"257 743 LINE SMOOTH",
"270 743 OFFCURVE",
"287 630 QCURVE",
"323 527 OFFCURVE",
"419 482 QCURVE"
);
},
{
closed = 1;
nodes = (
"564 452 LINE",
"726 511 OFFCURVE",
"726 655 QCURVE",
"713 758 LINE",
"709 758 LINE",
"559 561 OFFCURVE",
"559 452 QCURVE"
);
},
{
closed = 1;
nodes = (
"581 232 OFFCURVE",
"739 137 QCURVE",
"766 129 OFFCURVE",
"788 129 QCURVE SMOOTH",
"825 129 OFFCURVE",
"825 174 QCURVE",
"788 328 OFFCURVE",
"581 328 QCURVE"
);
}
);
width = 1474;
}
);
unicode =  6c1;
},
{
glyphname = yeharabic;
layers = (
{
layerId = "84ea52b8-4d94-41b7-b7f8-6e3870ee3aa0";
paths = (
{
closed = 1;
nodes = (
"489 460 LINE",
"489 562 OFFCURVE",
"701 863 QCURVE",
"747 968 OFFCURVE",
"747 1020 QCURVE",
"754 1020 LINE",
"871 791 OFFCURVE",
"871 684 QCURVE SMOOTH",
"871 544 OFFCURVE",
"713 460 QCURVE",
"713 456 LINE",
"718 456 LINE",
"879 469 OFFCURVE",
"1120 606 QCURVE",
"1191 638 OFFCURVE",
"1232 638 QCURVE SMOOTH",
"1343 638 OFFCURVE",
"1427 435 QCURVE",
"1439 391 OFFCURVE",
"1439 360 QCURVE SMOOTH",
"1439 319 LINE",
"1419 178 OFFCURVE",
"1335 178 QCURVE SMOOTH",
"1210 178 OFFCURVE",
"1129 452 QCURVE",
"1120 506 LINE",
"1008 422 OFFCURVE",
"891 377 QCURVE",
"816 360 OFFCURVE",
"816 353 QCURVE",
"962 268 OFFCURVE",
"962 169 QCURVE SMOOTH",
"962 145 LINE SMOOTH",
"962 24 OFFCURVE",
"814 0 QCURVE",
"792 0 LINE SMOOTH",
"640 0 OFFCURVE",
"518 195 QCURVE",
"493 253 OFFCURVE",
"477 340 QCURVE",
"432 340 OFFCURVE",
"323 390 QCURVE",
"323 386 LINE",
"340 338 OFFCURVE",
"340 270 QCURVE SMOOTH",
"340 100 OFFCURVE",
"199 17 QCURVE",
"179 4 OFFCURVE",
"124 4 QCURVE SMOOTH",
"69 4 OFFCURVE",
"0 49 QCURVE",
"0 54 LINE SMOOTH",
"0 62 OFFCURVE",
"79 71 QCURVE",
"155 100 OFFCURVE",
"182 165 QCURVE",
"199 220 OFFCURVE",
"199 266 QCURVE SMOOTH",
"199 360 OFFCURVE",
"129 597 QCURVE",
"129 633 OFFCURVE",
"249 743 QCURVE",
"257 743 LINE SMOOTH",
"270 743 OFFCURVE",
"287 630 QCURVE",
"323 527 OFFCURVE",
"419 482 QCURVE"
);
},
{
closed = 1;
nodes = (
"564 452 LINE",
"726 511 OFFCURVE",
"726 655 QCURVE",
"713 758 LINE",
"709 758 LINE",
"559 561 OFFCURVE",
"559 452 QCURVE"
);
},
{
closed = 1;
nodes = (
"581 232 OFFCURVE",
"739 137 QCURVE",
"766 129 OFFCURVE",
"788 129 QCURVE SMOOTH",
"825 129 OFFCURVE",
"825 174 QCURVE",
"788 328 OFFCURVE",
"581 328 QCURVE"
);
}
);
width = 1474;
}
);
unicode =  649, 6cc;
},
{
glyphname = bariyeh;
layers = (
{
layerId = "84ea52b8-4d94-41b7-b7f8-6e3870ee3aa0";
paths = (
{
closed = 1;
nodes = (
"489 460 LINE",
"489 562 OFFCURVE",
"701 863 QCURVE",
"747 968 OFFCURVE",
"747 1020 QCURVE",
"754 1020 LINE",
"871 791 OFFCURVE",
"871 684 QCURVE SMOOTH",
"871 544 OFFCURVE",
"713 460 QCURVE",
"713 456 LINE",
"718 456 LINE",
"879 469 OFFCURVE",
"1120 606 QCURVE",
"1191 638 OFFCURVE",
"1232 638 QCURVE SMOOTH",
"1343 638 OFFCURVE",
"1427 435 QCURVE",
"1439 391 OFFCURVE",
"1439 360 QCURVE SMOOTH",
"1439 319 LINE",
"1419 178 OFFCURVE",
"1335 178 QCURVE SMOOTH",
"1210 178 OFFCURVE",
"1129 452 QCURVE",
"1120 506 LINE",
"1008 422 OFFCURVE",
"891 377 QCURVE",
"816 360 OFFCURVE",
"816 353 QCURVE",
"962 268 OFFCURVE",
"962 169 QCURVE SMOOTH",
"962 145 LINE SMOOTH",
"962 24 OFFCURVE",
"814 0 QCURVE",
"792 0 LINE SMOOTH",
"640 0 OFFCURVE",
"518 195 QCURVE",
"493 253 OFFCURVE",
"477 340 QCURVE",
"432 340 OFFCURVE",
"323 390 QCURVE",
"323 386 LINE",
"340 338 OFFCURVE",
"340 270 QCURVE SMOOTH",
"340 100 OFFCURVE",
"199 17 QCURVE",
"179 4 OFFCURVE",
"124 4 QCURVE SMOOTH",
"69 4 OFFCURVE",
"0 49 QCURVE",
"0 54 LINE SMOOTH",
"0 62 OFFCURVE",
"79 71 QCURVE",
"155 100 OFFCURVE",
"182 165 QCURVE",
"199 220 OFFCURVE",
"199 266 QCURVE SMOOTH",
"199 360 OFFCURVE",
"129 597 QCURVE",
"129 633 OFFCURVE",
"249 743 QCURVE",
"257 743 LINE SMOOTH",
"270 743 OFFCURVE",
"287 630 QCURVE",
"323 527 OFFCURVE",
"419 482 QCURVE"
);
},
{
closed = 1;
nodes = (
"564 452 LINE",
"726 511 OFFCURVE",
"726 655 QCURVE",
"713 758 LINE",
"709 758 LINE",
"559 561 OFFCURVE",
"559 452 QCURVE"
);
},
{
closed = 1;
nodes = (
"581 232 OFFCURVE",
"739 137 QCURVE",
"766 129 OFFCURVE",
"788 129 QCURVE SMOOTH",
"825 129 OFFCURVE",
"825 174 QCURVE",
"788 328 OFFCURVE",
"581 328 QCURVE"
);
}
);
width = 1474;
}
);
unicode =  6d2;
},
{
glyphname = glyph148;
layers = (
{
layerId = "84ea52b8-4d94-41b7-b7f8-6e3870ee3aa0";
paths = (
{
closed = 1;
nodes = (
"1305 1737 LINE",
"366 28 LINE",
"254 28 LINE",
"1201 1737 LINE"
);
},
{
closed = 1;
nodes = (
"538 1176 OFFCURVE",
"508 1139 QCURVE",
"450 1063 OFFCURVE",
"355 1063 QCURVE SMOOTH",
"320 1063 OFFCURVE",
"255 1093 OFFCURVE",
"206 1145 OFFCURVE",
"177 1218 OFFCURVE",
"177 1260 QCURVE SMOOTH",
"177 1298 OFFCURVE",
"201 1365 OFFCURVE",
"246 1416 OFFCURVE",
"308 1445 OFFCURVE",
"347 1445 QCURVE SMOOTH",
"355 1445 LINE",
"397 1443 OFFCURVE",
"464 1410 OFFCURVE",
"512 1355 OFFCURVE",
"538 1282 OFFCURVE",
"538 1241 QCURVE SMOOTH"
);
},
{
closed = 1;
nodes = (
"1338 336 OFFCURVE",
"1311 293 QCURVE SMOOTH",
"1262 214 OFFCURVE",
"1163 214 QCURVE SMOOTH",
"1133 214 OFFCURVE",
"1070 232 OFFCURVE",
"1018 271 OFFCURVE",
"984 332 OFFCURVE",
"984 375 QCURVE SMOOTH",
"984 414 OFFCURVE",
"1009 487 OFFCURVE",
"1053 544 OFFCURVE",
"1115 578 OFFCURVE",
"1153 578 QCURVE SMOOTH",
"1194 578 OFFCURVE",
"1262 549 OFFCURVE",
"1311 499 OFFCURVE",
"1338 431 OFFCURVE",
"1338 392 QCURVE SMOOTH"
);
}
);
width = 1617;
}
);
unicode =  66a;
},
{
glyphname = glyph149;
layers = (
{
layerId = "84ea52b8-4d94-41b7-b7f8-6e3870ee3aa0";
paths = (
{
closed = 1;
nodes = (
"136 437 OFFCURVE",
"249 634 QCURVE SMOOTH",
"255 645 OFFCURVE",
"264 645 QCURVE SMOOTH",
"270 645 OFFCURVE",
"487 516 QCURVE SMOOTH",
"497 510 OFFCURVE",
"497 501 QCURVE SMOOTH",
"497 497 OFFCURVE",
"383 300 QCURVE SMOOTH",
"377 289 OFFCURVE",
"368 289 QCURVE SMOOTH",
"363 289 OFFCURVE",
"147 417 QCURVE",
"136 423 OFFCURVE",
"136 432 QCURVE SMOOTH"
);
}
);
width = 635;
}
);
unicode =  6f0;
},
{
glyphname = glyph150;
layers = (
{
layerId = "84ea52b8-4d94-41b7-b7f8-6e3870ee3aa0";
paths = (
{
closed = 1;
nodes = (
"133 705 LINE",
"133 746 OFFCURVE",
"155 815 QCURVE SMOOTH",
"182 898 OFFCURVE",
"193 950 QCURVE SMOOTH",
"201 985 OFFCURVE",
"215 985 QCURVE SMOOTH",
"233 985 OFFCURVE",
"233 948 QCURVE",
"236 796 OFFCURVE",
"246 583 QCURVE",
"248 526 OFFCURVE",
"248 471 QCURVE SMOOTH",
"248 353 OFFCURVE",
"238 243 QCURVE",
"220 138 OFFCURVE",
"199 79 QCURVE SMOOTH",
"181 30 OFFCURVE",
"173 30 QCURVE SMOOTH",
"164 30 OFFCURVE",
"162 85 QCURVE SMOOTH",
"155 279 LINE"
);
}
);
width = 385;
}
);
unicode =  6f1;
},
{
glyphname = glyph151;
layers = (
{
layerId = "84ea52b8-4d94-41b7-b7f8-6e3870ee3aa0";
paths = (
{
closed = 1;
nodes = (
"133 823 OFFCURVE",
"171 943 QCURVE SMOOTH",
"189 1002 OFFCURVE",
"200 1002 QCURVE SMOOTH",
"204 1002 OFFCURVE",
"207 999 QCURVE",
"218 991 OFFCURVE",
"218 973 QCURVE SMOOTH",
"218 968 LINE SMOOTH",
"218 915 OFFCURVE",
"311 833 OFFCURVE",
"381 830 QCURVE",
"475 830 OFFCURVE",
"510 931 QCURVE",
"517 959 OFFCURVE",
"522 970 QCURVE",
"528 990 OFFCURVE",
"541 990 QCURVE SMOOTH",
"544 990 OFFCURVE",
"548 989 QCURVE",
"563 983 OFFCURVE",
"563 964 QCURVE SMOOTH",
"563 959 LINE",
"553 795 OFFCURVE",
"475 698 QCURVE SMOOTH",
"413 620 OFFCURVE",
"309 620 QCURVE SMOOTH",
"285 620 OFFCURVE",
"258 624 QCURVE",
"256 554 OFFCURVE",
"256 481 QCURVE SMOOTH",
"256 432 LINE SMOOTH",
"256 312 OFFCURVE",
"229 171 QCURVE SMOOTH",
"219 118 OFFCURVE",
"204 77 QCURVE SMOOTH",
"187 31 OFFCURVE",
"178 31 QCURVE SMOOTH",
"165 31 OFFCURVE",
"165 84 QCURVE SMOOTH",
"165 141 LINE",
"166 195 OFFCURVE",
"166 246 QCURVE SMOOTH",
"166 369 OFFCURVE",
"158 478 QCURVE SMOOTH",
"143 665 OFFCURVE",
"130 810 QCURVE"
);
}
);
width = 696;
}
);
unicode =  6f2;
},
{
glyphname = glyph152;
layers = (
{
layerId = "84ea52b8-4d94-41b7-b7f8-6e3870ee3aa0";
paths = (
{
closed = 1;
nodes = (
"161 954 OFFCURVE",
"188 999 QCURVE",
"196 1016 OFFCURVE",
"202 1016 QCURVE SMOOTH",
"207 1016 OFFCURVE",
"210 1009 QCURVE",
"219 992 OFFCURVE",
"219 969 QCURVE SMOOTH",
"219 922 OFFCURVE",
"245 884 QCURVE",
"277 831 OFFCURVE",
"359 831 QCURVE SMOOTH",
"430 831 OFFCURVE",
"477 913 OFFCURVE",
"494 969 QCURVE",
"503 996 OFFCURVE",
"519 996 QCURVE SMOOTH",
"533 996 OFFCURVE",
"533 959 QCURVE SMOOTH",
"533 954 LINE SMOOTH",
"533 917 OFFCURVE",
"546 889 QCURVE",
"562 845 OFFCURVE",
"616 845 QCURVE SMOOTH",
"652 845 OFFCURVE",
"667 876 QCURVE SMOOTH",
"689 921 OFFCURVE",
"699 962 QCURVE",
"701 973 OFFCURVE",
"716 996 OFFCURVE",
"725 996 QCURVE SMOOTH",
"742 996 OFFCURVE",
"742 966 QCURVE SMOOTH",
"742 929 OFFCURVE",
"723 849 QCURVE",
"696 749 OFFCURVE",
"657 699 QCURVE",
"613 645 OFFCURVE",
"556 645 QCURVE SMOOTH",
"527 645 OFFCURVE",
"503 663 QCURVE",
"463 691 OFFCURVE",
"461 706 QCURVE",
"405 616 OFFCURVE",
"294 616 QCURVE SMOOTH",
"276 616 OFFCURVE",
"257 619 QCURVE",
"256 550 OFFCURVE",
"256 489 QCURVE SMOOTH",
"256 430 LINE SMOOTH",
"256 312 OFFCURVE",
"229 171 QCURVE SMOOTH",
"219 118 OFFCURVE",
"204 77 QCURVE SMOOTH",
"187 31 OFFCURVE",
"178 31 QCURVE SMOOTH",
"165 31 OFFCURVE",
"165 84 QCURVE SMOOTH",
"165 141 LINE",
"166 195 OFFCURVE",
"166 246 QCURVE SMOOTH",
"166 369 OFFCURVE",
"158 478 QCURVE SMOOTH",
"143 665 OFFCURVE",
"130 810 QCURVE"
);
}
);
width = 874;
}
);
unicode =  6f3;
},
{
glyphname = glyph153;
layers = (
{
layerId = "84ea52b8-4d94-41b7-b7f8-6e3870ee3aa0";
paths = (
{
closed = 1;
nodes = (
"450 556 OFFCURVE",
"450 591 QCURVE SMOOTH",
"450 600 LINE",
"455 654 OFFCURVE",
"455 665 QCURVE SMOOTH",
"455 723 OFFCURVE",
"426 755 QCURVE SMOOTH",
"378 806 OFFCURVE",
"314 806 QCURVE SMOOTH",
"282 806 OFFCURVE",
"252 793 QCURVE SMOOTH",
"211 775 OFFCURVE",
"211 740 QCURVE SMOOTH",
"211 666 OFFCURVE",
"218 586 QCURVE",
"229 424 LINE SMOOTH",
"235 342 OFFCURVE",
"235 253 QCURVE SMOOTH",
"235 183 OFFCURVE",
"214 54 OFFCURVE",
"197 35 QCURVE",
"193 31 OFFCURVE",
"190 31 QCURVE SMOOTH",
"178 31 OFFCURVE",
"176 95 QCURVE",
"130 614 LINE",
"130 689 OFFCURVE",
"167 854 OFFCURVE",
"248 981 OFFCURVE",
"326 1006 QCURVE SMOOTH",
"348 1013 OFFCURVE",
"369 1013 QCURVE SMOOTH",
"421 1013 OFFCURVE",
"463 969 QCURVE",
"517 915 OFFCURVE",
"533 840 QCURVE",
"566 906 OFFCURVE",
"637 994 QCURVE SMOOTH",
"712 1085 OFFCURVE",
"742 1085 QCURVE SMOOTH",
"748 1085 OFFCURVE",
"748 1070 QCURVE SMOOTH",
"748 1054 OFFCURVE",
"740 1020 QCURVE SMOOTH",
"725 962 OFFCURVE",
"709 875 QCURVE SMOOTH",
"707 864 OFFCURVE",
"697 856 QCURVE",
"633 811 OFFCURVE",
"520 666 OFFCURVE",
"492 591 QCURVE",
"485 574 OFFCURVE",
"471 561 QCURVE",
"466 556 OFFCURVE",
"462 556 QCURVE SMOOTH"
);
}
);
width = 887;
}
);
unicode =  6f4;
},
{
glyphname = glyph154;
layers = (
{
layerId = "84ea52b8-4d94-41b7-b7f8-6e3870ee3aa0";
paths = (
{
closed = 1;
nodes = (
"213 293 OFFCURVE",
"272 252 OFFCURVE",
"319 252 QCURVE SMOOTH",
"347 252 OFFCURVE",
"377 263 QCURVE",
"434 282 OFFCURVE",
"453 329 QCURVE",
"457 342 OFFCURVE",
"468 342 QCURVE SMOOTH",
"483 342 OFFCURVE",
"483 316 OFFCURVE",
"491 301 QCURVE",
"514 253 OFFCURVE",
"580 253 QCURVE SMOOTH",
"627 253 OFFCURVE",
"670 279 QCURVE SMOOTH",
"695 294 OFFCURVE",
"695 306 QCURVE SMOOTH",
"695 347 OFFCURVE",
"662 407 QCURVE",
"628 463 OFFCURVE",
"531 582 OFFCURVE",
"431 677 OFFCURVE",
"401 697 QCURVE",
"389 691 OFFCURVE",
"327 597 OFFCURVE",
"297 538 QCURVE",
"263 477 OFFCURVE",
"214 362 OFFCURVE",
"210 330 QCURVE"
);
},
{
closed = 1;
nodes = (
"137 257 OFFCURVE",
"142 292 QCURVE SMOOTH",
"157 397 OFFCURVE",
"206 519 QCURVE",
"263 656 OFFCURVE",
"322 764 QCURVE SMOOTH",
"402 910 OFFCURVE",
"432 910 QCURVE SMOOTH",
"442 910 OFFCURVE",
"496 861 QCURVE SMOOTH",
"580 784 OFFCURVE",
"702 644 OFFCURVE",
"765 498 OFFCURVE",
"765 420 QCURVE SMOOTH",
"765 302 OFFCURVE",
"690 165 QCURVE",
"651 98 OFFCURVE",
"602 67 QCURVE SMOOTH",
"558 40 OFFCURVE",
"514 40 QCURVE SMOOTH",
"449 40 OFFCURVE",
"415 94 QCURVE",
"407 94 OFFCURVE",
"356 32 OFFCURVE",
"281 30 QCURVE",
"215 30 OFFCURVE",
"183 69 QCURVE SMOOTH",
"137 126 OFFCURVE",
"137 225 QCURVE SMOOTH"
);
}
);
width = 897;
}
);
unicode =  6f5;
},
{
glyphname = glyph155;
layers = (
{
layerId = "84ea52b8-4d94-41b7-b7f8-6e3870ee3aa0";
paths = (
{
closed = 1;
nodes = (
"134 889 OFFCURVE",
"151 952 QCURVE SMOOTH",
"161 988 OFFCURVE",
"181 988 QCURVE SMOOTH",
"196 988 OFFCURVE",
"196 958 QCURVE SMOOTH",
"196 945 LINE SMOOTH",
"196 816 OFFCURVE",
"256 779 QCURVE SMOOTH",
"293 756 OFFCURVE",
"339 756 QCURVE SMOOTH",
"398 756 OFFCURVE",
"436 794 QCURVE SMOOTH",
"452 810 OFFCURVE",
"481 885 QCURVE",
"494 924 OFFCURVE",
"501 943 QCURVE",
"521 1009 OFFCURVE",
"536 1009 QCURVE SMOOTH",
"540 1009 OFFCURVE",
"543 1006 QCURVE",
"555 997 OFFCURVE",
"555 978 QCURVE",
"559 853 OFFCURVE",
"559 712 QCURVE SMOOTH",
"559 423 OFFCURVE",
"535 243 QCURVE",
"510 127 OFFCURVE",
"471 30 OFFCURVE",
"464 30 QCURVE SMOOTH",
"461 30 OFFCURVE",
"460 34 QCURVE",
"454 49 OFFCURVE",
"454 78 QCURVE SMOOTH",
"454 86 LINE",
"456 188 OFFCURVE",
"456 267 QCURVE SMOOTH",
"456 370 OFFCURVE",
"448 602 QCURVE",
"379 547 OFFCURVE",
"298 547 QCURVE SMOOTH",
"258 547 OFFCURVE",
"220 571 QCURVE SMOOTH",
"134 627 OFFCURVE",
"134 780 QCURVE SMOOTH"
);
}
);
width = 690;
}
);
unicode =  6f6;
},
{
glyphname = glyph156;
layers = (
{
layerId = "84ea52b8-4d94-41b7-b7f8-6e3870ee3aa0";
paths = (
{
closed = 1;
nodes = (
"571 32 OFFCURVE",
"416 50 QCURVE SMOOTH",
"170 78 OFFCURVE",
"143 127 QCURVE SMOOTH",
"135 141 OFFCURVE",
"135 158 QCURVE SMOOTH",
"135 165 OFFCURVE",
"136 172 QCURVE",
"184 418 OFFCURVE",
"384 640 QCURVE",
"461 723 LINE",
"511 775 OFFCURVE",
"547 836 OFFCURVE",
"557 836 QCURVE SMOOTH",
"570 836 OFFCURVE",
"570 803 QCURVE SMOOTH",
"570 784 OFFCURVE",
"556 743 OFFCURVE",
"520 651 QCURVE",
"510 623 OFFCURVE",
"467 574 QCURVE SMOOTH",
"286 370 LINE",
"246 323 OFFCURVE",
"246 303 QCURVE",
"262 287 OFFCURVE",
"327 276 QCURVE",
"462 256 OFFCURVE",
"617 246 QCURVE SMOOTH",
"687 241 OFFCURVE",
"709 239 QCURVE",
"726 235 OFFCURVE",
"726 206 QCURVE SMOOTH",
"726 186 OFFCURVE",
"707 124 QCURVE",
"688 57 OFFCURVE",
"671 30 OFFCURVE",
"658 30 QCURVE"
);
}
);
width = 855;
}
);
unicode =  6f7;
},
{
glyphname = glyph157;
layers = (
{
layerId = "84ea52b8-4d94-41b7-b7f8-6e3870ee3aa0";
paths = (
{
closed = 1;
nodes = (
"151 31 OFFCURVE",
"145 53 QCURVE SMOOTH",
"132 101 OFFCURVE",
"132 177 QCURVE SMOOTH",
"132 220 OFFCURVE",
"171 339 QCURVE",
"227 499 LINE",
"352 844 OFFCURVE",
"364 880 QCURVE",
"385 931 OFFCURVE",
"404 931 QCURVE SMOOTH",
"415 931 OFFCURVE",
"431 902 QCURVE",
"451 859 OFFCURVE",
"638 440 QCURVE",
"724 242 OFFCURVE",
"724 235 QCURVE SMOOTH",
"724 214 OFFCURVE",
"693 112 QCURVE",
"670 45 OFFCURVE",
"658 45 QCURVE SMOOTH",
"645 45 OFFCURVE",
"575 198 QCURVE",
"427 514 LINE",
"391 587 OFFCURVE",
"384 587 QCURVE SMOOTH",
"378 587 OFFCURVE",
"279 335 QCURVE",
"210 153 OFFCURVE",
"182 70 QCURVE",
"167 30 OFFCURVE",
"156 30 QCURVE"
);
}
);
width = 855;
}
);
unicode =  6f8;
},
{
glyphname = glyph158;
layers = (
{
layerId = "84ea52b8-4d94-41b7-b7f8-6e3870ee3aa0";
paths = (
{
closed = 1;
nodes = (
"425 708 LINE SMOOTH",
"425 767 OFFCURVE",
"356 836 OFFCURVE",
"313 841 QCURVE SMOOTH",
"302 842 LINE",
"264 842 OFFCURVE",
"232 818 QCURVE SMOOTH",
"194 790 OFFCURVE",
"194 729 QCURVE",
"196 701 OFFCURVE",
"259 668 OFFCURVE",
"298 664 QCURVE",
"319 663 LINE",
"401 663 OFFCURVE",
"425 701 QCURVE"
);
},
{
closed = 1;
nodes = (
"365 463 LINE",
"338 453 OFFCURVE",
"302 453 QCURVE SMOOTH",
"248 453 OFFCURVE",
"171 507 OFFCURVE",
"155 544 QCURVE",
"132 593 OFFCURVE",
"132 685 QCURVE SMOOTH",
"132 740 OFFCURVE",
"143 795 QCURVE",
"163 908 OFFCURVE",
"206 972 QCURVE SMOOTH",
"258 1051 OFFCURVE",
"332 1051 QCURVE SMOOTH",
"413 1051 OFFCURVE",
"458 982 QCURVE SMOOTH",
"496 922 OFFCURVE",
"511 846 QCURVE SMOOTH",
"525 778 OFFCURVE",
"525 684 QCURVE SMOOTH",
"525 513 OFFCURVE",
"486 233 QCURVE",
"463 136 OFFCURVE",
"439 79 QCURVE SMOOTH",
"418 30 OFFCURVE",
"410 30 QCURVE SMOOTH",
"402 30 OFFCURVE",
"402 74 QCURVE SMOOTH",
"402 85 LINE",
"410 252 OFFCURVE",
"410 478 QCURVE"
);
}
);
width = 657;
}
);
unicode =  6f9;
},
{
glyphname = dash;
layers = (
{
layerId = "84ea52b8-4d94-41b7-b7f8-6e3870ee3aa0";
paths = (
{
closed = 1;
nodes = (
"749 229 OFFCURVE",
"734 182 OFFCURVE",
"701 129 OFFCURVE",
"648 75 OFFCURVE",
"609 55 QCURVE",
"601 52 OFFCURVE",
"533 52 QCURVE",
"603 52 LINE",
"573 52 OFFCURVE",
"530 55 OFFCURVE",
"499 60 OFFCURVE",
"467 70 OFFCURVE",
"425 85 OFFCURVE",
"393 96 QCURVE SMOOTH",
"268 140 OFFCURVE",
"203 178 QCURVE",
"200 225 LINE",
"273 225 OFFCURVE",
"391 226 OFFCURVE",
"646 263 OFFCURVE",
"729 274 QCURVE",
"751 274 OFFCURVE",
"751 241 QCURVE"
);
}
);
width = 951;
}
);
unicode =  6d4;
},
{
glyphname = takhalus;
layers = (
{
anchors = (
{
name = _b.takhalus;
position = "{0, 0}";
},
{
name = _m.takhalus;
position = "{0, 0}";
},
{
name = _b.takhalus_2;
position = "{0, 144}";
}
);
layerId = "84ea52b8-4d94-41b7-b7f8-6e3870ee3aa0";
paths = (
{
closed = 1;
nodes = (
"143 1780 LINE",
"251 1781 OFFCURVE",
"419 1850 QCURVE",
"455 1890 OFFCURVE",
"481 1890 QCURVE",
"508 1889 OFFCURVE",
"539 1868 QCURVE",
"550 1861 OFFCURVE",
"559 1861 QCURVE SMOOTH",
"576 1861 OFFCURVE",
"588 1883 QCURVE SMOOTH",
"607 1917 OFFCURVE",
"620 1932 QCURVE",
"628 1935 OFFCURVE",
"633 1935 QCURVE SMOOTH",
"643 1935 OFFCURVE",
"644 1923 QCURVE",
"644 1921 LINE",
"644 1903 OFFCURVE",
"609 1825 OFFCURVE",
"579 1782 OFFCURVE",
"557 1766 QCURVE SMOOTH",
"540 1754 OFFCURVE",
"526 1754 QCURVE",
"517 1756 LINE",
"501 1761 OFFCURVE",
"490 1768 OFFCURVE",
"461 1780 QCURVE SMOOTH",
"449 1785 OFFCURVE",
"438 1785 QCURVE SMOOTH",
"425 1785 OFFCURVE",
"415 1777 QCURVE",
"396 1763 OFFCURVE",
"301 1694 OFFCURVE",
"214 1691 QCURVE",
"187 1691 LINE SMOOTH",
"110 1691 OFFCURVE",
"14 1705 QCURVE SMOOTH",
"-99 1722 OFFCURVE",
"-173 1751 OFFCURVE",
"-189 1761 QCURVE SMOOTH",
"-204 1770 OFFCURVE",
"-204 1780 QCURVE SMOOTH",
"-204 1793 OFFCURVE",
"-187 1793 QCURVE",
"-16 1780 OFFCURVE",
"108 1780 QCURVE SMOOTH"
);
}
);
width = 0;
}
);
unicode =  614;
},
{
glyphname = misra;
layers = (
{
layerId = "84ea52b8-4d94-41b7-b7f8-6e3870ee3aa0";
paths = (
{
closed = 1;
nodes = (
"222 -114 OFFCURVE",
"149 -179 OFFCURVE",
"102 -201 QCURVE SMOOTH",
"78 -212 OFFCURVE",
"57 -212 QCURVE SMOOTH",
"36 -212 OFFCURVE",
"18 -201 QCURVE",
"66 -174 OFFCURVE",
"190 -69 OFFCURVE",
"237 -9 QCURVE",
"213 88 OFFCURVE",
"213 187 QCURVE SMOOTH",
"213 274 OFFCURVE",
"236 381 QCURVE SMOOTH",
"263 504 OFFCURVE",
"313 624 QCURVE",
"347 695 OFFCURVE",
"420 813 OFFCURVE",
"455 858 QCURVE",
"451 862 LINE",
"371 890 OFFCURVE",
"340 943 QCURVE",
"317 972 OFFCURVE",
"317 998 QCURVE SMOOTH",
"317 1026 OFFCURVE",
"369 1096 QCURVE SMOOTH",
"424 1170 OFFCURVE",
"534 1371 OFFCURVE",
"572 1389 QCURVE SMOOTH",
"607 1405 OFFCURVE",
"636 1405 QCURVE SMOOTH",
"642 1405 LINE",
"673 1403 OFFCURVE",
"724 1368 OFFCURVE",
"727 1347 QCURVE SMOOTH",
"728 1340 OFFCURVE",
"728 1334 QCURVE SMOOTH",
"728 1322 OFFCURVE",
"724 1312 QCURVE",
"714 1292 OFFCURVE",
"692 1292 QCURVE",
"686 1293 LINE",
"673 1296 OFFCURVE",
"638 1309 OFFCURVE",
"619 1309 QCURVE SMOOTH",
"602 1309 OFFCURVE",
"583 1304 QCURVE SMOOTH",
"545 1295 OFFCURVE",
"515 1248 QCURVE",
"512 1243 LINE SMOOTH",
"498 1220 OFFCURVE",
"498 1197 QCURVE SMOOTH",
"498 1168 OFFCURVE",
"520 1140 QCURVE",
"556 1088 OFFCURVE",
"635 1088 QCURVE SMOOTH",
"639 1088 LINE",
"703 1089 OFFCURVE",
"815 1190 OFFCURVE",
"860 1237 OFFCURVE",
"868 1242 OFFCURVE",
"870 1242 QCURVE",
"872 1242 OFFCURVE",
"876 1238 OFFCURVE",
"878 1232 QCURVE",
"878 1230 LINE",
"878 1221 OFFCURVE",
"864 1190 QCURVE SMOOTH",
"848 1156 OFFCURVE",
"661 977 OFFCURVE",
"628 941 QCURVE SMOOTH",
"586 895 OFFCURVE",
"574 884 QCURVE",
"450 761 OFFCURVE",
"352 590 OFFCURVE",
"301 418 OFFCURVE",
"301 333 QCURVE SMOOTH",
"301 281 OFFCURVE",
"314 234 QCURVE SMOOTH",
"325 194 OFFCURVE",
"357 138 QCURVE",
"474 299 OFFCURVE",
"615 498 OFFCURVE",
"764 673 OFFCURVE",
"981 810 OFFCURVE",
"1097 810 QCURVE SMOOTH",
"1149 810 OFFCURVE",
"1240 765 OFFCURVE",
"1292 695 OFFCURVE",
"1299 610 QCURVE",
"1300 591 LINE",
"1300 506 OFFCURVE",
"1246 344 QCURVE SMOOTH",
"1187 164 OFFCURVE",
"1060 11 QCURVE",
"853 -264 OFFCURVE",
"565 -264 QCURVE SMOOTH",
"482 -264 OFFCURVE",
"332 -194 OFFCURVE",
"293 -135 QCURVE",
"272 -105 OFFCURVE",
"257 -70 QCURVE"
);
},
{
closed = 1;
nodes = (
"1203 308 OFFCURVE",
"1203 446 QCURVE SMOOTH",
"1203 505 OFFCURVE",
"1161 543 QCURVE SMOOTH",
"1093 604 OFFCURVE",
"1005 604 QCURVE SMOOTH",
"927 604 OFFCURVE",
"793 549 OFFCURVE",
"668 446 OFFCURVE",
"545 294 OFFCURVE",
"493 226 OFFCURVE",
"391 89 QCURVE",
"407 73 LINE",
"494 -5 OFFCURVE",
"652 -5 QCURVE SMOOTH",
"756 -5 OFFCURVE",
"841 30 QCURVE SMOOTH",
"935 70 OFFCURVE",
"1019 146 QCURVE"
);
}
);
width = 1799;
}
);
unicode =  60f;
},
{
glyphname = hawala;
layers = (
{
layerId = "84ea52b8-4d94-41b7-b7f8-6e3870ee3aa0";
paths = (
{
closed = 1;
nodes = (
"215 315 OFFCURVE",
"270 260 OFFCURVE",
"347 227 OFFCURVE",
"436 213 OFFCURVE",
"466 210 QCURVE",
"466 245 OFFCURVE",
"446 331 OFFCURVE",
"407 406 OFFCURVE",
"347 458 OFFCURVE",
"310 458 QCURVE SMOOTH",
"270 458 OFFCURVE",
"215 397 OFFCURVE",
"215 360 QCURVE SMOOTH"
);
},
{
closed = 1;
nodes = (
"122 279 OFFCURVE",
"122 288 QCURVE SMOOTH",
"122 339 OFFCURVE",
"146 402 QCURVE SMOOTH",
"174 474 OFFCURVE",
"269 584 OFFCURVE",
"330 605 QCURVE SMOOTH",
"349 611 OFFCURVE",
"369 611 QCURVE SMOOTH",
"412 611 OFFCURVE",
"458 579 QCURVE",
"515 534 OFFCURVE",
"554 380 OFFCURVE",
"554 301 QCURVE SMOOTH",
"554 271 OFFCURVE",
"552 223 OFFCURVE",
"550 201 QCURVE",
"673 185 OFFCURVE",
"844 185 QCURVE",
"1007 186 OFFCURVE",
"1493 197 OFFCURVE",
"1823 234 OFFCURVE",
"1958 253 QCURVE",
"1984 253 OFFCURVE",
"1984 245 QCURVE",
"1983 240 LINE",
"1976 223 OFFCURVE",
"1956 216 QCURVE",
"1905 177 OFFCURVE",
"1729 112 OFFCURVE",
"1508 63 OFFCURVE",
"1174 34 OFFCURVE",
"851 17 OFFCURVE",
"726 15 QCURVE",
"587 15 OFFCURVE",
"494 23 QCURVE SMOOTH",
"439 28 OFFCURVE",
"309 56 OFFCURVE",
"198 110 OFFCURVE",
"124 201 OFFCURVE",
"124 271 QCURVE"
);
}
);
width = 2071;
}
);
unicode =  602;
},
{
glyphname = safha;
layers = (
{
layerId = "84ea52b8-4d94-41b7-b7f8-6e3870ee3aa0";
paths = (
{
closed = 1;
nodes = (
"1857 372 OFFCURVE",
"1922 381 OFFCURVE",
"1995 407 OFFCURVE",
"2062 452 OFFCURVE",
"2080 487 QCURVE",
"2061 534 OFFCURVE",
"2003 534 QCURVE SMOOTH",
"1981 534 OFFCURVE",
"1964 522 QCURVE",
"1922 498 OFFCURVE",
"1869 411 OFFCURVE",
"1843 372 QCURVE"
);
},
{
closed = 1;
nodes = (
"340 242 LINE SMOOTH",
"403 239 OFFCURVE",
"507 239 QCURVE SMOOTH",
"673 239 OFFCURVE",
"944 248 QCURVE",
"1328 274 OFFCURVE",
"1575 317 OFFCURVE",
"1664 362 OFFCURVE",
"1693 390 OFFCURVE",
"1711 412 OFFCURVE",
"1722 427 OFFCURVE",
"1731 430 QCURVE",
"1738 430 OFFCURVE",
"1751 415 OFFCURVE",
"1769 397 OFFCURVE",
"1796 379 OFFCURVE",
"1821 379 QCURVE",
"1826 385 OFFCURVE",
"1843 416 OFFCURVE",
"1865 452 OFFCURVE",
"1883 485 OFFCURVE",
"1886 490 QCURVE SMOOTH",
"1897 509 OFFCURVE",
"1928 551 OFFCURVE",
"1964 587 OFFCURVE",
"2005 612 OFFCURVE",
"2027 612 QCURVE SMOOTH",
"2066 612 OFFCURVE",
"2105 559 OFFCURVE",
"2105 518 QCURVE SMOOTH",
"2105 452 OFFCURVE",
"2056 338 OFFCURVE",
"1978 252 OFFCURVE",
"1870 201 OFFCURVE",
"1814 201 QCURVE",
"1745 204 OFFCURVE",
"1691 271 OFFCURVE",
"1686 333 QCURVE",
"1657 290 OFFCURVE",
"1584 217 OFFCURVE",
"1219 148 OFFCURVE",
"720 128 QCURVE",
"511 132 OFFCURVE",
"348 145 QCURVE",
"208 151 OFFCURVE",
"126 191 QCURVE SMOOTH",
"80 213 OFFCURVE",
"80 226 QCURVE SMOOTH",
"80 247 OFFCURVE",
"206 247 QCURVE"
);
}
);
width = 2245;
}
);
unicode =  603;
},
{
glyphname = sana;
layers = (
{
layerId = "84ea52b8-4d94-41b7-b7f8-6e3870ee3aa0";
paths = (
{
closed = 1;
nodes = (
"1878 18 OFFCURVE",
"1717 18 QCURVE SMOOTH",
"1636 18 OFFCURVE",
"1553 22 QCURVE SMOOTH",
"1304 35 OFFCURVE",
"1026 151 OFFCURVE",
"909 242 OFFCURVE",
"898 245 QCURVE",
"897 245 LINE",
"885 245 OFFCURVE",
"793 113 OFFCURVE",
"734 66 QCURVE SMOOTH",
"686 28 OFFCURVE",
"636 28 QCURVE SMOOTH",
"625 28 OFFCURVE",
"614 30 QCURVE SMOOTH",
"553 40 OFFCURVE",
"501 62 QCURVE SMOOTH",
"460 80 OFFCURVE",
"422 80 QCURVE",
"402 79 LINE",
"355 73 OFFCURVE",
"293 26 OFFCURVE",
"231 -46 QCURVE SMOOTH",
"198 -84 OFFCURVE",
"182 -84 QCURVE SMOOTH",
"169 -84 OFFCURVE",
"169 -71 QCURVE SMOOTH",
"169 -53 OFFCURVE",
"195 -5 QCURVE",
"247 97 OFFCURVE",
"454 309 OFFCURVE",
"538 326 QCURVE SMOOTH",
"574 333 OFFCURVE",
"601 333 QCURVE SMOOTH",
"637 333 OFFCURVE",
"658 320 QCURVE SMOOTH",
"716 285 OFFCURVE",
"756 285 QCURVE SMOOTH",
"805 285 OFFCURVE",
"862 336 QCURVE",
"922 401 OFFCURVE",
"1016 491 OFFCURVE",
"1037 493 QCURVE",
"1041 493 LINE SMOOTH",
"1059 493 OFFCURVE",
"1070 478 QCURVE",
"1075 470 OFFCURVE",
"1115 432 OFFCURVE",
"1239 365 OFFCURVE",
"1496 288 OFFCURVE",
"1740 278 QCURVE",
"1786 277 OFFCURVE",
"1833 277 QCURVE SMOOTH",
"2036 277 OFFCURVE",
"2255 310 QCURVE SMOOTH",
"2525 351 OFFCURVE",
"3050 529 OFFCURVE",
"3713 978 OFFCURVE",
"3776 1020 QCURVE",
"3729 892 OFFCURVE",
"3585 742 QCURVE",
"3015 354 OFFCURVE",
"2618 167 OFFCURVE",
"2261 61 OFFCURVE",
"2032 35 QCURVE SMOOTH"
);
}
);
width = 3941;
}
);
unicode =  601;
},
{
glyphname = comma.1;
layers = (
{
layerId = "84ea52b8-4d94-41b7-b7f8-6e3870ee3aa0";
paths = (
{
closed = 1;
nodes = (
"400 435 LINE SMOOTH",
"429 435 OFFCURVE",
"441 407 QCURVE",
"441 397 LINE SMOOTH",
"441 315 OFFCURVE",
"375 226 OFFCURVE",
"332 220 QCURVE SMOOTH",
"317 218 LINE",
"283 218 OFFCURVE",
"251 244 QCURVE",
"206 283 OFFCURVE",
"206 366 QCURVE SMOOTH",
"206 466 OFFCURVE",
"281 604 QCURVE",
"291 629 OFFCURVE",
"335 681 OFFCURVE",
"353 694 QCURVE SMOOTH",
"366 703 OFFCURVE",
"373 703 QCURVE SMOOTH",
"376 703 OFFCURVE",
"379 701 QCURVE",
"380 699 OFFCURVE",
"380 696 QCURVE SMOOTH",
"380 684 OFFCURVE",
"365 653 QCURVE",
"355 634 OFFCURVE",
"315 562 OFFCURVE",
"288 479 OFFCURVE",
"288 439 QCURVE SMOOTH",
"288 400 OFFCURVE",
"317 376 QCURVE SMOOTH",
"324 370 OFFCURVE",
"330 370 QCURVE SMOOTH",
"342 370 OFFCURVE",
"355 407 QCURVE",
"360 419 OFFCURVE",
"383 434 OFFCURVE",
"397 435 QCURVE"
);
}
);
width = 642;
}
);
unicode =  60c;
},
{
glyphname = glyph167;
layers = (
{
layerId = "84ea52b8-4d94-41b7-b7f8-6e3870ee3aa0";
paths = (
{
closed = 1;
nodes = (
"214 690 LINE",
"214 697 OFFCURVE",
"229 722 QCURVE SMOOTH",
"246 751 OFFCURVE",
"295 819 OFFCURVE",
"343 873 OFFCURVE",
"352 873 QCURVE SMOOTH",
"356 873 OFFCURVE",
"419 834 OFFCURVE",
"489 784 OFFCURVE",
"544 739 OFFCURVE",
"544 733 QCURVE SMOOTH",
"544 722 OFFCURVE",
"509 659 OFFCURVE",
"463 597 OFFCURVE",
"413 544 OFFCURVE",
"402 543 QCURVE",
"354 576 OFFCURVE",
"253 646 OFFCURVE",
"214 688 QCURVE"
);
},
{
closed = 1;
nodes = (
"225 166 LINE",
"225 173 OFFCURVE",
"257 228 OFFCURVE",
"306 298 OFFCURVE",
"354 352 OFFCURVE",
"365 352 QCURVE SMOOTH",
"369 352 OFFCURVE",
"430 311 OFFCURVE",
"500 262 OFFCURVE",
"557 218 OFFCURVE",
"557 211 QCURVE SMOOTH",
"557 199 OFFCURVE",
"522 138 OFFCURVE",
"474 74 OFFCURVE",
"424 23 OFFCURVE",
"414 20 QCURVE",
"366 53 OFFCURVE",
"266 123 OFFCURVE",
"225 165 QCURVE"
);
}
);
width = 921;
}
);
unicode =   3a;
},
{
glyphname = glyph168;
layers = (
{
layerId = "84ea52b8-4d94-41b7-b7f8-6e3870ee3aa0";
paths = (
{
closed = 1;
nodes = (
"311 669 LINE SMOOTH",
"340 669 OFFCURVE",
"352 640 QCURVE",
"352 630 LINE SMOOTH",
"352 548 OFFCURVE",
"286 460 OFFCURVE",
"243 454 QCURVE SMOOTH",
"229 452 LINE",
"195 452 OFFCURVE",
"163 478 QCURVE SMOOTH",
"117 517 OFFCURVE",
"117 598 QCURVE SMOOTH",
"117 643 OFFCURVE",
"135 694 QCURVE SMOOTH",
"157 759 OFFCURVE",
"192 837 QCURVE",
"204 861 OFFCURVE",
"247 915 OFFCURVE",
"266 928 QCURVE SMOOTH",
"278 936 OFFCURVE",
"285 936 QCURVE SMOOTH",
"289 936 OFFCURVE",
"291 934 QCURVE",
"292 932 OFFCURVE",
"292 929 QCURVE SMOOTH",
"292 918 OFFCURVE",
"277 887 QCURVE SMOOTH",
"269 871 OFFCURVE",
"243 822 OFFCURVE",
"217 766 OFFCURVE",
"199 703 OFFCURVE",
"199 673 QCURVE SMOOTH",
"199 634 OFFCURVE",
"228 610 QCURVE",
"236 603 OFFCURVE",
"242 603 QCURVE SMOOTH",
"253 603 OFFCURVE",
"267 640 QCURVE SMOOTH",
"272 653 OFFCURVE",
"294 668 OFFCURVE",
"308 669 QCURVE"
);
},
{
closed = 1;
nodes = (
"132 146 LINE",
"132 151 OFFCURVE",
"154 188 OFFCURVE",
"188 236 OFFCURVE",
"220 273 OFFCURVE",
"226 273 QCURVE SMOOTH",
"230 273 OFFCURVE",
"272 245 OFFCURVE",
"320 211 OFFCURVE",
"359 180 OFFCURVE",
"359 176 QCURVE SMOOTH",
"359 168 OFFCURVE",
"335 126 OFFCURVE",
"303 82 OFFCURVE",
"269 46 OFFCURVE",
"260 45 QCURVE",
"228 68 OFFCURVE",
"158 116 OFFCURVE",
"132 145 QCURVE"
);
}
);
width = 461;
}
);
unicode =  61b;
},
{
glyphname = glyph169;
layers = (
{
layerId = "84ea52b8-4d94-41b7-b7f8-6e3870ee3aa0";
paths = (
{
closed = 1;
nodes = (
"60 90 LINE",
"60 96 OFFCURVE",
"100 156 OFFCURVE",
"134 203 OFFCURVE",
"166 240 OFFCURVE",
"172 240 QCURVE SMOOTH",
"176 240 OFFCURVE",
"218 212 OFFCURVE",
"266 179 OFFCURVE",
"304 148 OFFCURVE",
"304 143 QCURVE SMOOTH",
"304 135 OFFCURVE",
"281 93 OFFCURVE",
"249 49 OFFCURVE",
"197 -9 OFFCURVE",
"188 -11 QCURVE",
"156 12 OFFCURVE",
"86 60 OFFCURVE",
"60 89 QCURVE"
);
},
{
closed = 1;
nodes = (
"143 889 LINE",
"143 902 OFFCURVE",
"167 957 QCURVE SMOOTH",
"194 1020 OFFCURVE",
"253 1119 QCURVE",
"255 1125 OFFCURVE",
"258 1125 QCURVE SMOOTH",
"263 1125 OFFCURVE",
"263 1119 QCURVE",
"303 890 OFFCURVE",
"303 759 QCURVE SMOOTH",
"303 709 OFFCURVE",
"297 674 QCURVE SMOOTH",
"276 545 OFFCURVE",
"229 466 QCURVE SMOOTH",
"188 395 OFFCURVE",
"162 395 QCURVE SMOOTH",
"159 395 OFFCURVE",
"156 396 QCURVE",
"176 486 OFFCURVE",
"176 594 QCURVE SMOOTH",
"176 687 OFFCURVE",
"163 780 QCURVE",
"148 878 OFFCURVE",
"144 886 QCURVE"
);
}
);
width = 474;
}
);
unicode =   21;
},
{
glyphname = glyph170;
layers = (
{
layerId = "84ea52b8-4d94-41b7-b7f8-6e3870ee3aa0";
paths = (
{
closed = 1;
nodes = (
"166 172 OFFCURVE",
"166 192 QCURVE SMOOTH",
"166 210 OFFCURVE",
"181 245 OFFCURVE",
"207 271 OFFCURVE",
"242 285 OFFCURVE",
"262 285 QCURVE SMOOTH",
"280 285 OFFCURVE",
"316 271 OFFCURVE",
"342 245 OFFCURVE",
"358 210 OFFCURVE",
"358 192 QCURVE SMOOTH",
"358 172 OFFCURVE",
"342 137 OFFCURVE",
"316 112 OFFCURVE",
"280 98 OFFCURVE",
"262 98 QCURVE SMOOTH",
"242 98 OFFCURVE",
"207 112 OFFCURVE",
"181 137 OFFCURVE",
"173.5 154.5 QCURVE SMOOTH"
);
},
{
closed = 1;
nodes = (
"787 172 OFFCURVE",
"787 192 QCURVE SMOOTH",
"787 210 OFFCURVE",
"802 245 OFFCURVE",
"829 271 OFFCURVE",
"863 285 OFFCURVE",
"884 285 QCURVE SMOOTH",
"903 285 OFFCURVE",
"939 271 OFFCURVE",
"964 245 OFFCURVE",
"980 210 OFFCURVE",
"980 192 QCURVE SMOOTH",
"980 172 OFFCURVE",
"964 137 OFFCURVE",
"939 112 OFFCURVE",
"903 98 OFFCURVE",
"884 98 QCURVE SMOOTH",
"863 98 OFFCURVE",
"829 112 OFFCURVE",
"802 137 OFFCURVE",
"794.5 154.5 QCURVE SMOOTH"
);
},
{
closed = 1;
nodes = (
"1437 158 OFFCURVE",
"1437 178 QCURVE SMOOTH",
"1437 196 OFFCURVE",
"1452 232 OFFCURVE",
"1478 257 OFFCURVE",
"1512 272 OFFCURVE",
"1533 272 QCURVE SMOOTH",
"1552 272 OFFCURVE",
"1587 257 OFFCURVE",
"1613 232 OFFCURVE",
"1628 196 OFFCURVE",
"1628 178 QCURVE SMOOTH",
"1628 158 OFFCURVE",
"1613 123 OFFCURVE",
"1587 98 OFFCURVE",
"1552 83 OFFCURVE",
"1533 83 QCURVE SMOOTH",
"1512 83 OFFCURVE",
"1478 98 OFFCURVE",
"1452 123 OFFCURVE",
"1444.5 140.5 QCURVE SMOOTH"
);
}
);
width = 1853;
}
);
unicode = 2026;
},
{
glyphname = q_l;
layers = (
{
layerId = "84ea52b8-4d94-41b7-b7f8-6e3870ee3aa0";
paths = (
{
closed = 1;
nodes = (
"159 1604 OFFCURVE",
"157 1606 QCURVE SMOOTH",
"154 1609 OFFCURVE",
"154 1615 QCURVE SMOOTH",
"154 1630 OFFCURVE",
"198 1704 QCURVE",
"225 1754 OFFCURVE",
"225 1774 QCURVE SMOOTH",
"225 1784 OFFCURVE",
"221 1792 QCURVE",
"215 1801 OFFCURVE",
"202 1801 QCURVE SMOOTH",
"195 1801 OFFCURVE",
"186 1798 QCURVE SMOOTH",
"180 1796 OFFCURVE",
"174 1796 QCURVE SMOOTH",
"154 1796 OFFCURVE",
"137 1815 QCURVE SMOOTH",
"116 1838 OFFCURVE",
"116 1885 QCURVE SMOOTH",
"116 1894 LINE",
"118 1947 OFFCURVE",
"173 2023 OFFCURVE",
"205 2026 QCURVE",
"212 2026 LINE SMOOTH",
"275 2026 OFFCURVE",
"296 1951 QCURVE",
"305 1922 OFFCURVE",
"305 1881 QCURVE SMOOTH",
"305 1735 OFFCURVE",
"195 1621 QCURVE",
"174 1604 OFFCURVE",
"163 1604 QCURVE SMOOTH"
);
}
);
width = 469;
}
);
unicode = 2019;
},
{
glyphname = q_r;
layers = (
{
layerId = "84ea52b8-4d94-41b7-b7f8-6e3870ee3aa0";
paths = (
{
closed = 1;
nodes = (
"279 2005 OFFCURVE",
"281 2002 QCURVE",
"285 1999 OFFCURVE",
"285 1993 QCURVE SMOOTH",
"285 1979 OFFCURVE",
"241 1905 QCURVE",
"213 1854 OFFCURVE",
"213 1834 QCURVE SMOOTH",
"213 1824 OFFCURVE",
"217 1816 QCURVE",
"223 1807 OFFCURVE",
"236 1807 QCURVE",
"253 1810 LINE",
"259 1812 OFFCURVE",
"265 1812 QCURVE SMOOTH",
"285 1812 OFFCURVE",
"301 1794 QCURVE",
"323 1771 OFFCURVE",
"323 1722 QCURVE SMOOTH",
"323 1716 LINE",
"321 1662 OFFCURVE",
"266 1586 OFFCURVE",
"234 1583 QCURVE",
"225 1583 LINE SMOOTH",
"165 1583 OFFCURVE",
"142 1658 QCURVE SMOOTH",
"133 1686 OFFCURVE",
"133 1727 QCURVE SMOOTH",
"133 1872 OFFCURVE",
"244 1987 QCURVE",
"264 2005 OFFCURVE",
"275 2005 QCURVE SMOOTH"
);
}
);
width = 469;
}
);
unicode = 2018;
},
{
glyphname = chotimad;
layers = (
{
anchors = (
{
name = _b.takhalus;
position = "{-60, 0}";
},
{
name = _m.takhalus;
position = "{0, 0}";
},
{
name = _b.takhalus_2;
position = "{-60, 0}";
}
);
layerId = "84ea52b8-4d94-41b7-b7f8-6e3870ee3aa0";
paths = (
{
closed = 1;
nodes = (
"435 1634 OFFCURVE",
"368 1547 OFFCURVE",
"294 1495 OFFCURVE",
"250 1494 QCURVE",
"235 1493 LINE",
"202 1493 OFFCURVE",
"181 1499 QCURVE SMOOTH",
"156 1506 OFFCURVE",
"122 1516 OFFCURVE",
"108 1516 QCURVE SMOOTH",
"104 1516 LINE",
"88 1515 OFFCURVE",
"54 1502 OFFCURVE",
"40 1488 QCURVE",
"29 1476 OFFCURVE",
"24 1476 QCURVE",
"20 1479 LINE",
"20 1488 OFFCURVE",
"56 1536 QCURVE SMOOTH",
"96 1589 OFFCURVE",
"128 1602 QCURVE SMOOTH",
"146 1609 OFFCURVE",
"164 1609 QCURVE SMOOTH",
"177 1609 OFFCURVE",
"190 1604 QCURVE",
"240 1588 OFFCURVE",
"271 1588 QCURVE SMOOTH",
"293 1588 OFFCURVE",
"322 1593 QCURVE SMOOTH",
"369 1601 OFFCURVE",
"435 1676 QCURVE"
);
}
);
width = 0;
}
);
unicode =  6e4;
},
{
glyphname = dozabar;
layers = (
{
anchors = (
{
name = _b.takhalus;
position = "{0, 0}";
},
{
name = _m.takhalus;
position = "{0, 0}";
},
{
name = _b.takhalus_2;
position = "{0, 0}";
}
);
layerId = "84ea52b8-4d94-41b7-b7f8-6e3870ee3aa0";
paths = (
{
closed = 1;
nodes = (
"456 1832 OFFCURVE",
"456 1829 QCURVE SMOOTH",
"456 1823 OFFCURVE",
"447 1804 QCURVE SMOOTH",
"430 1769 OFFCURVE",
"335 1704 OFFCURVE",
"243 1654 OFFCURVE",
"172 1615 QCURVE",
"157 1606 OFFCURVE",
"150 1606 QCURVE SMOOTH",
"146 1606 OFFCURVE",
"146 1611 QCURVE",
"146 1613 OFFCURVE",
"147 1618 QCURVE",
"156 1640 OFFCURVE",
"190 1688 OFFCURVE",
"254 1724 OFFCURVE",
"291 1742 OFFCURVE",
"339 1768 OFFCURVE",
"392 1796 OFFCURVE",
"436 1821 OFFCURVE",
"450 1830 QCURVE SMOOTH",
"453 1832 OFFCURVE",
"454 1832 QCURVE"
);
},
{
closed = 1;
nodes = (
"432 1682 OFFCURVE",
"432 1679 QCURVE SMOOTH",
"432 1673 OFFCURVE",
"423 1654 QCURVE SMOOTH",
"406 1619 OFFCURVE",
"311 1554 OFFCURVE",
"219 1504 OFFCURVE",
"148 1465 QCURVE",
"133 1456 OFFCURVE",
"126 1456 QCURVE SMOOTH",
"122 1456 OFFCURVE",
"122 1461 QCURVE",
"122 1463 OFFCURVE",
"123 1468 QCURVE",
"132 1490 OFFCURVE",
"166 1538 OFFCURVE",
"230 1574 OFFCURVE",
"267 1592 OFFCURVE",
"315 1618 OFFCURVE",
"368 1646 OFFCURVE",
"412 1671 OFFCURVE",
"426 1680 QCURVE SMOOTH",
"429 1682 OFFCURVE",
"430 1682 QCURVE"
);
}
);
width = 0;
}
);
unicode =  64b;
},
{
glyphname = dopaish;
layers = (
{
anchors = (
{
name = _b.takhalus;
position = "{0, 0}";
},
{
name = _m.takhalus;
position = "{0, 0}";
},
{
name = _b.takhalus_2;
position = "{0, 0}";
}
);
layerId = "84ea52b8-4d94-41b7-b7f8-6e3870ee3aa0";
paths = (
{
closed = 1;
nodes = (
"355 1769 OFFCURVE",
"402 1736 OFFCURVE",
"421 1736 QCURVE",
"460 1751 OFFCURVE",
"460 1787 QCURVE SMOOTH",
"460 1807 OFFCURVE",
"425 1838 OFFCURVE",
"403 1838 QCURVE SMOOTH",
"391 1838 OFFCURVE",
"361 1822 OFFCURVE",
"355 1795 QCURVE"
);
},
{
closed = 1;
nodes = (
"348 1661 OFFCURVE",
"307 1703 OFFCURVE",
"306 1741 QCURVE",
"308 1765 OFFCURVE",
"340 1841 OFFCURVE",
"373 1892 OFFCURVE",
"418 1930 OFFCURVE",
"443 1930 QCURVE SMOOTH",
"485 1930 OFFCURVE",
"506 1868 OFFCURVE",
"506 1834 QCURVE SMOOTH",
"506 1780 OFFCURVE",
"460 1685 OFFCURVE",
"386 1607 OFFCURVE",
"298 1541 OFFCURVE",
"256 1514 QCURVE",
"244 1509 OFFCURVE",
"202 1484 OFFCURVE",
"199 1484 QCURVE",
"197 1481 OFFCURVE",
"190 1481 QCURVE SMOOTH",
"186 1481 OFFCURVE",
"186 1485 QCURVE SMOOTH",
"186 1489 OFFCURVE",
"190 1497 QCURVE",
"203 1519 OFFCURVE",
"239 1544 OFFCURVE",
"260 1561 QCURVE",
"295 1587 OFFCURVE",
"349 1636 OFFCURVE",
"376 1657 QCURVE"
);
},
{
closed = 1;
nodes = (
"101 1657 OFFCURVE",
"101 1674 QCURVE SMOOTH",
"101 1721 OFFCURVE",
"129 1776 QCURVE SMOOTH",
"167 1852 OFFCURVE",
"209 1892 QCURVE",
"221 1908 OFFCURVE",
"271 1952 OFFCURVE",
"276 1955 QCURVE",
"281 1960 OFFCURVE",
"288 1960 QCURVE SMOOTH",
"291 1960 OFFCURVE",
"291 1956 QCURVE SMOOTH",
"291 1951 OFFCURVE",
"288 1942 QCURVE",
"288 1939 OFFCURVE",
"260 1898 OFFCURVE",
"253 1885 QCURVE",
"243 1873 OFFCURVE",
"212 1841 OFFCURVE",
"182 1802 OFFCURVE",
"161 1753 OFFCURVE",
"161 1723 QCURVE SMOOTH",
"161 1711 OFFCURVE",
"179 1673 OFFCURVE",
"191 1673 QCURVE",
"199 1676 OFFCURVE",
"203 1688 OFFCURVE",
"209 1696 QCURVE",
"218 1720 OFFCURVE",
"232 1720 QCURVE SMOOTH",
"236 1720 OFFCURVE",
"241 1715 QCURVE",
"251 1711 OFFCURVE",
"251 1681 QCURVE SMOOTH",
"251 1654 OFFCURVE",
"217 1598 OFFCURVE",
"199 1589 QCURVE SMOOTH",
"185 1582 OFFCURVE",
"160 1582 QCURVE SMOOTH",
"149 1582 LINE SMOOTH",
"118 1582 OFFCURVE",
"105 1642 QCURVE"
);
}
);
width = 0;
}
);
unicode =  64c;
},
{
glyphname = dozair;
layers = (
{
anchors = (
{
name = _m.dozair_2;
position = "{0, 0}";
},
{
name = _t.dozair;
position = "{0, 0}";
}
);
layerId = "84ea52b8-4d94-41b7-b7f8-6e3870ee3aa0";
paths = (
{
closed = 1;
nodes = (
"464 -554 OFFCURVE",
"464 -557 QCURVE SMOOTH",
"464 -563 OFFCURVE",
"455 -582 QCURVE SMOOTH",
"438 -617 OFFCURVE",
"343 -682 OFFCURVE",
"251 -732 OFFCURVE",
"180 -771 QCURVE",
"165 -780 OFFCURVE",
"158 -780 QCURVE SMOOTH",
"154 -780 OFFCURVE",
"154 -775 QCURVE",
"154 -773 OFFCURVE",
"155 -768 QCURVE",
"164 -746 OFFCURVE",
"198 -698 OFFCURVE",
"262 -662 OFFCURVE",
"299 -644 OFFCURVE",
"347 -618 OFFCURVE",
"400 -590 OFFCURVE",
"444 -565 OFFCURVE",
"458 -556 QCURVE SMOOTH",
"461 -554 OFFCURVE",
"462 -554 QCURVE"
);
},
{
closed = 1;
nodes = (
"440 -704 OFFCURVE",
"440 -707 QCURVE SMOOTH",
"440 -713 OFFCURVE",
"431 -732 QCURVE SMOOTH",
"414 -767 OFFCURVE",
"319 -832 OFFCURVE",
"227 -882 OFFCURVE",
"156 -921 QCURVE",
"141 -930 OFFCURVE",
"134 -930 QCURVE SMOOTH",
"130 -930 OFFCURVE",
"130 -925 QCURVE",
"130 -923 OFFCURVE",
"131 -918 QCURVE",
"140 -896 OFFCURVE",
"174 -848 OFFCURVE",
"238 -812 OFFCURVE",
"275 -794 OFFCURVE",
"323 -768 OFFCURVE",
"376 -740 OFFCURVE",
"420 -715 OFFCURVE",
"434 -706 QCURVE SMOOTH",
"437 -704 OFFCURVE",
"438 -704 QCURVE"
);
}
);
width = 0;
}
);
unicode =  64d;
},
{
glyphname = zabar;
layers = (
{
anchors = (
{
name = _b.takhalus;
position = "{0, 0}";
},
{
name = _m.takhalus;
position = "{0, 0}";
},
{
name = _b.takhalus_2;
position = "{0, 0}";
}
);
layerId = "84ea52b8-4d94-41b7-b7f8-6e3870ee3aa0";
paths = (
{
closed = 1;
nodes = (
"437 1712 OFFCURVE",
"437 1709 QCURVE SMOOTH",
"437 1703 OFFCURVE",
"428 1684 QCURVE SMOOTH",
"411 1649 OFFCURVE",
"316 1584 OFFCURVE",
"224 1534 OFFCURVE",
"153 1495 QCURVE",
"138 1486 OFFCURVE",
"131 1486 QCURVE SMOOTH",
"127 1486 OFFCURVE",
"127 1491 QCURVE",
"127 1493 OFFCURVE",
"129 1498 QCURVE",
"137 1520 OFFCURVE",
"171 1568 OFFCURVE",
"235 1604 OFFCURVE",
"272 1622 OFFCURVE",
"320 1648 OFFCURVE",
"373 1676 OFFCURVE",
"417 1701 OFFCURVE",
"431 1710 QCURVE SMOOTH",
"434 1712 OFFCURVE",
"435 1712 QCURVE"
);
}
);
width = 0;
}
);
unicode =  64e;
},
{
glyphname = paish;
layers = (
{
anchors = (
{
name = _b.takhalus;
position = "{0, 0}";
},
{
name = _m.takhalus;
position = "{0, 0}";
},
{
name = _b.takhalus_2;
position = "{0, 0}";
}
);
layerId = "84ea52b8-4d94-41b7-b7f8-6e3870ee3aa0";
paths = (
{
closed = 1;
nodes = (
"294 1740 OFFCURVE",
"340 1706 OFFCURVE",
"360 1706 QCURVE",
"398 1721 OFFCURVE",
"398 1757 QCURVE SMOOTH",
"398 1777 OFFCURVE",
"363 1808 OFFCURVE",
"342 1808 QCURVE SMOOTH",
"330 1808 OFFCURVE",
"300 1792 OFFCURVE",
"294 1765 QCURVE"
);
},
{
closed = 1;
nodes = (
"287 1632 OFFCURVE",
"246 1674 OFFCURVE",
"245 1711 QCURVE",
"247 1735 OFFCURVE",
"279 1810 OFFCURVE",
"312 1861 OFFCURVE",
"356 1899 OFFCURVE",
"381 1899 QCURVE SMOOTH",
"423 1899 OFFCURVE",
"444 1838 OFFCURVE",
"444 1804 QCURVE SMOOTH",
"444 1750 OFFCURVE",
"398 1656 OFFCURVE",
"325 1578 OFFCURVE",
"237 1513 OFFCURVE",
"195 1486 QCURVE",
"183 1481 OFFCURVE",
"142 1456 OFFCURVE",
"139 1456 QCURVE",
"136 1453 OFFCURVE",
"130 1453 QCURVE SMOOTH",
"126 1453 OFFCURVE",
"126 1457 QCURVE SMOOTH",
"126 1461 OFFCURVE",
"130 1469 QCURVE",
"143 1491 OFFCURVE",
"178 1515 OFFCURVE",
"200 1532 QCURVE SMOOTH",
"235 1559 OFFCURVE",
"288 1607 OFFCURVE",
"315 1628 QCURVE"
);
}
);
width = 0;
}
);
unicode =  64f;
},
{
glyphname = zair;
layers = (
{
anchors = (
{
name = _m.dozair_2;
position = "{0, 0}";
},
{
name = _t.dozair;
position = "{27, 27}";
}
);
layerId = "84ea52b8-4d94-41b7-b7f8-6e3870ee3aa0";
paths = (
{
closed = 1;
nodes = (
"450 -541 OFFCURVE",
"450 -544 QCURVE SMOOTH",
"450 -550 OFFCURVE",
"441 -569 QCURVE SMOOTH",
"424 -604 OFFCURVE",
"329 -669 OFFCURVE",
"237 -719 OFFCURVE",
"166 -758 QCURVE",
"151 -767 OFFCURVE",
"144 -767 QCURVE SMOOTH",
"140 -767 OFFCURVE",
"140 -762 QCURVE",
"140 -760 OFFCURVE",
"141 -755 QCURVE",
"150 -733 OFFCURVE",
"184 -685 OFFCURVE",
"248 -649 OFFCURVE",
"285 -631 OFFCURVE",
"333 -605 OFFCURVE",
"386 -577 OFFCURVE",
"430 -552 OFFCURVE",
"444 -543 QCURVE SMOOTH",
"447 -541 OFFCURVE",
"448 -541 QCURVE"
);
}
);
width = 0;
}
);
unicode =  650;
},
{
glyphname = shad;
layers = (
{
anchors = (
{
name = _b.takhalus;
position = "{0, 0}";
},
{
name = _m.takhalus;
position = "{0, 0}";
},
{
name = m.takhalus;
position = "{9, 297}";
},
{
name = _b.takhalus_2;
position = "{0, 0}";
}
);
layerId = "84ea52b8-4d94-41b7-b7f8-6e3870ee3aa0";
paths = (
{
closed = 1;
nodes = (
"264 1579 OFFCURVE",
"275 1587 QCURVE",
"294 1600 OFFCURVE",
"305 1653 QCURVE",
"316 1714 OFFCURVE",
"331 1714 QCURVE SMOOTH",
"345 1714 OFFCURVE",
"346 1697 QCURVE",
"346 1690 LINE SMOOTH",
"346 1673 OFFCURVE",
"343 1646 QCURVE",
"342 1633 LINE",
"342 1598 OFFCURVE",
"371 1598 QCURVE SMOOTH",
"377 1598 OFFCURVE",
"386 1600 QCURVE",
"419 1606 OFFCURVE",
"419 1660 QCURVE",
"418 1673 LINE",
"418 1692 OFFCURVE",
"435 1738 OFFCURVE",
"450 1739 QCURVE",
"451 1739 LINE",
"465 1739 OFFCURVE",
"465 1682 QCURVE SMOOTH",
"465 1648 OFFCURVE",
"452 1589 OFFCURVE",
"424 1549 OFFCURVE",
"387 1522 OFFCURVE",
"365 1517 QCURVE SMOOTH",
"353 1514 OFFCURVE",
"345 1514 QCURVE SMOOTH",
"337 1514 OFFCURVE",
"332 1516 QCURVE",
"322 1521 OFFCURVE",
"310 1530 OFFCURVE",
"307 1530 QCURVE",
"274 1494 OFFCURVE",
"236 1494 QCURVE SMOOTH",
"216 1494 OFFCURVE",
"194 1505 QCURVE SMOOTH",
"159 1523 OFFCURVE",
"159 1574 QCURVE SMOOTH",
"159 1612 OFFCURVE",
"176 1651 QCURVE",
"191 1700 OFFCURVE",
"204 1705 QCURVE",
"211 1707 OFFCURVE",
"215 1707 QCURVE SMOOTH",
"227 1707 OFFCURVE",
"227 1692 QCURVE SMOOTH",
"227 1686 OFFCURVE",
"221 1661 OFFCURVE",
"216 1633 OFFCURVE",
"214 1620 QCURVE",
"213 1611 LINE",
"213 1603 OFFCURVE",
"219 1588 OFFCURVE",
"233 1579 OFFCURVE",
"244 1579 QCURVE SMOOTH"
);
}
);
width = 0;
}
);
unicode =  651;
},
{
glyphname = jazm;
layers = (
{
anchors = (
{
name = _b.takhalus;
position = "{0, 0}";
},
{
name = _m.takhalus;
position = "{0, 0}";
},
{
name = m.takhalus;
position = "{-27, 351}";
},
{
name = _b.takhalus_2;
position = "{0, 0}";
}
);
layerId = "84ea52b8-4d94-41b7-b7f8-6e3870ee3aa0";
paths = (
{
closed = 1;
nodes = (
"318 1606 OFFCURVE",
"258 1615 OFFCURVE",
"241 1615 QCURVE SMOOTH",
"216 1615 OFFCURVE",
"177 1608 OFFCURVE",
"151 1603 QCURVE",
"163 1650 OFFCURVE",
"177 1674 QCURVE",
"199 1715 OFFCURVE",
"241 1737 OFFCURVE",
"290 1737 QCURVE SMOOTH",
"304 1737 OFFCURVE",
"343 1735 OFFCURVE",
"376 1723 OFFCURVE",
"401 1701 OFFCURVE",
"401 1679 QCURVE SMOOTH",
"401 1652 OFFCURVE",
"354 1556 OFFCURVE",
"265 1478 OFFCURVE",
"182 1455 OFFCURVE",
"180 1455 QCURVE",
"173 1453 OFFCURVE",
"169 1453 QCURVE SMOOTH",
"163 1453 OFFCURVE",
"163 1457 QCURVE SMOOTH",
"163 1468 OFFCURVE",
"188 1479 QCURVE",
"193 1482 OFFCURVE",
"318 1570 OFFCURVE",
"318 1582 QCURVE SMOOTH"
);
}
);
width = 0;
}
);
unicode =  652;
},
{
glyphname = mad;
layers = (
{
anchors = (
{
name = _b.takhalus;
position = "{0, 0}";
},
{
name = _m.takhalus;
position = "{0, 0}";
},
{
name = m.takhalus;
position = "{0, 0}";
},
{
name = _b.takhalus_2;
position = "{0, 0}";
}
);
layerId = "84ea52b8-4d94-41b7-b7f8-6e3870ee3aa0";
paths = (
{
closed = 1;
nodes = (
"662 1681 OFFCURVE",
"546 1588 QCURVE SMOOTH",
"434 1498 OFFCURVE",
"334 1498 QCURVE SMOOTH",
"328 1498 LINE SMOOTH",
"288 1498 OFFCURVE",
"241 1515 OFFCURVE",
"212 1538 OFFCURVE",
"202 1538 QCURVE SMOOTH",
"196 1538 OFFCURVE",
"188 1535 QCURVE",
"136 1508 OFFCURVE",
"72 1427 QCURVE",
"64 1421 OFFCURVE",
"44 1421 QCURVE",
"41 1424 OFFCURVE",
"41 1433 QCURVE SMOOTH",
"41 1442 OFFCURVE",
"44 1458 QCURVE",
"146 1648 OFFCURVE",
"272 1731 QCURVE",
"295 1742 OFFCURVE",
"307 1743 QCURVE",
"319 1743 OFFCURVE",
"344 1728 QCURVE",
"390 1703 OFFCURVE",
"438 1703 QCURVE SMOOTH",
"456 1703 OFFCURVE",
"476 1706 QCURVE",
"535 1713 OFFCURVE",
"668 1813 OFFCURVE",
"702 1859 QCURVE",
"708 1859 LINE SMOOTH",
"728 1859 OFFCURVE",
"728 1841 QCURVE"
);
}
);
width = 0;
}
);
unicode =  653;
},
{
glyphname = hamzabelow;
layers = (
{
anchors = (
{
name = _m.dozair_2;
position = "{0, 0}";
},
{
name = _t.dozair;
position = "{0, 0}";
}
);
layerId = "84ea52b8-4d94-41b7-b7f8-6e3870ee3aa0";
paths = (
{
closed = 1;
nodes = (
"336 -528 LINE",
"375 -528 OFFCURVE",
"396 -550 QCURVE SMOOTH",
"414 -569 OFFCURVE",
"414 -593 QCURVE SMOOTH",
"414 -600 LINE",
"411 -625 OFFCURVE",
"394 -625 QCURVE SMOOTH",
"379 -625 OFFCURVE",
"352 -616 QCURVE SMOOTH",
"343 -613 OFFCURVE",
"331 -613 QCURVE SMOOTH",
"292 -613 OFFCURVE",
"271 -635 QCURVE SMOOTH",
"259 -648 OFFCURVE",
"259 -663 QCURVE SMOOTH",
"259 -693 OFFCURVE",
"288 -712 QCURVE",
"302 -720 OFFCURVE",
"319 -720 QCURVE SMOOTH",
"330 -720 OFFCURVE",
"342 -717 QCURVE",
"372 -708 OFFCURVE",
"430 -664 OFFCURVE",
"457 -646 QCURVE SMOOTH",
"469 -638 OFFCURVE",
"475 -638 QCURVE SMOOTH",
"482 -638 OFFCURVE",
"482 -649 QCURVE SMOOTH",
"482 -652 LINE",
"480 -676 OFFCURVE",
"440 -723 OFFCURVE",
"363 -779 OFFCURVE",
"239 -873 OFFCURVE",
"190 -908 OFFCURVE",
"176 -914 QCURVE",
"170 -916 OFFCURVE",
"165 -916 QCURVE SMOOTH",
"157 -916 OFFCURVE",
"150 -911 QCURVE",
"146 -907 OFFCURVE",
"146 -901 QCURVE SMOOTH",
"146 -893 OFFCURVE",
"154 -881 QCURVE",
"170 -860 OFFCURVE",
"190 -843 QCURVE SMOOTH",
"203 -832 OFFCURVE",
"203 -825 QCURVE SMOOTH",
"203 -821 OFFCURVE",
"198 -818 QCURVE",
"145 -784 OFFCURVE",
"145 -745 QCURVE SMOOTH",
"145 -725 OFFCURVE",
"162 -700 QCURVE SMOOTH",
"185 -668 OFFCURVE",
"294 -529 OFFCURVE",
"334 -528 QCURVE"
);
}
);
width = 0;
}
);
unicode =  655;
},
{
glyphname = hamza1;
layers = (
{
layerId = "84ea52b8-4d94-41b7-b7f8-6e3870ee3aa0";
paths = (
{
closed = 1;
nodes = (
"176 -163 OFFCURVE",
"196 -123 OFFCURVE",
"226 -61 OFFCURVE",
"261 14 OFFCURVE",
"291 87 OFFCURVE",
"311 149 OFFCURVE",
"311 167 QCURVE SMOOTH",
"311 223 OFFCURVE",
"287 224 QCURVE",
"287 223 OFFCURVE",
"279 218 OFFCURVE",
"260 210 OFFCURVE",
"231 204 OFFCURVE",
"212 204 QCURVE SMOOTH",
"164 204 OFFCURVE",
"164 268 QCURVE SMOOTH",
"164 300 OFFCURVE",
"190 379 OFFCURVE",
"232 447 OFFCURVE",
"285 493 OFFCURVE",
"313 493 QCURVE SMOOTH",
"330 493 OFFCURVE",
"364 466 OFFCURVE",
"392 425 OFFCURVE",
"409 377 OFFCURVE",
"409 356 QCURVE SMOOTH",
"409 352 LINE",
"407 297 OFFCURVE",
"384 175 OFFCURVE",
"349 54 OFFCURVE",
"305 -56 OFFCURVE",
"259 -139 OFFCURVE",
"214 -189 OFFCURVE",
"195 -189 QCURVE SMOOTH",
"176 -189 OFFCURVE",
"176 -164 QCURVE"
);
}
);
width = 623;
}
);
unicode =  66b;
},
{
glyphname = glyph185;
layers = (
{
layerId = "84ea52b8-4d94-41b7-b7f8-6e3870ee3aa0";
paths = (
{
closed = 1;
nodes = (
"375 81 OFFCURVE",
"380 73 QCURVE",
"392 64 OFFCURVE",
"399 31 QCURVE",
"403 15 OFFCURVE",
"403 -6 QCURVE SMOOTH",
"403 -76 OFFCURVE",
"359 -126 QCURVE",
"315 -170 OFFCURVE",
"273 -170 QCURVE SMOOTH",
"222 -170 OFFCURVE",
"190 -105 QCURVE",
"174 -69 OFFCURVE",
"174 -30 QCURVE SMOOTH",
"174 32 OFFCURVE",
"196 136 QCURVE",
"217 209 OFFCURVE",
"245 267 QCURVE",
"282 339 OFFCURVE",
"331 406 QCURVE",
"354 406 OFFCURVE",
"359 394 QCURVE",
"359 370 OFFCURVE",
"312 283 QCURVE",
"281 211 OFFCURVE",
"268 166 QCURVE SMOOTH",
"254 115 OFFCURVE",
"254 75 QCURVE SMOOTH",
"254 39 OFFCURVE",
"271 7 QCURVE",
"280 -1 OFFCURVE",
"291 -1 QCURVE SMOOTH",
"302 -1 OFFCURVE",
"314 30 QCURVE",
"333 75 OFFCURVE",
"345 77 QCURVE",
"345 79 OFFCURVE",
"361 81 QCURVE"
);
}
);
width = 587;
}
);
unicode =  66c;
},
{
glyphname = hamzaabove;
layers = (
{
anchors = (
{
name = _m.hamzaabove_3;
position = "{0, 0}";
},
{
name = m.takhalus;
position = "{135, 527}";
},
{
name = b.takhalus_2;
position = "{-81, -1404}";
}
);
layerId = "84ea52b8-4d94-41b7-b7f8-6e3870ee3aa0";
paths = (
{
closed = 1;
nodes = (
"290 -9 LINE",
"329 -9 OFFCURVE",
"350 -31 QCURVE SMOOTH",
"368 -50 OFFCURVE",
"368 -74 QCURVE SMOOTH",
"368 -82 LINE",
"365 -106 OFFCURVE",
"348 -106 QCURVE SMOOTH",
"333 -106 OFFCURVE",
"306 -97 QCURVE SMOOTH",
"297 -94 OFFCURVE",
"285 -94 QCURVE SMOOTH",
"246 -94 OFFCURVE",
"225 -116 QCURVE SMOOTH",
"213 -129 OFFCURVE",
"213 -144 QCURVE SMOOTH",
"213 -174 OFFCURVE",
"242 -192 QCURVE SMOOTH",
"256 -201 OFFCURVE",
"273 -201 QCURVE SMOOTH",
"284 -201 OFFCURVE",
"296 -198 QCURVE",
"326 -189 OFFCURVE",
"384 -145 OFFCURVE",
"411 -127 QCURVE SMOOTH",
"423 -119 OFFCURVE",
"429 -119 QCURVE SMOOTH",
"436 -119 OFFCURVE",
"436 -130 QCURVE SMOOTH",
"436 -133 LINE",
"434 -157 OFFCURVE",
"394 -204 OFFCURVE",
"317 -260 OFFCURVE",
"193 -354 OFFCURVE",
"144 -389 OFFCURVE",
"130 -395 QCURVE",
"124 -397 OFFCURVE",
"119 -397 QCURVE SMOOTH",
"111 -397 OFFCURVE",
"104 -392 QCURVE",
"100 -388 OFFCURVE",
"100 -382 QCURVE SMOOTH",
"100 -374 OFFCURVE",
"108 -362 QCURVE",
"124 -341 OFFCURVE",
"144 -324 QCURVE SMOOTH",
"157 -313 OFFCURVE",
"157 -306 QCURVE SMOOTH",
"157 -302 OFFCURVE",
"152 -300 QCURVE",
"99 -265 OFFCURVE",
"99 -226 QCURVE SMOOTH",
"99 -206 OFFCURVE",
"116 -182 QCURVE SMOOTH",
"139 -149 OFFCURVE",
"248 -10 OFFCURVE",
"288 -10 QCURVE"
);
}
);
width = 0;
}
);
unicode =  654;
},
{
glyphname = kharizabar;
layers = (
{
anchors = (
{
name = _m.kharizabar_1;
position = "{324, 1683}";
},
{
name = _m.takhalus;
position = "{0, 0}";
},
{
name = m.takhalus;
position = "{162, 414}";
},
{
name = _b.takhalus_2;
position = "{0, 0}";
}
);
layerId = "84ea52b8-4d94-41b7-b7f8-6e3870ee3aa0";
paths = (
{
closed = 1;
nodes = (
"294 1642 LINE",
"294 1758 OFFCURVE",
"309 1801 QCURVE SMOOTH",
"344 1903 OFFCURVE",
"358 1904 QCURVE",
"364 1904 OFFCURVE",
"364 1893 QCURVE",
"363 1867 OFFCURVE",
"363 1841 QCURVE",
"364 1782 LINE",
"364 1734 OFFCURVE",
"358 1642 QCURVE SMOOTH",
"351 1531 OFFCURVE",
"288 1480 QCURVE",
"295 1587 LINE"
);
}
);
width = 0;
}
);
unicode =  670;
},
{
glyphname = kharizair;
layers = (
{
anchors = (
{
name = _m.dozair_2;
position = "{0, 0}";
},
{
name = _t.dozair;
position = "{63, 18}";
}
);
layerId = "84ea52b8-4d94-41b7-b7f8-6e3870ee3aa0";
paths = (
{
closed = 1;
nodes = (
"299 -853 LINE SMOOTH",
"299 -736 OFFCURVE",
"313 -694 QCURVE SMOOTH",
"346 -598 OFFCURVE",
"358 -597 QCURVE",
"364 -597 OFFCURVE",
"364 -607 QCURVE",
"363 -632 OFFCURVE",
"363 -657 QCURVE",
"364 -713 LINE",
"364 -759 OFFCURVE",
"358 -844 QCURVE",
"352 -950 OFFCURVE",
"293 -998 QCURVE",
"299 -897 LINE"
);
}
);
width = 0;
}
);
unicode =  656;
},
{
glyphname = ultapish;
layers = (
{
anchors = (
{
name = _b.takhalus;
position = "{0, 0}";
},
{
name = _m.takhalus;
position = "{0, 0}";
},
{
name = _b.takhalus_2;
position = "{0, 0}";
}
);
layerId = "84ea52b8-4d94-41b7-b7f8-6e3870ee3aa0";
paths = (
{
closed = 1;
nodes = (
"225 1594 OFFCURVE",
"225 1617 QCURVE SMOOTH",
"225 1679 OFFCURVE",
"262 1752 QCURVE SMOOTH",
"313 1853 OFFCURVE",
"368 1908 QCURVE",
"385 1927 OFFCURVE",
"452 1987 OFFCURVE",
"457 1991 QCURVE",
"464 1998 OFFCURVE",
"473 1998 QCURVE SMOOTH",
"478 1998 OFFCURVE",
"478 1992 QCURVE SMOOTH",
"478 1986 OFFCURVE",
"473 1974 QCURVE",
"473 1970 OFFCURVE",
"437 1916 OFFCURVE",
"428 1898 QCURVE",
"414 1882 OFFCURVE",
"372 1838 OFFCURVE",
"332 1787 OFFCURVE",
"304 1721 OFFCURVE",
"304 1682 QCURVE SMOOTH",
"304 1666 OFFCURVE",
"329 1615 OFFCURVE",
"345 1615 QCURVE",
"356 1619 OFFCURVE",
"361 1635 OFFCURVE",
"368 1647 QCURVE",
"381 1677 OFFCURVE",
"399 1677 QCURVE SMOOTH",
"406 1677 OFFCURVE",
"412 1671 QCURVE",
"424 1666 OFFCURVE",
"424 1626 QCURVE SMOOTH",
"424 1590 OFFCURVE",
"380 1514 OFFCURVE",
"356 1502 QCURVE SMOOTH",
"338 1493 OFFCURVE",
"309 1493 QCURVE SMOOTH",
"300 1493 OFFCURVE",
"289 1494 QCURVE",
"248 1494 OFFCURVE",
"229 1573 QCURVE"
);
}
);
width = 0;
}
);
unicode =  657;
},
{
glyphname = signssuad;
layers = (
{
anchors = (
{
name = _b.takhalus;
position = "{0, 0}";
},
{
name = _m.takhalus;
position = "{0, 0}";
},
{
name = _b.takhalus_2;
position = "{0, 0}";
}
);
layerId = "84ea52b8-4d94-41b7-b7f8-6e3870ee3aa0";
paths = (
{
closed = 1;
nodes = (
"518 1909 LINE",
"500 1953 OFFCURVE",
"456 1953 QCURVE SMOOTH",
"416 1953 OFFCURVE",
"378 1916 QCURVE",
"324 1831 OFFCURVE",
"308 1812 QCURVE SMOOTH",
"299 1801 OFFCURVE",
"299 1796 QCURVE",
"302 1793 LINE",
"304 1793 LINE",
"386 1793 OFFCURVE",
"504 1875 QCURVE"
);
},
{
closed = 1;
nodes = (
"258 1795 LINE",
"278 1841 OFFCURVE",
"315 1894 OFFCURVE",
"400 2008 OFFCURVE",
"434 2036 QCURVE SMOOTH",
"456 2054 OFFCURVE",
"480 2054 QCURVE SMOOTH",
"492 2054 OFFCURVE",
"505 2050 QCURVE",
"542 2035 OFFCURVE",
"553 2009 QCURVE SMOOTH",
"559 1994 OFFCURVE",
"559 1971 QCURVE SMOOTH",
"559 1953 OFFCURVE",
"556 1930 QCURVE",
"547 1877 OFFCURVE",
"489 1750 OFFCURVE",
"423 1697 QCURVE SMOOTH",
"398 1676 OFFCURVE",
"341 1661 QCURVE SMOOTH",
"291 1648 OFFCURVE",
"238 1648 QCURVE SMOOTH",
"224 1648 LINE",
"224 1646 OFFCURVE",
"195 1528 OFFCURVE",
"180 1494 OFFCURVE",
"155 1436 OFFCURVE",
"127 1424 QCURVE",
"129 1477 OFFCURVE",
"129 1518 QCURVE SMOOTH",
"129 1573 OFFCURVE",
"126 1605 QCURVE SMOOTH",
"120 1660 OFFCURVE",
"118 1728 QCURVE",
"128 1825 OFFCURVE",
"178 1843 QCURVE",
"197 1821 OFFCURVE",
"219 1795 OFFCURVE",
"253 1795 QCURVE SMOOTH"
);
}
);
width = 0;
}
);
unicode =  610;
},
